<?xml version="1.0" encoding="utf-8"?>
<!-- Generator: Adobe Illustrator 19.1.0, SVG Export Plug-In . SVG Version: 6.00 Build 0)  -->
<svg version="1.1" id="Camada_1" xmlns="http://www.w3.org/2000/svg" xmlns:xlink="http://www.w3.org/1999/xlink" x="0px" y="0px"
	 viewBox="-2424 2417.6 149.1 166.4" style="enable-background:new -2424 2417.6 149.1 166.4;" xml:space="preserve">
<style type="text/css">
	.st0{fill:#FFFFFF;stroke:#000000;stroke-miterlimit:10;}
</style>
<g id="SE" transform="scale(0.08,-0.08)">
	<g id="m2800100">
		<path class="st0" d="M-34960.8-34344.2v-1l2,2l2-3l1-1h1l1-1l3-3l3-2l14-4l9-1l7-2l-21-27l-1-2l-2-2l-17-22l-21-30l3,66v4v3l5,34
			l1-1l1-1l3-2l2-1l1-2h2L-34960.8-34344.2z"/>
	</g>
	<g id="m2800209">
		<path class="st0" d="M-35173.8-34415.2v1v1l1,1v1l-1,2l-1,1h-1l-5,1l-2,1h-1l-1,1l-1,1l-1,1h-1h-3v1v1v1l-1,1l3,19l94-16h1l40-10
			l22,13l11-18l12-9l8-21l1-4l2-6l1,1h1v1l9,4h1l2,1l4,1l14,5l-23-44l18-9l-3-2l-19-12l-53-12l-3-9v-1v-1l-6-19h-1h-1l-1-1l-1,1
			l-1,1h-1l-1,1l-1-1l-1,1v1l-1,1l-1,2h-1h-1l-1-1l-1-1v-1h-1h-2h-1v1v1h-1l-1-1l-1-1l-1-1l-1-2l-3-2l-2-1l-1-3l-1-1l-1-1l-1-1l-1-1
			l-1,1l-1,3v1h-1l-1,1v1h-2l-1,1h-1v2l-2,1l-1,2l-2-1l-2-2l-1-1l-3-1l-1-1l-1-1l-1-1v-1h-1l-2-1v-1v-1v-1v-1v-1l-1-1l-1-1l-1-1h-1
			h-1l-2-1l-1,1l-1-1v-2v-1v-1v-2h-1l-1-1l-1-1l-1-2h-2h-1h-1h-1h-1h-1v-1h-1v-1h-1l-1-1l1-1h1v-1l-1,1v-1v-1v-1v-1h-1v-1l-1,1l-1-1
			v-2v-1h-1v1h-1l-1,1l-2-1h-1v-1v-1l-1,1h-1v-1l-1-1v-1h-1l-1,1v1h-1h-1v1l-2,1h-1h-1h-1l1-1h-1l-1-1h-1h-1v1l-1-2v-1v-1l-1-2l-1,1
			h-2v1l1,1h1v1h-1h-1h-1l1,1v1v1l-1,1h-1v1v1h-1h-1h-1v1v1v1l-2-1v1l1,3l-1,1h-1l-1-1l-1-1l-2,1v-1h-1l1-1v-1h-1l-1,1h-1h-1l-1-1h1
			l1-1v-1h-1h-1v-1h1h1l-1-1h-1h-1h-1v2v1h1v1v1h-1l-1-1l-2-1v-2l-2-2h-1h-1l-1,1h1l1,1v1l-1,1h-1v-1l-2-1l-1-1l-1,1v1h1l1,1v1h-2v1
			l1,1h1h1v1v1h2h1v1l-1,1l-2,2v1h2l-1,2l-1,1h-2l1,2h1v-1h1v1v1h1h1h1v1l-1,1h-1h-1h-1h-1h-1v1h1v1l-1,1h-2v1l-1,1h-1h-1l-1,1v1
			l-1,1h1v1h1v2l1,1h-1l-1-1l-1,1v2v-1h1v1h1l1,1h1l1,1v1l1,1l1-1h1v1h1v-1l1,1h-1l1,1v1v1h1v-1l1-1l1,1h1l-1,1v1h1l1,1h1v1l-2,2h1
			h1v1v1h-1l1,2h-1v1l-1,2l-1-1v1h-1l-1,1h1v1h-1v1h-1v1v1l-1,1h1v1h1l1,1v1l1-1h1v-1l1,1v1h1v-1l2,1l-1,1v1v1v1v1h-1l1,2h-1l-1,1
			l-1,1h1v1l1,1v1v1l-1,1l-1,1h1h1h1l1,1l-1,1l1,1h1h1v1l1,1v1l1-1h1l1,2l1,1l1,1v1v1v1v1l1,1v2l-1,1l-1,1h1v2v1v1l-1,2l1,1v1v1v1
			l-3,3v1h-1l1,2l1,2v2v1v2v1l-1,1v1l-7,4l-2,5v1l1,1v1l-1,2v1v2v3v1l1,1v1v1l1,3v1l1,1l2,3l1,1l1,1v1v2l1,3l1,2l1,1l2,1
			L-35173.8-34415.2z"/>
	</g>
	<g id="m2800308">
		<path class="st0" d="M-35093.8-35080.2l1,1h1l2,1h1l1,1l2-1h1h1h1l1-1h1h1h1l1-1h1h1l1-1l1-1l1-1l1-1l1-1l-1-5l-1-3l-2-3l-1-2
			l-1-1v-1l-2-2l-1-3l-1-3v-2v-3v-1v-2v-3v-1v-2v-1v-2l1-3v-1l1-2v-1v-1l1-3v-1l1-1v-1v-2v-3v-1v-3v-2v-1v-1l1-3v-1v-3v-1l2-7l2-5
			l1-1l1-1l2-2l5-3l-1-4l-1-3l-1-2h-1l-2-4l-2-2l-1-1l-1-1l-1-1l-1-1v-1h-1v-1h-1l-1-1l-2-1l-2-1v-1l-1-1l-2-2l-1-1l-1-1l-1-1l-1-1
			l-1-1l-1-1v-1l-2-1l-1-2l-1-1l-1-2l-1-1l-1-1l-1-1v-1l-1-1l-1-1l-2-2l-2-3l-1-2l-1-1l-1-1l-2-3l-1-3l-1-1l-2-2l-1-1l-2-3l-3-5
			l-1-2l-2-2l-2-4l-3-4l-2-3l-2-2l-1-2l-4-6l-1-2l-1-1l-1-2l-2-3l-3-5l-3-4l-2-3l-2-3l-2-3l-3-4l-1-1l-2-3l-3-5l-1-3l-3-4l-2-4l-2-4
			l-2-2v-1l-1-1v-1v-1l-1-1l-1-1l-1-1l-1-4l-3-10l-1-4l-1-2l-3-9l-2-5l-1-3l-1,1l-2,1l-3,2l-4,4l-1,3l-2,2v3l-1,4l1,3v10l1,9v4
			l-2,11v1l3,3v1l1,2v1v2v1v1l-5,5h-1l-1,1l-1,1l-1,1v1l-1,1l-1,1v1l-1,1v1v1h1v1v1l1,2l1,1v1l1,2h1v1l1,2l2,1v1l1,2l2,2l1,2l1,2
			l1,1l2,1l1,1h1h2h1h1h1l2-1h1l1-1l1-1l1-1l1-1l1-1l1-2l1-1l1,1h1v1l1,1l1,4l1,2l2,5v1l3,7l3,7v2l3,6l2,6l3,6l3,8l2,6l2,6l1,1l2,6
			v1l3,7l2,3v1v1l1,1v1l1,3l2,4l1,3v1l1,1v1l1,1v1v1l1,1l1,2v1v1l1,1v2h1v2v1h1v1l1,4v2l-1,3l-3,6l-1,3l-2,2l-1,3l-1,2v1l-1,2l-1,1
			l-2,5l-2,5v1h-1l1,1v1v1h1v1v1h1v1l1,1v1h1v1h1v1v1v1v1h-1h-1v1h-1v1v1v1v1l1,1h1h1h1v-1h1h1h1l1,1v1v1v1v1l-2,1h-1l-1,1l-1,1
			l-1,1v1v1l2,1h1h2h1h1h1h1h1v1h1v1h1l1,1l1,1v1l1,1h1v1l2,2v1l1,1l1,1h1h1h1h1h1h1h1l1-1h1l1-1l1-1v-1h1v-2v-1v-2l1-2v-1l1-1l1-1
			h1l1,1l1,1v1l1,1l1,1v1l1,1v1l2,2l1,1l1,1H-35093.8z"/>
	</g>
	<g id="m2800407">
		<path class="st0" d="M-35712.8-35539.2l-6,3l1,1v1l-2,3l1,3v1v1l6,10l2-1l3-7l-3-13l-1-1L-35712.8-35539.2z"/>
		<path class="st0" d="M-35690.8-35548.2l-9,1v1l4,7l7,3h1l4-2v-1v-1l-6-5L-35690.8-35548.2z"/>
		<path class="st0" d="M-35702.8-35561.2h-6l-3,2v1h-1l-1,2l1,5l1-1l1,1h1l1,1h2l2,1l1,1h1h1l9-7L-35702.8-35561.2z"/>
		<path class="st0" d="M-35674.8-35571.2l-1,1l3,14h1v-6L-35674.8-35571.2z"/>
		<path class="st0" d="M-35614.8-35405.2l2,1v1h1l28,21v-1l-1-2v-1l-1-1l-1-1v-1v-1l-1-1l-1,1h-1l-1-2v-1v-1h-1l-1,1l-1-1v-1l2-1v-3
			l2-1h1h1v-1h1v1l1,1h1l-1,1l1,1v-1h1v-1l-1-1v-1l1-1h2l1-2h1h1v1v1l3-1l2-1l1-1l1-1v-1l-1-1v-2v-1l2-1h1v-1v-2l-2-1v-1v-1l1-2v-1
			l-1-1l-1-2l1-1v-1v-2l-1-1v-2l-1-1l-1-2l1-3l1-1l1-2l2-1v-2h1h1h2l1,1h1h1v-2l1-2v-1l-5-5v-1h1v-2v-2h1h2h1l1-1v-3v-2v-1l-1-1
			l-1-2l-1-1v-2l1-2l1-1l1-1l2-2l6-4l1-1v-1v-2v-1v-2h1v-1l3,1l2-1h1l1-1v-1l-2,1v-2l-2-2l-1-2v-1l-1-1l-1-2l-2-2v-1v-2l-1-1l-4-2
			l-4-1l1-5v-2l-3-1l-1-2l-1-2l-1-1h-2l-4,1h-2l-2,1l-6-1h-4l-1-1v-3l-3-1l-2-1l-2-1l-1-1l-1-1l-1-1l-1-1l-1-1l-2-1v-1l-3-1h-1l-1-1
			l-1-1l-1-1l-2-1h-2h-1l-1-1l-2-1l-1-1h-1l-5,1h-3h-1l-2-1l-1-2l-3-6l-1-4v-2l-2-2l-2-1l-1,1l-5,4l-1,1l-10,8l-44,40v8l-1,28l-1,1
			v6l-1,1h-2l-1,1h-1l-1,1v4l-1,1v2l1,3v1l2,2l2,2l2,1l1,2l2,4l1,3l4-2h6l3,1h2l1,1l3,2l1-1v-1h1l2-1h1h2h1l1,1h3h1l2,1l5,1h1l4,1h1
			h3l2-1l2-1h1l1,1l1,1h1l1,1v1h2h2h1h2l-1,2l1,1v1h-1l1,3v2v1l10,8L-35614.8-35405.2z"/>
	</g>
	<g id="m2800506">
		<path class="st0" d="M-35352.8-34956.2h1l1,1v1v1h1l1-1l1,1v1l1,1h1l1,1l2,1l2,1h3l1,1h1v1l-1,1v1v1h3l1,1l1,1l1,2v1l1,1h1l1-1h1
			h1l3,1l2,1l1-1l1-2l1-1h1v-1l-1-2l-2-2l-1-2v-1l1-3v-3l2-2l1-1l1-1l2-1l4-3l1-1h1v-2v-1h-2v-1l27-26l-27-21l-11-7l-34-26v-3l-2,2
			v1h-2h-1h-1h-1l-4-1l-2-2v-1h-1l-2-1v-1h-2v-1l-1-1l-2-2v-1l1-1l-1-1v-1v-1l-1-1h-1h-1h-1h-1h-2h-2h-1l-1-2h-1l-2,1h-1l-1,1h-2h-4
			l-1,1h-2l-4-4h-1l-1-1h-1h-1h-2l-2-1v1l-2,1h-1h-1h-2h-2h-1h-1h-2l-2,1h-1l-1,1h-1l-1,1h-2h-2l-1,1l-1,1l-2,1h-2l-1,2v1l1,1l1,1v1
			l-1,2l-1,1l-1,1l-1,2v1l3,2v3l-1,1l2,2l7,14l3,7l15,32l2,2l13,27l1,3l17,12l9,5l2-3l1-2l4-1l3-1l5-2h3l3-1h2h1v-1l-3-1l-2-1l-2-2
			v-1v-1l2-2H-35352.8z"/>
	</g>
	<g id="m2800605">
		<path class="st0" d="M-34997.8-35024.2l1,1h1l1-1h1l1,2l1,1l3,3l2,1l1,2v1h1l5,2h1l3,1v1l1,1v1v2v2v1l1,1l1-1v-1h1l1,1v1h1l3-3
			l1-1v1l1,1v2h1l1-2v1v1l1,1h1h1h2l2,3l5,3l2,1l2,1l2,1h2l1,1l1,1v1h1h1l2,1h1l6,10l6,7v1l2,4l1,3l2,4l1,1l2,3l2,1h1h1l2-1v-1l1-1
			l1-2h2h1l2,2h2h2h1l3-1h2h1l1-1l-1-1l-2-2l-6-5l-2-2l-2-2l-3-4l-3-3h-1v-1l-2-1l-4-5l-3-3l-1-1l-2-3l-2-1l-2-3l-6-6l-1-2l-5-5
			l-2-2l-2-2l-2-1l-3-5l-2-2l-1-1l-5-4l-3-4l-5-6l-3-2l-2-3l-1-1l-2-2l-1-1l-1-2l-7-7l-4-5l-2-3l-2-2l-2-2l-3-5l-1-1l-2-2l-1-2l-3-3
			l-2-3l-2-3l-2-2l-3-4l-2-2l-3-4l-6-7l-2-3l-2-4l-2-3l-2-1v-1l-3-4l-4-4l-1-1l-1-2l-2-2l-4-5l-3-5l-2-2v-2l-1-1l-3-4l-1-1l-1-1
			l-1-2v-1l-1-2l-2-3l-1-1v-1l-1-2l-2-3l-1-1v-3l1-4v-6l-5,3l-2,2l-1,1l-1,1l-2,5l-2,7v1v3v1l-1,3v1v1v2v3v1v3v2v1l-1,1v1l-1,3v1v1
			l-1,2v1l-1,3v2v1v2v1v3v2v1v3v2l1,3l1,3l2,2v1l8-2h2l2,1l1,1l1,2l1,3l1,2h1h1h2h2l1,1l1,1v7l-1,2l1,1v1h1h1l4-1h1v1l1,1l1,2l1,2
			l1-1l2-1v-1h1l2,1h1l3,2l1,1v1l-2,1l-1,1v2l1,2l1,1v2h1v1h1v-1v-1v-1l1-1l1-1h1h1l5,2l2,1v1l1,1v1v2v1l-2,3l-1,1l-1,1h-1l-1,1l1,2
			l2,2v1h1h1v-1l-1-2l1-1h2l1,1v2h1v1l6-1h4v1l2,5v1l1,4v1l1,1v1l2,1h1h1l1,1v1l-1,1v2l-1,1v1L-34997.8-35024.2z"/>
	</g>
	<g id="m2800670">
		<path class="st0" d="M-35585.8-35225.2l2,1l16,13l2-57v-1l-9-39l-1-3l-14-45l1-1h1v1h1l1-1h2l1-1h1h2h1h1v-1l-1-1h-1l-2-2h-1l-1-1
			v-3h1l1-1l1-1v-1v-1l-2-1h-1h-1h-1l-2,1l-2,1h-1h-1l1-3v-2l1-1l2-2l1-1l1-2l1-1l1-1l-28-21h-1v-1l-2-1l-9-6l-10-8v1l-3,2h-1h-1
			l-1,1h-1l-1-1l-1,1h-1l-1-2h-1h-2h-2l-3,1h-3h-4l-2,1l-5-1l-3,1h-2h-2h-1l-2,1l-1,1h-1l-2,1l-1,3l-24,11h-1l-2-1l-1-3h-1l-1-1
			l-2-1l-2-1h-1v1v1l-1,3l-2,2v2l-2,2v1v2l-1,1l-3,1l-1,1l-1,2l-14-22l-1,1l1,1v1v1h2v1l-1,1v1l1,1h1h1v1l-1,2l-1,2l-1,2l-3,2l11,9
			l19,16l4,2h1l25,23v1v4l1,2v2l-3,8h-1l16,27l1-1h1h1l1-1l1-1l1-1l1-1h1v-1h1l1-1l1,1l1,1h1v1v1v1v1h1h1h1l1-1l-1,2l1,1h3l1,1l1,1
			v1h-1v1h-2l-1,2v1l-1,1v1l2,1v1l-4,2h-2l-1,1l57,27l-1,1l-1,1h-1l-1,1l-1,1v1v2h1l1,2v1v1l-1,4L-35585.8-35225.2z"/>
	</g>
	<g id="m2800704">
		<path class="st0" d="M-34535.8-34728.2l-87,13h1l1,1h1l26,15l28,18h1l1,2l12,16l2,1l2,1l2,1l12,4l13,4l-6,13l3,1l3,2h1v1l3,2l5,3
			l3,3l3,2l1,1l3,1l1,1h3h2h2l6-3l1-1l2-3l4-4h2h2h2l6-5l2-2l3-9l5-9l3-8l2-3l9-17l4-15l3-6l2-3l5-4v-5l-2-2l-1-1l-1-2l-1-2l-1-1v-1
			v-1l-1-3v-1l1-1v-1l-2,1l-2,1h-2h-4l-2-1h-3h-1h-3h-2l-3-1h-3h-1l-2-1h-2h-4l-3-2l-3-1l-3-1l-4-1h-1h-4l-1-1h-3l-1-1h-1l-2-1h-2
			l-5-1l-1-1h-1l-2-1l-3-1l-5-1l-5-2l-3-1l-1-1h-3h-5l1,1l1,1v1l2,1l3,1l2,1h2v2h1l1,1L-34535.8-34728.2z"/>
	</g>
	<g id="m2801009">
		<path class="st0" d="M-35624.8-34936.2l1,2l1,4v2v1l-3,6v1l-1,4l-1,1l-3,2l-1,2h-1v1l1,1l2,1h1h1v1l1,2l-1,1v2l1,1h1v1h1l1,1v2v1
			h1h1l3-1l2-1l3-2l1-2v-1l1-2h1l1-1h1h4h2l1-2l2,1h1h1l4-2l3-2l1-1h1l2-1l1,1h5l3,1v1h2h2h1l2,3l1,1v1v1l6,1h2h2h2h3l6-1l4-1l1,1h3
			h1l2,1l1-1v-3v-1l1-1l2-1h1l4-1l3-1l2-1h1l1-1l2-1h1l1-1l1-2l2-2l1-2l1-1v-1l1-1h1v-1h1l1,1h1h1h1h1l2-1l1-1l1-1l1-1v-2v-1v-1h1
			v-2h1h1v-1h1h1v-1v-2h1l1-1v-1v-1v-1v-1v-1h-1l1-1h1h1v-1v-1l1-1l1-1v-1l-1-1l1-1v-1l1-1v-1v-1v-1v-1v-1h-1v-1l2-1v-1l1-1l-1-1v-1
			h-1v-1v-1v-2v-1v-2l1-2v-1v-1l-1-1v-1v-1v-1h2v-1v-1h-1h-2h-1v-1v-1l3-3h1v-1l1-1l2-2l1,1v-1l2,1v-1l1-1v-2v-1l1-2l-1-1v-1h-1v-1
			l-1,1l-1,1v1l-1,1l-1-1v-1l-2-1v-1v-1v-2v-1l5-13l12-28h1l4,1h1h2l21,6l-2-2l-37-41l-15-16l-2,2l-1,1l1,3l2,3l-1,2l-1,1h-1l-2,1v1
			l-2,3l1,1l-1,2v1v1v1l-2,1l-1,2l-1,1l-1,1l-2,2h-2h-2l-1-2v-3l-1-1h-1l-1-1l-2,1h-1l-1,1l-1,1v1l1,3v1l1,5l1,1v1v3v1l-1,1h-1h-1
			l-2,2h-1h-2v1l-1,1l1,2v1l-2,1l-1,1h-2l-2-1h-1l-1-1l-1,1v1v1v1l-1-1h-1h-1v1h-1v1h-1v1l-1,1h-1l-1,1v-1h-1l-1,1h-1h-1v1l-1-1v-1
			l-2,1v1h-1l-4,2l-4,2h-2v1v1h2l-1,1h1h1l1,1v1h1v2v1l-2,1h-1v-1h-1l-1,2l1,1l1,1h1l1,2l1,1v1h1h1h1v2v1l1,1v1l-1,1v-1l-3-2h-2v1
			h-1v2l1,1l1,1v1l1,1v1h-1l-1-1h-1v1h-1l-1,1l-2,1h-3v1l1,1l1,1v1h1v1v1h-1l-1,1l-1-1h-1h-1l-1,1l1,1h-1l-1-1h-1v1l-1-1v-1l-1,1v1
			h-1l-1,1h-1h-1v1l-1-1h-1v1l-1,1v-1h-1l-1-1h-1v-1l-1-1v1h-1v-1h-1l-1,1h-1l-1,1h-1h-2h-1h-1v1l-1,1v1h-1v2l-1,1l-1,1l-2,3l-1,1v1
			l-1,2v2l1,1l1,2l1,2l1,1l1,1l1,2l-5,6l-23,29V-34936.2z"/>
	</g>
	<g id="m2801108">
		<path class="st0" d="M-35044.8-34319.2l17,21l6,1l31,10l3-6l2-4l3-4h-1v-1l4-6l9-9l3-4l3-4l1-8l5-10l-2-2v1l-1,1h-2l-1,2l-2,1
			l-3,2l-1,1l-1,1l-5-34v-3v-4l-3-66l-4-1l-2-1h-1l-9-4v-1h-1l-1-1l-2,6l-1,4l-8,21l-12,9l-11,18l-22-13l-40,10h-1l-94,16l5,1l57,19
			l25,9h2l2,2l2,2l1,1h1v1v2h1v1h1l1-1l1,1v1l1-2h1l1,2h1h1l1,1h1v-1h1l-2-4h1l1-1h1v-1v-1h1h1v1h1v-1l1-1v-1l-1-1v-1h1l2,1l1,1l1,1
			h1l1,1l1,1l1-1v1l3,5l1,4v1h-1l13,12L-35044.8-34319.2z"/>
	</g>
	<g id="m2801207">
		<path class="st0" d="M-36056.8-33777.2v1l2,9l-1,1l-3,1l-1,1v1l1,2v4v1l4,3l3,2l1,1v1v4l1,2l4,4l5,6v1l1,2l2-2l2-1l7-7l3-2h4l7-4
			l4-1h5l13-2l8-5l13-3l3-1l3-3h2l5-2l5-1h3l4,2l14,7h2l1,1l1-1l1-2l3-6l2-2l9-6l9-6l4-5l8-3l8-6l4-2l2-1l4-4l1-2l2-4l-1-1l1-2l2-3
			h1l8,4l4-1l2-1l2-5l5-4v-3l1-2l3-3l5-5l7-4l2-2l1-2l1-2l1-1v-3l2-5l1-2l2-3l3-1l3,1l19,10l13,3h4l6-1l4-2l8-1h8l5-1l6-3l13-8l6-3
			l3-1l3-2l10-9l5-9l-83-19l-32-7h-1l-40-9l-1-1l-8-1l-3-7l-1-3v-8l-4-16l-2-5l-2-6l-1-5l1-2l2-3v-4l-2-5l-6-9l-2-2l-3-2h-1v-2v-1
			l1-1v-3v-9l-1-2l-3-2l-1-1l-1-9l-4-18l-3-8l-2-6l1-3l3-1l1-1l-1-2l-2-2l-2-4v-7v-4l-1-3l-1-2l1-6v-3l-1-1v-3l3-12v-2l-1-3l-4-4
			l-7-4l-3-2l-2-2l-2-1h-3l-5,1h-2l-4-8l-6-4l-5-5l-5-3l-3-3l-4-4v-3l-2-1l1-6l-1-4l-3-3l-6-5l-1-2l-1-1v-1h-2l-8-5h-3l-3-1l-4,1
			l-3,1l-3,2l-4,4l-3,3l-2,4l-3,7l-7,16l-1,3l-3,4h-1l-1,5l-1,1l-7,2l-2,2v5v1l2,4l4,4l1,3l2,4l3,6l1,3v9l2,9l6,7l3,7l1,2v5l-3,4
			l-1,2l1,3l1,6v3l2,3l4,2l1,2l2,3l-1,4l-1,1l-5,1h-2l-2,1l-9,4l-2,2l-5,2l-3,1l-2,1l-2,3l-3,2l-2,3l-1,1l-4,1h-1l-3,2l-1,1l-2,3v3
			l-3,6h-2h-2l-1,2h-1h-2l-1,2l-1,2l-2,1l1,1v2v1h1v1l-1,2v2l-3,2v1l1,1v2l-4,4l-1,3l1,4v5v2l-2,4l-1,1v1l1,3v2l-3,3v3l-1,1v8l1,8
			l-2,6v1l2,3v2v2l2,3h1h5l2,1l3,2l2,1h2l1,1l-3,2l2,4v2l3,7l1,2l3,1l2,4l2,1l1,2l4,2l2,3l5,2h2h3l1-1l1-4l1-1l1-1h1l2,1l-1,3v3l1,1
			l2,2l-1,2v1l-1,2l-4,2h-6l-1,1l-3,2l-4,1l-1,1v3l-1,1l-5,1l-1,1h-1v3l-2,2l-4,2l-5,3l-5,4v1l-2,1l-3,7l-3,3l1,2l1,4v5v9l2,1v1
			l-1,1l-2,2l-1,2v1v1l1,2l3,1v1l4,2h1l1-1h1v-5l1-1h1h1l1,1v4l1,2l2,2l3,1l1,1L-36056.8-33777.2z"/>
	</g>
	<g id="m2801306">
		<path class="st0" d="M-35070.8-34544.2h1v1l1,1l1,1h1h1l1-2l1-1v-1l1-1l1,1l1-1h1l1-1l1-1l1,1h1h1l1-1h1l1,1h1h1v1l1,1v1h1h1h1v-1
			l1,1l1,1v1l2-1v-1h1l1-1h1l1,1h1l-1-1l1-1v-1v-1v-2h-1v-1l2-3v-2l-1-1l-1-1l1-1v-2v-5v-2l2-1h1v-1h1h1l-1-1v-1v-1l1-1h1l1,1h1v-1
			v-1l-1-1h-1v-1h1h1h1v-1h-1l1-1h1v-1l-1-1h1l1-1v1h1v1h1v-1v-1h1v-1h-1v-1l1-2h1v-1h1l1,2h1v-1h1h1l-1-1h1h1l-1-1h1h1v-1l-1-1v-1
			h-1h-1v-1l1-1h1v-1h-1h-1l-1,1v-1h-1v-2v-1v-1v-1h-1h-1h-1l1-1v-1h-1v1h-1v-1l1-1v-1h1l1-1v-1v-1l-1-1h1h1v-1v-1v-1h1h1v-1h-1v-1
			v-1h1v-1h-1h-1h-1v-1h1h1l1,1v-1v-1l-1-1h-1h-1v-1v-1l1-1h1v-1h1v-1v-1h-1l1-1v-1h1v1l1,1l1-1v-1l-1-1h1l1-1v-1v-1h1h1v-1v-1v-1h1
			l-1-1h1v-1v-1h1h1l1-1v-1h1v-1l1-1l1-1h1l-1-2v-1l1-1v-1v-1v-1h1v-1h1v-1v-1v-1v-2h1v-1h1v-1v-1l1-1v-1h1h1l1-1h1h1l1-1h1l1,1h1v1
			h1v-1l1,1h1h1v-1l1-1h1h1h1h1h1l1-1v-1h1l1-1v-1l1-1h1v-1l1-1v1h1l1,1l-10-35l-11-39l-22-6l2-9v-3v-2l-17-45l-18-52l-9,5l-16,10
			l-18,5l-20,5l3,4l2,2l2,2v1v2v4l1,3l-1,2v1v2l-1,1l-3,1l-3,1h-3l-1,5l1,2l1,1l1,2v2l2,1l1,1l2,3l-1,1v2l-2,2l-1,1v1v5v3v2l1,1l1,1
			l1,1v1v2l-1,1v1l2,1v1l1,1v1v1v3v3v1v2l2,4h-1h-1h-1v1l-10,2h-1l-26-4v1h2h1v1v2l-1,4l1,2v1v3l1,5v1l-1,1v1l-1,4l-1,2v1l-1,1l-1,1
			l-3,4l-1,1l-2,2l-1,5v4v1l-2,1l-1,1h-1l-1,2l-2,2l-1,1h-4l-1,1l-1,1l-1,1h-1h-1h-1l-3,2h-2v2l1,12v3v1l1,1l2,1h1l2,1l1,1h1v1l1,2
			l1,1h1h2l1,1h2l1,1l1,2h1l1,2l1,1v1h1l1,3h1v1l1,8l1,10v1l-3,1h-1h-2h-1v1v1v1h1l1,1h1v1h1l1,1l2,1l1,1v1l-1,1v-1l-1-1l-1,1v2v1h1
			l1-1h1l2,1l1,1l-1,1l-2-1l-2,1h-2h-1v-1v-1h-1l-1-1v1l-2,1l-1,1l1,1l-1,1v1h1h1l1,1h-1l-1,1l-1,1v1h1h1h1v1l-1,1v1l-1,1l-1-1h-1v1
			h-1l-1,1h-2v1l-3,1v-1l-1-1h-1l-1,1l-1,2v1h2h2v1l-1,2l1,1h3v1h-1v1l1,1l1,2v1v1l1,2v-1h1h1l1,1h1l-1,1h1h1h1l2-1v-1h1h1v-1l1-1h1
			v1l1,1v1h1l1-1v1v1h1l2,1l1-1h1v-1h1v1v2l1,1l1-1v1h1v1v1v1v1l1-1v1h-1l-1,1l1,1h1v1h1v1h1h1h1h1h1h2l1,2l1,1l1,1h1v2v1v1v2l1,1
			l1-1l2,1h1h1l1,1l1,1l1,1v1v1v1v1v1l2,1h1v1l1,1l1,1l1,1l3,1l1,1l2,2l2,1l1-2l2-1v-2h1l1-1h2v-1l1-1h1v-1l1-3l1-1l1,1l1,1l1,1l1,1
			l1,3l2,1l3,2l1,2l1,1l1,1l1,1h1v-1v-1h1H-35070.8z"/>
	</g>
	<g id="m2801405">
		<path class="st0" d="M-35778.8-34532.2l-24,121l3-1h3l2-1l1-2h1l1-1l1,2l1,1h3h3l6,3l9,1l3,1l1,1l1,1l2,1l2,1l2,1l2-1l1,1h1l3-2h2
			h1l4-1l1-1h2l3-1v-1l1-1l-1-1l1-1h-1v-1v-1v-1v-1l2-1l2-2l1-3l1-1h2l1,3l3,1h2l1-2l3-1l1-2h2l3,2l3,1l1-2l2-1l2-2l3-1l1-1l8-4l3-2
			l5-7l4-3l2-2l2-2l2-1l3-1l2-3h2l4-4h2h1l1-2h1l1,1h2l2,2h1h1l-1-2l4-3l-1-3v-1l2,1l1,1l1,2l1,1l1,1v2l1,2h2l1-1l-1-1v-1h1h4v-1
			l-1-1l-1-1l1-1v-1l3-2l1-1l-14-26l22-36l8-12l3-5v-5v-1l-1-5v-5l1-7l2-7l-1-6l2-2l-1-3l-47-40l-2-1l-2-3l-54-66l-43-28l-1-1l-2-1
			l-3-5h-1h-4l-6,2l-10,2l-11,4h-6l-5,1h-3l-2-2v-1l-2-1h-3l-2-1l-1,1l-1-1l-1,1l-1-1l-1,1h-1l-1,1l-1-1l-1,1h-1h-1l-2,1v-1h-1l-1-1
			h-1l-1,1l-3-2h-3v-1h-1h-1v-3h-1h-2l-1-1h-2l-1,2v2v1l3,2l1,1v1v1l-2,2l-2,1l-1,7l-2,5v3l-1,2v2l-2,4l-3,1l-2,3l-2,3l-4,7l-4,6
			l-4,8l-2,3l-3,3l-2,3l-1,2l-2,2l-2,4l-1,1l-2,2l-1,2l-1,1v4h1h2v1l1-1l1,1l1,8l2,1v2l-3,4l1,3l3,1h2h1l2,1l6,2l2,2v1h-1h-3l-2,1
			l2,4v3v2l3,3h1h2l1,2l-1,2l-5,2l1,1v1h1h1h2l1-1v2l1,1l1,1l1,1h3l3-2l1-1v1v1l2,2v2l3,1l3,1l1,1l1,2l1,1l5-1l4,3l4,1l3,2l2,3l7,4
			l2,5l1,2l1,1l4,1l3,1h6h1l6-1l1,1l10,4l7,1l4,2l6,2l1,2l-6,15L-35778.8-34532.2z"/>
	</g>
	<g id="m2801504">
		<path class="st0" d="M-34966.8-34885.2v-1l2-2h2v-1l1-1l1-1v-1l4-1h1h2h1l2-1l1,1h2h1h1v-1v-1l1-2l2-1l2-2h1v-1h1v-2v-3l1-3h-1v1
			l-1,1l-1-1v-2v-1l-1-1l-1-1l-4-3h-1h-1v-1l-1-1l1-2h-1l-1,1h-1v1v1v1v1h-1l-1-1l-2-1l-1,1v1l1,4l1,1v1l-1,1v1l1,2v2l1,1l-1,1h-25
			h-1h-3h-1h-1h-1h-1h-1h-1h-1h-1h-1h-1l-1,1h-2h-1h-1h-1h-1h-1h-1h-1h-1h-1h-1h-2h-1h-1h-1l-7,2h-2l-3,1h-1l-23,6l-1,1v1v1v1v1v1v2
			v3v1v1l1,3v3v1v1l-1,1v2l1,1v1l-1,1v1v1l1,1h-1v1l1,1v1l-1,1h1v1l19,9l11,1h12l-1-4v-3l2-4l1-1h1l1-1l1-1v-1v-1v-1l3-2v-1l2-1h1h1
			h4l2,1h1v-1l1,1h2l5-2l4-1h3l1-1l1-1l1-2v-3l2-2v-1v-1v-3v-1V-34885.2z"/>
	</g>
	<g id="m2801603">
		<path class="st0" d="M-34970.8-34491.2l-18,9l23,44l27-3h3l11-1l20-1l16-10l3-2l5-22h-1l-1-1l-1-2v-1l-1-1h-1l-2-3l1-2h-1v-2h-1
			l-2-1l-1-1v-1l-1-1v-1h-2l-1-1l-2-2l-1-1l-2-1l-2-2l-2-1l-2-3l-1-1v-1l-2-4l-1-1h-1h-4h-2h-1v-1h-1l-2-2l-1-1l-6-10l-3-3v-1l-6-8
			l-2-1l-11,5l-19,10l-3,2L-34970.8-34491.2z"/>
	</g>
	<g id="m2801702">
		<path class="st0" d="M-35843.8-35627.2h19h41l1,2h2l3,2l4-1l1,1v2h2v1v1v1h1v1l2-1l1,1l2-1l1,1l1,2l2,1l1-1l1-1l1-1v-4l1-2l3-2
			l2,1l1-1l1-1l1-2h2l4-2l2-2v-1v-1l1-1v-1l2-1h4l1-2l3-1l-1-2l1-1l1-1v-1v-1v-2l1-1h2h1l2-1v-2v-1l1-1h2v-1v-2v-2h2v-1l1-1h1h1l1-1
			v-2v-1h1l1-1v-1l1-1v-2l2-2v-1l-2-1l-2-3l1-1l1-3l-1-1l1-2l-2-1l-2-1v-1l1-1l1-3l2-2h2l1-2h3l4-3h2l1-2h2l4,5l1,1l1-3v-1l2-1h2
			l1-1l1-2h1l-1-1v-2l-1-2l1-1v-1v-1h1l1-1v-3v-1l-2,1h-1l-1-1l3-4l4,3h4l1-1v-1l-1-2l2-2l1-3l-1-3l3-1v-1v-2l1-2l-1,1l-2-1l-1,1h-1
			h-1l-1-1l-1-1l-1-1v-1l-1-1v-1h-1h-1h-1l-1,1v1l-1,1v1h-1v1h-1v1h-1v1h-1l-1-1v-1v-2h-1l1-2l-1-3v-1v-1l-1-1l-1-1h-1l-1-1v-2h-1
			l-1,1h-1h-1l-1,1l-1-1h-1v-1h-1v-1h1v-1v-1v-1l1,1l1-1v-1v-1v-2v-1v-1v-1v-1v-1l-1-1l-1-1h-1v-1v-1v-1l-1-1l-1-1l-1-1v-1h-1l-1-1
			l-1-1v-1l-1-1h-1l1-2h1v-1h-1v-1h1l1-1v-1l-1-1h-1v-1l-1-1l-1-1v1h-1v-1h-1l-1,1h-1l-1,2h-1v1h-1v1l-1,1h-1l-1,1h-1h-2l-1-1v-1v-1
			v-1h-1h-1v1h-1v1h-1l-1,1h-1v1h-1l-1-1h-1h-1h-1h-1v1h-1v1l1,1v1h1v1v1l1,1h1v1l1,1v2v1v2v1v1v2h-1v1h-1h-1h-1v1l-1,1l-1,1l-1,1
			v-1h-2v-1v-1h-1v-1h-1v-1v-1h1v-1l-1-1l-1-1l-1-1l-1-1l-1-1l-1-1h-1h-1h-1v1h-1l-1,1l-1,1h-1h-1h-1l-1-1h-1l-1,1h-1v-1l-1-2h-1h-1
			v1h-1v1l1,1l-1,2v1h-2v1l1,1v1v1v1v2v1l-1,1l-1,1h-1h-1h-1l-1,1h-1h-1l-1-1h-2h-1h-1v-1h-1h-2v-1h-1h-1l-1,1h-1v1l-1,1v1l-1,1v1
			h-1l-1,1v1v1l-1,1l-1,1h-1v1l-1,1l-1,1h-1h-2h-1h-1l1-1v-1v-1l-1-1h-1h-1l-2-2h-2h-1h-1l-1,1v1l-1,2v1v1h-1v1l-1-1l-1,1h-1h-1h-2
			h-2h-1l-2-1h-1h-1l-1,1h-1h-1l-1,1h-1v1v1h-1v1v1h-1h-1v-1h-1v-1l-1-1h-1h-1l-1,2h-1h-1l-1,1h-1h-1v1h-1l-1,1h-1h-2l-1,1l-1,1
			l-1,1v1h-1v1h-1v1v1l-1,1v1v1h-1v1v1v1l-1,1l-1,1v1l1,1v1h1h1l1-1v-1h1h1h1h1l1,1l2,1v1v1l-1,1h-1h-1v1h-1h-1v1l-1,1l-1,1h-1h-1
			h-1h-1h-1h-1h-1h-1h-1l-1,1l-1,1v1h-1v1l-1,1l-1,1l-1,1h-1v1h-1v1l22,61l3,10H-35843.8z"/>
	</g>
	<g id="m2801900">
		<path class="st0" d="M-35230.8-34518.2v-1h1h1l1,1h1v1h1l1-1l2,1l1-1v-1h1l1-1l1-2v-1l1-1v-1l2-1h1h2v1h1l1-1l2-1l-1-1l1-1l1-1h-1
			v-1h2v-1l-1-1v-1h1l-1-1h1l1-1v-1h-1l-1-1v-1h-1l-1-1h1h1h1h1l1-1v-2h1v-1h-2v-1l-1-1l1-1l1-1l-1-1h-1l-1,1h-1l-1-1l1-1l-2,1l-1-1
			h1v-1h1l1-1v-1l1-1h-1h-1h-1l1-1h1l1-1h1v1l1-1v-1l1-1l2,1v1l1,1h1l1-1h1h1l1-1v-1h2l1-1v-1h-1v-1h1h1h1h1h1l1-1v-1h-1h-1h-1v-1
			v-1h-1v1h-1l-1-2h2l1-1l1-2h-2v-1l2-2l1-1v-1h-1h-2v-1v-1h-1h-1l-1-1v-1h2v-1l-1-1h-1v-1l1-1l1,1l2,1v1h1l1-1v-1l-1-1h-1l1-1h1h1
			l2,2v2l2,1l1,1h1v-1v-1h-1v-1v-2h1h1h1l1,1h-1h-1v1h1h1v1l-1,1h-1l1,1h1h1l1-1h1v1l-1,1h1v1l2-1l1,1l1,1h1l1-1l-1-3v-1l2,1v-1v-1
			v-1h1h1h1v-1v-1h1l1-1v-1v-1l-1-1h1h1h1v-1h-1l-1-1v-1h2l1-1l-1-1v-1h1v-1h-3l-1-1l1-2v-1h-2h-2v-1l1-2l1-1h1l1,1v1l3-1v-1h2l1-1
			h1v-1h1l1,1l1-1v-1l1-1v-1h-1h-1h-1v-1l1-1l1-1h1l-1-1h-1h-1v-1l1-1l-1-1l1-1l2-1v-1l1,1h1v1v1h1h2l2-1l2,1l1-1l-1-1l-2-1h-1l-1,1
			h-1v-1v-2l1-1l1,1v1l1-1v-1l-1-1l-2-1l-1-1h-1v-1h-1l-1-1h-1h-1v1l-1,1v1l-1,1h-1v-1v-1l-2-1v-1h-2l-2-1h-1v2l-1,1l-1,1h-1h-1v-2
			v-1l-1-1l-1-1h-1l-1,1h-1l-1-1l1-1v-1h1l-1-1h-1v-1h-1v-1l-1,1l-1-1v1l-1-1h-1v-1v-1v-1h-1v1v1h-1v-1l-1,1l-1,1h-1v-1h-1l-1-1h-1
			l-1,1h1h1v1l-1,1l1,1h-1l-1,1l-1,1h-2l-1,1l-1,1l-1-1h-1h-1l-1,1l-1-1l-1-1l1-1l-2-1v-1h-1h-1h-2v-1v-1h-1l-1,2h-2l-1,1h-1l-2-1
			l-1-1l-3,1l-1,2l-2,1h-1v1l-2,1v1l-1,1v1l-2,1h-1h-2l-2,2h-1l-1,1h-1h-1h-1l-1,1h-1h-1h-1l-1,1h-2h-1v2v1h-1l-1,1v1v1l-1,1v2v1h-1
			l-1,2l-11,8v1h-1v1h-1v1l-2,1v1v1l-1,1v1l-1,1v1l-1,1l-1,1v1v1v1v1l-1,3l-1,1h-1h-2v1h-2v1h-1v1v1v1l-1,1v1v3l-1,2l1,1v1v1l1,4v2
			l-1,3v1l-1,1l-1,1v1l-1,1l-1,1l-1,2l-1,1v1v1l-1,2l-1,1v3v2v2l2,2l1,2h1l4,2v1l2,1h1l2,2l1,1l-1,1v1v1v1h-1l-2,1l-1,3v1l-1,1l-2,2
			l1,5v2l-1,1l-2,1l-1,1h-1h-1l-1,1v1l-1,1h-1l-1,1h-1h-3v1v1v1l-1,2v1v1h-1l1,3v1l-1,1h-3h-2l-1,1l-3,3l-3,2h-1h-1h-1h-2h-1l-3,1
			h-2l1,2l-4,2l-3,1h-1h-3h-1h-1l24,16l2,1l6,1l1-3v-1v-1v-1l4-3l1-2l1-1l1-1l1-1v-2l1-1l1-2l2-2l1-1h2l1-1l1-1v-1v-1l1-1l1-1l1-1
			v-1l1-1l-1-1h1v-1l1-1l-1-1h1l2-1v-2v-1v-1v-1l-1-1l2-1v-2l1-1l1,1h1v-1v-1h1v-1l1-1v-1l1-2v-1h1l-1-1v-1h1v-2l1-1l1-1h1l1-1l1-1
			l2,1h1h1v-2h1h1l1-1l1,1h1h1h1l1-1v1v2v1l1,1h1l2-2v-1v-1h2v1v1v1l2-1l1,1h1h1l1-2v-1l1-1v-1h2v-1l2,1V-34518.2z"/>
	</g>
	<g id="m2802007">
		<path class="st0" d="M-35197.8-34966.2h-1v1v1h-1v1l-1,2v2l1,4l2,2v1v1h-1l-3,1h-3h-3l-1,1v1l1,1h1l1,2l-1,1h1v1h1v1l-2,1v1l-1,1
			h-1h-1h-1v1l-1,1h-1v1v1h-1l-1,1l-1,1v1h-1v-1v-1h-1v-1h-1v1v1h-1v-1v-1v-1h-1v-1v-1h-1v-1v-1h-1v1h-1h-1v-1v-1h-1v-1h-1v-1h-1h-1
			h-1h-1v1h-1h-1h-1h-1v1l-1,1l-1,1h-1h-1l-1-1h-1l-3-1h-1v1l1,1h-1v1h1l1,1h1l1,1l1,1v-1h1h1v1l1-1h1l1,1h-1v1h-1v1h-1l-1,1v1h-1v1
			h1v1v1v1l-1,1l-1,2h-1l-1,1l-1,1l1,1h-1v1l1,1l1,1h1l1,1l-1,1v1l1,1v1v1h1h1l1,1h1v1h1v2h1v1l-1,1l-1,1h-1v1v1l1,2l1,4h-1v1v1h-1
			v2v1h1h2l3-1v1h1v2l1,1v1h1v1v1v1v1h-1h-2v1l1,1v1l1,1h1v1h1v1l1,1v1l-1,1v1v1h1h1l2,1l2,1h1l2,1v2l-1,2l-2,1v1v1v1l3,2l-1,3l-1,1
			h-2l-1,2l-1,3l-1,1l-3,4l-2,3l-1,1l-1,1h-1l-4-1l-3-1h-1h-1v1v1v1l2,8v2l-1,3l-1,3l-2,1l29-17l28,4l-1-2h-1l-2-1h-1l-3-1l-1-2v-1
			l2,1h2l2-1l1-1l1,1h1v1v2h1v1l1-1h2h3l-3-11l1-2l1-1v-1l1-3l1-2l1-1l4-3l3-2l1-1l1,1l3,1l1,2h1h2h1h1l1-1h2l1,1h1l3,1h2h1l1,1l1,1
			h1h2h2h2h3l1,1l1,1l1,2h1l1,1v1h1v-1l1-1l1-2l1-3l1-1l1-1v-1v-1l-1-1l-1-1v-2l1-1h-1l-24-30l-6-17l-1-1l-21,3v-1v-1v-1v-1l-1-1
			l-1-3v-1v-2l-1-1l1-1l-1-1l-1-2v-1v-1v-1v-1h-1h-1h-1h-1l-1-1v-1v-1v-1h-1v-1l-1-1v-1v-2h1v-1v-1l1-1l1-1v-1v-1l-1-1l1-1v-2l-2-1
			l-1-1h-1l-2-1h-1v-1l1-2l-1-1l1-1l-1-2v-1h-1l-1-1H-35197.8z"/>
	</g>
	<g id="m2802106">
		<path class="st0" d="M-35471.8-35335.2v2v2h-1h-3v2h1h1v2v1h2h2l3,4v2l-2,1l-2,2l-1,1l-1,1l-2,1l-1,2v1v1h1l1,2v1l-1,5l16,11
			l33,22h3l1-1v-1v-2v-1l1-2h1h1v-1l-1-1l1-1l1-1l1,1v-1l1-1l1-1v-1h-1v-1l2-1l1-2h2h1h3l3-3l1-1v-1v-1h1v-1l2-2l1-2l1-2v-1h2l1-2
			l1-1l1,1h1v-1l1-1h2l1-1l1-2l1-1l2-2v-1v-1v-1h1l1-1l1-2h1l1-1v-1v-1v-1l1-2l1-1l1-1v-1l1-1l1-1v-2v-2v-1v-1h-1l-1-1l-1-3v-3v-1
			v-1v-1l1-2l1-1l2-1l1-1l1-1l1-1l1-1v-1v-1v-1v-1v-1v-1l-1-2v-1l1-1v-1h-1l-1-1h-1l-1-1h-2l-1-2v-2v-1h1v-1h-1v-2v-3v-2h1v-3v-1
			l-1-1l-2-2v-3l-1-3h-2h-1h-1v-2l1-2l-1-1v-1v-1l1-1l-1-1l-1-1v-1v-1h-1v-1l1-1h1v-1h-1l-1-1v-1h-1l-1-2v-2l1-1l1-2h2l1-1v-3l1-1
			l3-2l1-1v-1l1-1h2l1-1h1l1-1h1l1-2h1v-1v-1h1v-1l-2-1h-1l1-1v-1h1h2l1-2v-2l-2-3v-1l-1-2v-1v-3l1-1l1-2l1-2l2-2l4-2l5-2l3-3h1v-1
			l1-1l16-12l8-7l4-3l2-1l2-2l2-2l3-2l15-10h-1v-1v-1h-1v-1h-1v-1v-1h-1v-1v-1h-1v-1h-1v-1v-1h-1v-1h-1v-1v-1h-1v-1h-1v-1v-1h-1v-1
			v-1h-1v-1h-1v-1v-1h-1v-1v-1h-1v-1v-1h-1v-1h-1v-1v-1h-1v-1v-1h-1v-1v-1h-1v-1v-1h-1v-1l-1-1v-1l-1-1v-1h-1v-1v-1h-1v-1v-1h-1v-1
			v-1h-1v-1v-1h-1v-1v-1h-1v-1v-1l-1-1v-1h-1v-1v-1v-1h-1v-1v-1h-1v-1v-1h-1v-1v-1h-1v-1v-1h-1v-1v-1l-1-1v-1v-1h-1v-1v-1h-1v-1v-1
			v-1h-1v-1v-1h-1v-1v-1v-1h-1v-1v-1h-1v-1v-1v-1h-1v-1v-1v-1h-1v-1v-1v-1h-1v-1v-1v-1h-1v-1v-1v-1h-1v-1v-1v-1h-1v-1v-1v-1h-1v-1
			v-1v-1v-1h-1v-1v-1v-1v-1h-1v-1v-1v-1v-1v-1h-1v-1v-1v-1v-1v-1v-1v-1v-1v-1v-1v-1v-1v-1h-1v-1l-1-1v-1v-1h-1v-1v-1v-1h-1v-1v-1h-1
			v-1h-1h-1h-1h-1h-1h-1l-2-5l-4-13l-8,2l-1,1h-2h-7h-5l-4-2l-3-1l-4-2l-8-6l-1-2l-12,9l-15,9l-1,2v1l-2,2l-6,8l-1,5v3v5l1,7l1,4
			l2,7l1,3l1,2l5,6l7,6l3,6v10v5l1,2v1l3,3l2,2l2,3l3,4v3l-6,12l-1,3l-2,2h-1l-10,5l-2,1l-1,2l-4,7l-1,3l-2,1h-1l-5,1h-1l-2-1h-1
			l-4-1l-2-2l-1-1v-2h-1h-1l-2,3l-1,1l-1-1l-3,1l-1,1l-1,1v1h-2h-1l-1,1l-1,3l-1,1l-1,1h-2h-2h-1h-1l-1-1v-1l-1-1l1-2l-1-1v-1h-1v-1
			h-1h-1l-1-2l-1-1h-1l-2-1h-1v-1l-1-4h-1h-1h-1v1l-1,1l-2,1h-1l-2-1l-1-1h-1l-2,2h-3h-1l-1,1l-1,1l-2,1h-1h-2h-1l-1,1h-1l-1,2h-1
			h-1h-2l-1-1l-1-1h-2h-1h-3h-1h-2h-1h-1l-2,1l-2,1l-3,1h-1l-2,1h-3h-1h-2h-2v2l-1,5l4,1l4,2l1,1v2v1l2,2l1,2l1,1v1l1,2l2,2v2l2-1v1
			l-1,1h-1l-2,1l-3-1v1h-1v2v1v2v1l-1,1l-6,4l-2,2l-1,1l-1,1l-1,2v2l1,1l1,2l1,1v1v2v3l-1,1h-1h-2h-1v2v2h-1v1l5,5v1l-1,2v2h-1h-1
			l-1-1h-2h-1h-1v2l-2,1l-1,2l-1,1l-1,3l1,2l1,1v2l1,1v2v1l-1,1l1,2l1,1v1l-1,2v1v1l2,1v2v1h-1l-2,1v1v2l1,1v1l-1,1l-1,1l-2,1l-3,1
			v-1v-1h-1h-1l-1,2h-2l-1,1v1l1,1v1h-1v1l-1-1l1-1h-1l-1-1v-1h-1v1h-1h-1l-2,1v3l-2,1v1l1,1l1-1h1v1v1l1,2h1l1-1l1,1v1v1l1,1l1,1v1
			l1,2v1l46,11h1l12,3l29,7l22,19v2v1v1l1,1l1,1l1,1H-35471.8z"/>
	</g>
	<g id="m2802205">
		<path class="st0" d="M-35372.8-34426.2h4l71-27l-6-1l-2-1l-24-16h1h1h3h1l3-1l4-2l-1-2h2l3-1h1h2h1h1h1l3-2l3-3l1-1h2h3l1-1v-1
			l-1-3h1v-1v-1l1-2v-1v-1v-1h3h1l1-1h1l1-1v-1l1-1h1h1l1-1l2-1l1-1v-2l-1-5l2-2l1-1v-1h-1h-3v-1l-1-1h-2l-4-2l-1-1l-1-1l-1-1h-1h-3
			l-2,1h-1h-1h-3h-1h-2l-4-2h-1h-1l1-3l3-6h-1h-1l-1,1v1h-1h-2l-1,1h-2h-1h-1h-1l-1-1h-1h-1l-1-1h-1l2-1l-1-2l-1-1l-1-1l-2-1l-1,1
			l-2-1h-1h-1l-1-1v-1l-1-1v-3l-1,1v-1l-2-1l-2-1h-1v-1l1-3l1-1l-1-3h-1l-1-1l1-3l-2-2l-1-1l-2-1h-1v-1v-1v-2l-2-1h-1v-1h-1l-1-2h-1
			h-1h-1h-1v-2l1-1l-1-1l1-1v-1v-1v-1l-1-1h-1h-2v-1h-1v-1v-1l-1-1v-1h-1v1l-1-1h-1v-1v-1v-1h1v-2h-1v-3v-1h-1v1v1h-1v-1h-1l-1-1v-1
			h-1l-1-1l1-1h-1h-1h-1l-1-1l-1,1l-1-1h-1h-1l-1,2h-1l-1-1l-2-1v-1h-1h-1l1-1v-1l1-1h1v1h1v-1l1-1l-1-1l-2-1h-1l-1,1h-1l-1,1l-1-1
			v1l-1,1v1l-1,1v1v1v1l1,1l1,2v2l-1,1l-1,1l-1,1h-1h-2h-1h-1v1l1,2l1,1v2l1,1h1l1-1v-1h1l1,1l1,1h1h1h1h1v1v1v2v1h-1h-1h-1l-2,2v1
			v1l1,1h-1l-1,1l-1,2l1,1l1,1v1l-2,1h-1v1h-1h-1l-2-1h-1h-1l-1,1v2l1,1l-2,3v2l1,1h1h1h1l1,1v1h-1l-2,1l-1,1h-1h-1v2l-1,1h-2h-1
			l-1,1l-1-1v-1h-1h-1l-1,2h-1l-1-1v-1h-1v1h-1v1l1,2l1,1l-1,1h-1v-1h-1l-1,1v2v1l-1,3v1h-1h-2l-1,1h-1l-1-1v-1l-2-1l-2-1l-1,1v1h-2
			h-1v1v2l2,2l1,1l2,2l1,1v1l-1,1v1l-1,1l1,1l-1,1v2l1,1h1v1l-1,2l-1,1l1,1v1v1h-1l-1-1h-1v2h-1l-1,1l-1-1l-1,1l-1,1h-1v1h2l1,1v1
			h-1l-1,2v1l1,1l1-1v2h1v1v1v1l1,1v3v1v2v1l-1,2l-1,1v1v1l1,1v1h-1h-1v1v2v1l-5,4l2,3l3,3v1l-1,2l1,3l3,5v1h-1v1l2,3l1,1v2l2,2l1,3
			l2,4l-1,4l24,3L-35372.8-34426.2z"/>
	</g>
	<g id="m2802304">
		<path class="st0" d="M-35663.8-34630.2l2,3l2,1l47,40l18-73l10-17v-1l37-44l4-10l6-12v-1l1-1l26-36v-1l-16-25l-9-17l-7-12l-3-5
			l-21-20l-29,27l-53,9l-18,3l-10,2h-1l-9,13l-25,38l-14,21l-36,23l1,1l43,28L-35663.8-34630.2z"/>
	</g>
	<g id="m2802403">
		<path class="st0" d="M-35231.8-34113.2h15l13-1l14-2l10-5l21-16l19-17l14-15l8-7l2-2l4-4l7-7l5-4h1l5-4l7-5l6-2h6l8,3l17,7l7,3
			l6,1h5l4-2l18-11l5-5l4-4l5-14v-1v-1l1-1v-1v-1l2-3v-5h-2h-1l-4-2h-3l-38-11l-2-1h-1l-20-17l-3-2l-31-4l-1-1l-41,11v-5v1l-1,1h-1
			l-5,2h-2h-1h-1l-1-1l-2-1l-1-1l-5-1l-2-1h-2h-1l-1,1l-2,2l-3-1l-1-1h-1l-2-1l-1,2v1v1h-1h-2l-3,1h-1l-1,1h-2h-1h-1h-1l-1-1h-1h-1
			h-1h-2l-1-1h-1l-2,2h-3h-1h-1h-1l-1,1h-1l-1,1h-2v1v1l-1,1v2h-1l-1,1l-2,2l-1,1v1v1v1h-1v1v1l-1,2h-1h-1v1h-1l-1,1h-1h-1v2h-3v1
			h-1l-1,1l-1,1h-1h-2h-1v-1h1v-1h1h1l1-1v-1v-1h1l2,1h1v-1v-1l-2-2v-1l1-1l1-1v-1l1-1l1-1v-1l-1-3v-2v-1l-1-1h-2l-1-1v-1v-1v-1l1-1
			l2-1h1h1h1v-1v-1l-2-1h-1l-1-1v-1l1-2v-1h-1h-1l-2-1l-2-1l-1-1l-1-1v-2l-1-1h1v-1h1l1,1h1h1l1-1l1-1l2,2v1l1,1l1,1l1-1v-2l1-1l1-3
			l-1-1l-1-1h-1h-2l-2,1l-1-1l-2,1l-1-1h-2l-1-2v-2v-1l-1-1h-2h-1l-1,1l-2,1h-2l-2,1h-1l-1,1h-1v-1v-1l1-1l-1-1l-1-1l1-1l1-1l1-3
			l1-2l2-1l1-1l1-1v-1v-1v-1v-1h-1h-1l-2,2l-1,1h-1h-1l-2-1v1l-1,2l-1,1h-1l-1-1h-1l1-3l2-3l1-2h1v-1v-1v-1l-1-1l-1-1l-1,1h-1h-1h-1
			l-1,1v1l-1,1h-1h-1l-1-1l-1-1h-1v1h-1h-1v-2l-1-1v-1v-1l-2-1v-1l1-1l1-1l-1-1v-1l-1-1v-1l1-1v-2h1l1,2h2v1l1,1l2,1h1l1-1h1h1v-1
			h-1l-1-1l-2-1l-1-1l-1-1v-1v-1v-1h1l1,2h1l1-1v-1l1-1l1-1v-1h-1l-1-1v-1l1-1l1-3l2-1l-1-1h-1l-1-1h-2v-1l1-1h1l1-1l-1-1l1-1l-1-1
			l1-1v-1v-1h-3l-1-1v-1l1-3l2-2l1-1v-4l-1-3h-1h-1h-1l-1,1l1,1l-3,1l-1,1l-1-2l-2-2l1-1l-1-1h-1l-2-1h-2v1h-3v1l1,1v1l-2,1v1l-1,1
			l-2,2l-1,2l-2,1h-1l-2-2v-3v-1l-1-1h-1l-5,2l-1-2l-1-1l-4,1v-1l2-2h-1l-1-1v-4v-1h-5v-2l-1-1l-3,2h-1l-2-1v-2h-1v-1l-3-1l-2-1h-1
			l-4,2v3l1,1v3l2,1v1l-4,4l-4-2h-3l-3,2h-3h-2h-1h-5l-4,1l-3,1l-31-2h-1l14,27l-22,18l-29,23l-28,23l-9,3l5,6l5,4h2l3-1h3h1v1l-1,4
			v1l2,1h1l1-1l1-2h1h1l1,2l2,2v1l-1,2l1,1h2l4,1l2,2h1l-1,4l-1,3v1l6,2l2,2v1l-2,1l-2,1l1,2l2,1l3-3h1l1,2v4l-1,1l-3,1l-2,1l-1,2v2
			h5l2,2l3,1l3-1l2-1l1-1l-1-3v-3h2l3,2h2l2-1l1-1h1l2,2l2,4l1,2v4l-1,1l-3-1l-3-1h-1v2l2,2l2,6l1,1l1-1l1-4l1-1h2l4,1l1,1v1l-2,3v1
			l1,2l2,1l1,3h1l1-1l3-4l2-2v-2v-1l-1-2l-1-1v-2l1-2l1-1h1l1-1l3-4l-1-1l-1-1l-3-2v-1v-1h2l6,3l7,4l2,1l1,6l2,2h1l-1-1l1-1l2,1h1
			l1,1h1l5-3l1-3l3-8l3-2l2,1l6,5l1,3l-1,2l1,4v1l-3,6v1l4,4h3h2l2-1l4-1l5-3h2h1v3l-5,16l-2,7v2l2,3l3,1l4-1l1-2h2l1,3l2,3h1l23,1
			v1l3,44l1,3l2,3l1,8l27,1H-35231.8L-35231.8-34113.2z"/>
	</g>
	<g id="m2802502">
		<path class="st0" d="M-34980.8-34901.2h1h25l-1-1l-2-2l-3-1l-4-2l-4-2l-1-1l-3-2l-1-1l-2-3l-2-3l-2-3l-2-1l-4-4l-2-2l-4,3l-7,6
			l-8-2l-1,2l-1,1h-2l-1,2v1h-2h-2h-2h-1h-1l-2-1l-4-1h-3h-3l-2,1l-1,2l-2,1l-6,3v2l-4,4h-2h-1l-1,3l-2,2l1,2h2l2,2l-1,2l1,3l23-6h1
			l3-1h2l7-2h1h1h1h2h1h1h1h1h1h1h1h1h1h1h2l1-1h1h1h1h1h1h1h1h1h1h1H-34980.8z"/>
	</g>
	<g id="m2802601">
		<path class="st0" d="M-35347.8-34370.2l4-1h5h1h2h3l3-2h3l4,2l4-4v-1l-2-1v-3l-1-1v-3l4-2h1l2,1l3,1v1h1v2l2,1h1l3-2l1,1v2h5v1v4
			l1,1h1l-2,2v1l4-1l1,1l1,2l5-2h1l1,1v1v3l2,2h1l2-1l1-2l2-2l1-1v-1l2-1v-1l-1-1v-1h3v-1h2l2,1h1l1,1l-1,1l2,2l1,2l1-1l3-1l-1-1
			l1-1h1h1h1l1,3v4l-1,1l-2,2l-1,3v1l1,1h3v1v1l-1,1l1,1l-1,1l1,1h2h1v-1v-1h1l1-1v-1l1-1l1-2h1l1,2h1v-2l1-1h1l1-1h-1v-1h1h1l1-1h1
			v-1h-1h-1l-1-2l1-1h1l1-1v-1h-1h-1v-1l1-1h1l1,1v-1v-1l-1-2l1-1h1l1,1h1l1-1l2-1v-2l1-1h1h1v1v1l2,1v1h1v1l1-1l1-1v-1l-1-1l1-1h1
			v-1l1-1h1h1v-1v-1v-1l1-1l-1-1l1-1h1h1v-1l1-2l1-1l2,1h1h2l1,2v1l1,1l1-1l2-1h2l5,1l2,2l2,1l2,1l2,1l2,1h1l-3-19l1-1v-1v-1v-1h3h1
			l1-1l1-1l1-1h1l2-1l5-1h1l1-1l1-2v-1l-1-1v-1v-1l-2-1l-2-1l-1-1l-1-2l-1-3v-2v-1l-1-1l-1-1l-2-3l-1-1v-1l-1-3v-1v-1l-1-1v-1v-3v-2
			v-1l1-2v-1l-1-1v-1l2-5l7-4v-1l1-1v-1v-2v-1v-2l-1-2l-1-2h1v-1l3-3v-1v-1v-1l-1-1l1-2v-1v-1v-2h-1l1-1l1-1v-2l-1-1v-1v-1v-1v-1
			l-1-1l-1-1l-1-2h-1l-1,1v-1l-1-1v-1h-1h-1l-1-1l1-1l-1-1h-1h-1h-1l1-1l1-1v-1v-1l-1-1v-1h-1l1-1l1-1h1l-1-2h1v-1v-1v-1v-1l1-1
			l-2-1v1h-1v-1l-1-1v1h-1l-1,1v-1l-1-1h-1v-1h-1l1-1v-1v-1h1v-1h1v-1h-1l1-1h1v-1l1,1l1-2v-1h1l-1-2h1v-1v-1h-1h-1l2-2v-1h-1l-1-1
			h-1v-1l1-1h-1l-1-1l-1,1v1h-1v-1v-1l-1-1h1l-1-1v1h-1v-1h-1l-1,1l-1-1v-1l-1-1h-1l-1-1h-1v-1h-1v1v-2l1-1l1,1h1l-1-1v-2h-1v-1h-1
			l1-1v-1h-1l-1-1v-1l-2-1l-1,1v1l-1,1v-1h-1l-1,1h-1l-1,1h1h1h1l-1,1v1l-1,1h-1v1h-1l1,1l2-1l-1,1l1,1h1l1-1h1l1,1l-1,1l-1,1l1,1v1
			h2v1h-1v2l-1,1h-1h-1h-1h-1l1,1h1v1l1,1h1v1l-1,1h-1l1,1h-1v1l1,1v1h-2v1h1l-1,1l-1,1l1,1l-2,1l-1,1h-1v-1h-2h-1l-2,1v1l-1,1v1
			l-1,2l-1,1h-1v1l-1,1l-2-1l-1,1h-1v-1h-1l-1-1h-1h-1v1v1l-2-1v1h-2v1l-1,1v1l-1,2h-1h-1l-1-1l-2,1v-1v-1v-1h-2v1v1l-2,2h-1l-1-1
			v-1v-2v-1l-1,1h-1h-1h-1l-1-1l-1,1h-1h-1v2h-1h-1l-2-1l-1,1l-1,1h-1l-1,1l-1,1v2h-1v1l1,1h-1v1l-1,2v1l-1,1v1h-1v1v1h-1l-1-1l-1,1
			v2l-2,1l1,1v1v1v1v2l-2,1h-1l1,1l-1,1v1h-1l1,1l-1,1v1l-1,1l-1,1l-1,1v1v1l-1,1l-1,1h-2l-1,1l-2,2l-1,2l-1,1v2l-1,1l-1,1l-1,1
			l-1,2l-4,3v1v1v1l-1,3l-71,27l18,57L-35347.8-34370.2z"/>
	</g>
	<g id="m2802700">
		<path class="st0" d="M-34621.8-34715.2l-2,1l-9,1l-4,1v1v3v1h-1l1,1h2l1,1v1h1v1v1v1l1,1h1v1h1v1h1v1v1l-2,1h-1h-1l-2,1l-1-1v1
			l-1,1v1h1v2h1l1,3l-1,1l1,1h1v1l-1,1v1v1l1,2v2v1h1l1,1v1h-1v1v3v3l-1,1v1l1,1l2,1h1v2v1h1l1-1l1-3v-1l2-1h1v1l1,1l-1,2l-1,2l1,1
			h1h1l1,4l1-1v-1h1v1l-1,1v2v1l1-1v-1h1v2l1-1v-1h1v1h3l-1,1v1v1h1h1h1l1,1h1h2l1,1h1l1,1l3,12l2-2l2-1h4l10-7l2,3l3,4l1,1h4l7-1
			l11,2h4h2l1-1l-7-2l-2-1l-1-2l-2-2v-4h12l9,3l11,6l6-13l-13-4l-12-4l-2-1l-2-1l-2-1l-12-16l-1-2h-1l-28-18l-26-15h-1
			L-34621.8-34715.2z"/>
	</g>
	<g id="m2802809">
		<path class="st0" d="M-35541.8-35740.2l-2-1v-1l-1-2l-2-1v-1l-1-1l-2-2l-2-1l-1-1l-1-1v-2l-1-3v-1l1-2v-1v-1l-1-1l-2-1h-1l-1,1h-2
			l-1,1h-3l-3-1l-3-1l-2-1h-1l-2,1l-1,1h-2h-1h-1l-2-1h-2h-2l-2,1h-1h-1h-1v-1v-1l-1-1h-1h-2v1h-1l-1,1v1v1v1l-1,1v1v1l-1,1h-1l-1,1
			l-2,1h-2h-1l-1-1l-3-2l-1-1v-1l1-1h1l1-1v-1l-1-1h-1l-1-1h-1v-1h-1v-1h-1h-1l-1,1v1l-1,1l-1,1v1l-1,1l-1,1l-1,1l-1,1v1v1h1l1,2v1
			h1v1l1,1h1l1,1l1,1v1l-1,1h-1v1h-1h-1h-1l-1,1h-1l-1,1l-1,1h-1l-1-1l-1-1h-1l-1-2l-1-1v-1l-1-1l-1-1l-1-1l-1-1l-2-1l-2-1h-1h-1
			l-1,1v1h-1h-1l-1,1l-1,1l-1-1l-1-1l-1-1h-1h-1h-1v1h-1h-1h-1l-1,1h-1v1h-1v1h-1l-1,1l-1,1h-1v1h-1v1l-2,1v1h-1v1l-1,1l-1,2l-1,1v1
			h-1v1l1,1v1v1l-1,2v2v1l-3,1l1,3l-1,3l-2,2l1,2v1l-1,1h-4l-4-3l-3,4l1,1h1l2-1v1v3l-1,1h-1v1v1l-1,1l1,2v2l1,1h-1l-1,2l-1,1h-2
			l-2,1l12,22l6,12l24,44l9,16l22-14h1h1l5-4l3-1l5-4l6-3l6,1l5-2h6h7l1-1l1-1l1-3l6-2h3l1,2l3,1l3,3l3,1l4,1h1l2-2l1-4l1-3l-1-1
			l1-1v-1v-1l1-2l1-1l-1-1l2-1v-3l4-1v-3v-1l2-2h1l1-1h3h4l3-5l3-1l1-1l1,1h1l1,1h1v-2l1,1l1-1l1,1h2l-1,1l-1,1v1h1h1l3-1l2-3l1-1
			l3,8l4,2l6-1l2,1l2,1l1,1v7l2,4l1,2l2,1l7,2h2l2-1l4-3l2-2l2-1h1l5,2l2,1l2,1l3,3l6-8l2-2v-1l1-2l15-9l12-9l-5-7l-6-7l-7-8l-2-2
			l-2-2l-6-6l-2-1l-9-7l-24-19l-8-3l-6-3l-14-4h-12l-5,1l-5-1h-5h-9h-2h-1h-1v-1H-35541.8z"/>
	</g>
	<g id="m2802908">
		<path class="st0" d="M-35535.8-34824.2l9,17l16,25l1-4l11-25l20,10l19,10l11-3l17-3l2-3l1-1l-1-1l1-2l3-6l1-1v-1v-1l-1-1v-1l-1-2
			v-2v-1l1-1v-1l1-2l1-3l-1-1v-1v-2v-1v-1v-2v-3l-1-1v-1l-1-1l1-2h1v-1l1-1l2-1h1h1h1l1,1l1,1v2v1h-1v1v1h1l2-1h1l1-2l1-2v-1v-1h1h1
			l1,1v-1h1l1-1v-1v-1l2-1v-1v-1v-1v-2l1-2v-1h1v-1v-1l1,1l1-1l1,1h1l2-1l1-1v-1h-1v-1v-1v-1h-2v-1l1-1h1v-1l1-2h1h1l2-2l2-1l1,1h2
			h1h1l1-1h1l1,1l3,1v1h2l2,1h1h2h2h2h2l7-33l2-5l-6-13l-5-13l-5-4l-9-5l-17-12l-1-3l-13-27l-2-2l-15-32l-3-7l-7-14l-21-6h-2h-1
			l-4-1h-1l-12,28l-5,13v1v2v1v1l2,1v1l1,1l1-1v-1l1-1l1-1v1h1v1l1,1l-1,2v1v2l-1,1v1l-2-1v1l-1-1l-2,2l-1,1v1h-1l-3,3v1v1h1h2h1v1
			v1h-2v1v1v1l1,1v1v1l-1,2v2v1v2v1v1h1v1l1,1l-1,1v1l-2,1v1h1v1v1v1v1v1l-1,1v1l-1,1l1,1v1l-1,1l-1,1v1v1h-1h-1l-1,1h1v1v1v1v1v1
			l-1,1h-1v2v1h-1h-1v1h-1h-1v2h-1v1v1v2l-1,1l-1,1l-1,1l-2,1h-1h-1h-1h-1l-1-1h-1v1h-1l-1,1v1l-1,1l-1,2l-2,2l-1,2l-1,1h-1l-2,1
			l-1,1h-1l-2,1l-3,1l-4,1h-1l-2,1l-1,1v1v3l-1,1v2l-1,3h-1l-1,1h-2v1h1v1v1l-2,4v2l-1,1h-1h-2l-1,1h-1v1l-1,1l-1,1h-2l-1,1l-1,1v3
			h-1l-1,1v1l1,1l1,1l1,2v1l-2,1h-1l-1,1l-8,8l21,20l3,5L-35535.8-34824.2z"/>
	</g>
	<g id="m2803005">
		<path class="st0" d="M-35864.8-35367.2l22,12l13,6h3l2,1l2,1l1-1h5h1h3l2-1l1-2h3v-1l2-1v-3l2-2h2l2,1l1-3l5-3h3l1-1h1l5-5l3-1h2
			l1,1v2v1h2l2-1l1-2l2-1l1-2v-2l2-4l2-2h1l1,2h1l2,1l2-1h1h1l1-1l1-1v-2h2l2-1l1-1v-1h2v-2l2-2l1-2l3-2l1-2l1-2l1-2v-1h-1h-1l-1-1
			v-1l1-1v-1h-2v-1v-1l-1-1l1-1l1-2l1-1l2-1h1h1l1-1l1-1v-1v-1l-1-1v-1l1-2l1-1h1l1,2l1-1h1h1h1v-2v-1l1-1l3-2v-1v-2v-1h1v-1v-2v-2
			l1-1v-1h1l1-2l3-4v-2v-1v-2v-1l1-2h2h1l3-3l1-1v-4l1-1h1l1-1h2l1-1v-6l1-1l1-28v-8l-29-18v-9v-13v-36l-10-9l-28-27l-1-1l-2,1v-1
			h-1v-1v-1v-1h-2v-2l-1-1l-4,1l-3-2h-2l-1-2l-1,4v1l-1,1v2h-1v3h-1l-1-1v-2l1-1v-1l-3,1l-2-1l-1,1l-1-1h-1v-1h-1v1l-1-1l-1,1l-1,2
			h-1v1l1,1v4l1,2v2l-3,1l-1,3h-1l-2-1v1l-1,3h-1v5h1l1,1l-2,3l-1,1l-1-2l-1,1l-1-2h-2l-1,1v1h-2l-1,3h-1v1l-3,1v1l-1,2v2v3l-2,2
			l1,3l-4-1v1h-1v4l1,2l-1,3v3l-4,2v2l-1,1h-2l-1,2h-2l-2,3l-3,1l-1-1l-2,2v2l-4,2h-2l1,3v2l-1,2l-1,2v2h-1v1h-1l-1,1v-1l-2,1h-1h-1
			l-1-1h-1v-1h-3l-3,2l-2,1v1l-1,1l-1,1l-2,2l-1,1h-1l-2,3l-2,2v1l-2,1h-1l-2,3v1l-1,1v1h-1v1l-1-1l-1,1v-1h-1v-1h-1l-1-1v1v1h-1
			l-1,1h-1v-1h-1l-2-2v1h-2v1l-1,1h-1v1v1h-1v1l-1,1l1,1h-1v1l-1,1h1v1l-1,1h-1v2h-1l1,1h-1v1l-1,1l-1-1l-1,1v-1l-2-2h-1v-1h-1l-1-1
			l-2,1l-1,1h-1l-1,2h-2v1v1v1l-2,1l-1-1v1h-1l-1,1h-1l-1,1h-1v1h-1v1h-1h-1h-1v1h-2v1l-3,5v1l-1,1l-2,3l-2,1h-1l-6-2l-3,1l-2,1
			l-4,6l-3,6l3,3l2,8l5,4l2,2l7,8l3,5l18,9l3,2l5-7l2,1l2-1l4-2l2-2v-1l1,1v4v1l1,1l-1,1l-1-1v1l1,1l1,2l1,1v1l-3,1l-2,2l1,1v5l-1,2
			l-3,3l-2,5v4l14,13h1l15,13L-35864.8-35367.2z"/>
	</g>
	<g id="m2803104">
		<path class="st0" d="M-35225.8-34272.2h1l2,1v1v1h-1h-1h-1l-2,1l-1,1v1v1v1l1,1h2l1,1v1v2l1,3v1l-1,1l-1,1v1l-1,1l-1,1v1l2,2v1v1
			h-1l-2-1h-1v1v1l-1,1h-1h-1v1h-1v1h1h2h1l1-1l1-1h1v-1h3v-2h1h1l1-1h1v-1h1h1l1-2v-1v-1h1v-1v-1v-1l1-1l2-2l1-1h1v-2l1-1v-1v-1h2
			l1-1h1l1-1h1h1h1h3l2-2h1l1,1h2h1h1h1l1,1h1h1h1h2l1-1h1l3-1h2h1v-1v-1l1-2l2,1h1l1,1l3,1l2-2l1-1h1h2l2,1l5,1l1,1l2,1l1,1h1h1h2
			l5-2h1l1-1v-1v5l41-11l-2-10v-1v-1l-1-4l-3-14l3-44l-25-9l-57-19l-5-1h-1l-2-1l-2-1l-2-1l-2-1l-2-2l-5-1h-2l-2,1l-1,1l-1-1v-1
			l-1-2h-2h-1l-2-1l-1,1l-1,2v1h-1h-1l-1,1l1,1l-1,1v1v1v1h-1h-1l-1,1v1h-1l-1,1l1,1v1l-1,1l-1,1v-1h-1v-1l-2-1v-1v-1h-1h-1l-1,1v2
			l-2,1l-1,1h-1l-1-1h-1l-1,1l1,2v1v1l-1-1h-1l-1,1v1h1h1v1l-1,1h-1l-1,1l1,2h1h1v1h-1l-1,1h-1h-1v1h1l-1,1h-1l-1,1v2h-1l-1-2h-1
			l-1,2l-1,1v1l-1,1h-1v1v1h-1h-2l-1,1h-1l-1,1v1h2l1,1h1l1,1l-2,1l-1,3l-1,1v1l1,1h1v1l-1,1l-1,1v1l-1,1h-1l-1-2h-1v1v1v1l1,1l1,1
			l2,1l1,1h1v1h-1h-1l-1,1h-1l-2-1l-1-1v-1h-2l-1-2h-1v2l-1,1v1l1,1v1l1,1l-1,1l-1,1v1l2,1v1v1l1,1v2h1h1v-1h1l1,1l1,1h1h1l1-1v-1
			l1-1h1h1h1l1-1l1,1l1,1v1v1v1h-1l-1,2l-2,3l-1,3h1l1,1h1l1-1l1-2v-1l2,1h1h1l1-1l2-2h1h1v1v1v1v1l-1,1l-1,1l-2,1l-1,2l-1,3l-1,1
			l-1,1l1,1l1,1l-1,1v1v1h1l1-1h1l2-1h2l2-1l1-1h1h2l1,1v1v2l1,2h2l1,1l2-1l1,1l2-1h2h1l1,1l1,1l-1,3l-1,1v2l-1,1l-1-1l-1-1v-1l-2-2
			l-1,1l-1,1h-1h-1l-1-1h-1v1h-1l1,1v2l1,1l1,1l2,1l2,1h1h1v1l-1,2v1L-35225.8-34272.2z"/>
	</g>
	<g id="m2803203">
		<path class="st0" d="M-35507.8-35169.2v1l-3,5l-4,5l-1,3l-1,2l-1,1l-23,36l4-3l1-1h1h2h2l4,2l2,1l1,1h1l2,2l3,1h1l2,1l1,2h1l3,1h1
			h1l1-1l2,1h1l2,1l1,1l1,1l1,1l2,3v1v1l2,1l1,1l15,16l37,41l1-1v-3l-3-2v-1l1-2l1-1l1-1l1-2v-1l-1-1l-1-1v-1l1-2h2l2-1l1-1l1-1h2h2
			l1-1h1l1-1h1l2-1h2h1h1h2h2h1h1l2-1v-1l2,1h2h1h1l1,1h1l4,4h2l1-1h4h2l1-1h1l2-1h1l1,2h1h2h2h1h1h1h1l1,1v1v1l1,1l-1,1v1l2,2l1,1
			v1h2v1l2,1h1v1l2,2l4,1h1h1h1h2v-1l2-2l-11-87l-2-15l-1-2l-1-1l-1-3l-1-1h-1v-1l-1,1v-1h1v-1h1v-1v-1h1v-1v-1h1v-1h-1v-1h1v-1v-1
			v-1v-1v-1h1v-1v-1v-1v-1v-1v-1v-1l1-1h1v1l1-1h1l1-1v-1v-1v-1h1h1h1l1-1v-1h-1h-1h-1v-1v-1h-1l-1-1v-1v-1v-1l2,1v-1h1h1l1-1l1-1
			l1-1l1-1h1l5-1h1h1h1h1l1-1h2v-1l1-1l1-1h1h1v-1v-1l-1-1l-1-1v-1v-1v-1l1-1h1v-1l1-2v-1l1-1v-1v-1v-2v-1v-1v-1l-1-1v-1v-1h1h1l1-1
			l1-1v-1l1-1l1-1h1h1v-1h-1h-1h-1v-1h1h1v-1v-1h1h1v-1h1v-1v-1h1h1h1h1l1-1v-1v-1h1h1v-1v-1v-1h1v1h1h1l1-3h1l2-1l1,1h1l3,1l1-1h1
			l4-1l1-1l5-4h1h6h2h2l6-2l3-1h3l2-1l6-1l3-1l1-2l1-4l-1-5l1-4v-9v-1l3-7l3-4l1-1l13-8l3-2l3-1l6-1l5-2l2-1l3-1l9-5l7-6h1v-1l2-11
			v-4l-1-9v-10l-1-3l1-4v-3l2-2l1-3l4-4l3-2l2-1l1-1l-8-9l-2-3l-1-1l-1-1l-3-5l-1-1l-6-6l-3-4l-1-1l-1-1l-1-1l-1-1l-3-3l-2-2h-1
			l-1-2l-2-1l-2-2l-1-1l-3-2v-1h-1v-1h-1v-1l-1-1v-1h-1v-1h-1v-1h-1v-1h-1v-1h-1v-1h-1v-1l-2-1l-1-2l-1-1l-3-3l-2-3l-2-2l-4-5l-2-2
			l-3-4l-4-5l-1-1l-1-1l-3-4l-5-6v-1l-1-1l-6-6v-1l-2-1l-2-4v-1h-1v-1h-1v-1h-1v-1v-1h-1v-1h-1v-1h-1v-1v-1h-1v-1h-1v-1l-1-1v-1h-1
			v-1l-15,10l-3,2l-2,2l-2,2l-2,1l-4,3l-8,7l-16,12l-1,1v1h-1l-3,3l-5,2l-4,2l-2,2l-1,2l-1,2l-1,1v3v1l1,2v1l2,3v2l-1,2h-2h-1v1
			l-1,1h1l2,1v1h-1v1v1h-1l-1,2h-1l-1,1h-1l-1,1h-2l-1,1v1l-1,1l-3,2l-1,1v3l-1,1h-2l-1,2l-1,1v2l1,2h1v1l1,1h1v1h-1l-1,1v1h1v1v1
			l1,1l1,1l-1,1v1v1l1,1l-1,2v2h1h1h2l1,3v3l2,2l1,1v1v3h-1v2v3v2h1v1h-1v1v2l1,2h2l1,1h1l1,1h1v1l-1,1v1l1,2v1v1v1v1v1v1l-1,1l-1,1
			l-1,1l-1,1l-2,1l-1,1l-1,2v1v1v1v3l1,3l1,1h1v1v1v2v2l-1,1l-1,1v1l-1,1l-1,1l-1,2v1v1v1l-1,1h-1l-1,2l-1,1h-1v1v1v1l-2,2l-1,1
			l-1,2l-1,1h-2l-1,1v1h-1l-1-1l-1,1l-1,2h-2v1l-1,2l-1,2l-2,2v1h-1v1v1l-1,1l-3,3h-3h-1h-2l-1,2l-2,1v1h1v1l-1,1l-1,1v1l-1-1l-1,1
			l-1,1l1,1v1h-1h-1l-1,2v1v2v1l-1,1h-3v2h-1h-1l-1,2h-1v1v1h-1v1v1l-3,2l-2,2l-1,1v2l-1,1l-2,1l-1,2l-1,1v3l-1,1v2l1,1l-1,2v1v1
			l-2,2l-1,1l-1,3l-1,2v2l-1,1l-1,2v1l-3,3l-1,1l-1,1h-2l-1,1h-1l-3,1h-1v1v1l-1,1l-1,1v3l1,3v1l-1,1v1h-2h-2l-2,1l-1,1v1l-1,1l-2,1
			l-2,2l-16,4L-35507.8-35169.2z"/>
	</g>
	<g id="m2803302">
		<path class="st0" d="M-34940.8-34628.2l1,10h1h1l1,1l3,1l2,1l6,1l2,2h4v-1v-2l1-1l1-2l2-1l1-1l1-1v-1l1-2v-1l-1-2v-1l4-2l2-3h1
			l1-1l4-1h1l1,1h1l1,1h1h1l1-1v-1h1v-2v-3v-2l-1-1l-3-2h-2h-1l-4-1l-2-2l-1-1l-2-2l-2-2v-1v-2v-3v-2l3-5v-2l1-1l1-1l-1-1l-1-3v-1
			l1-2l3-5l-1-4v-1v-1h1v-1v-1l1-1v-1l-1-1v-2v-1v-1l-1-1v-1h1v-1l1-1v-1l1-1l1-1h1h1l1-1v-1v-1v-1v-1v-1l1-1h1h1l-1-1l3-2l2,1l2,1
			l2-1h2l2-1l2-1l1-2l2-1l1-3h1l1-1l1-1v-1l1-1l1-2v-1v-1v-2l-1-1v-1l1-1v-1v-1l1-1h1v-1l1-1l1-2l1-1l-1-2v-2l1-1l1-1l2-2h2l1-1h1
			v-1l1-1l1-1l1-1l1-1h2l2-1l1-1l1-1v-1l1-1h1l1-1l1-1l1-1l1-1v-1h-1v-1v-4l1-3v-1v-2l-1-4l1-1v-1h-1v-1l1-1h-1l-1-1h-1v-2h1l1-1v-1
			h4h1l1-1h1h1h2h2l2,1l2,1l2-1h1h1h1h2h1l1-1l-56-43l-13-10l-40-31l-1-1l-5-3l-4,2l-3-2l-4-3l-1-1l-13-9v1l-1,1l-1,1v1h-2l-2,2v1v1
			v1v3v1v1l-2,2v3l-1,2l-1,1l-1,1h-3l-4,1l-5,2h-2l-1-1v1h-1l-2-1h-4h-1h-1l-2,1v1l-3,2v1v1v1l-1,1l-1,1h-1l-1,1l-2,4v3l1,4h-12
			l-11-1l-19-9l18,52l17,45v2v3l-2,9l22,6l11,39l10,35v1v2v1v1v1h1l1,1l-1,1v1v1v1h1v1v1l-1,1l-1,1v1l1,3v1v1l1,2l2,1h1v1h1l1-1l1-1
			h1h1l1,1h1v1l2,1l2,1l1,1v1v1h1l1-1h2h3l2,2h2l2,2L-34940.8-34628.2z"/>
	</g>
	<g id="m2803401">
		<path class="st0" d="M-34892.8-34597.2l2,2h1l1,1h1v3l1,1l1,1v1l2,2l2,2v1l1,1v3l-1,1l1,1l2,2v1l1,1l1,1v1v1l-2,2v1l1,2v1v2l2,5
			l1,1l2,1l1,1l3,1l1,1l4,4l1,3l1,2v1v2l1,2v3l1,1l2,2v6h3l-1,3v1l-1,1l-3,2l2,4v1l1,1h1h1l2,1l1,1v-1h1h1h1l1-1v2l1-1l1,2l2,1l1,1
			l1,1l1,3l1,1l1,1v1v1v1l3,1v-2l-1-2l1-1l3,1l2-2v-3l4-6v-1l4-3h1l1-1h1l2-2l1-1l1-1v-1l1-1h4l2-1l2-1l1-1l1-1v-1l1-1h2l2-1v-1v-1
			l1-1h1l2,2l1,1h2l2,1h1l1,1h1h2l1-1l2-2l1-1h1l4-3l1-2v-1v-1l1-1l2-1h-1v-1l1-3v-2l-2-2v-2v-1v-1v-1v-1v-1l2-3v-3l1-4v-1l2-2l-1-2
			l1-1v-1l31-47l-11-46v-3l-18-67l-2-9l-17-64l-1,2h-1h-1v-1h-1h-1l-1,2l-4,3l-5,8l-5,2l-2,1l-7,1l-2,1h-3l-1,1h-1h-2h-1h-1h-1l-2,1
			l-2-1l-2-1h-2h-2h-1h-1l-1,1h-1h-4v1l-1,1h-1v2h1l1,1h1l-1,1v1h1v1l-1,1l1,4v2v1l-1,3v4v1h1v1l-1,1l-1,1l-1,1l-1,1h-1l-1,1v1l-1,1
			l-1,1l-2,1h-2l-1,1l-1,1l-1,1l-1,1v1h-1l-1,1h-2l-2,2l-1,1l-1,1v2l1,2l-1,1l-1,2l-1,1v1h-1l-1,1v1v1l-1,1v1l1,1v2v1v1l-1,2l-1,1v1
			l-1,1l-1,1h-1l-1,3l-2,1l-1,2l-2,1l-2,1h-2l-2,1l-2-1l-2-1l-3,2l1,1h-1h-1l-1,1v1v1v1v1v1l-1,1h-1h-1l-1,1l-1,1v1l-1,1v1h-1v1l1,1
			v1v1v2l1,1v1l-1,1v1v1h-1v1v1l1,4l-3,5l-1,2v1l1,3l1,1l-1,1l-1,1v2l-3,5v2v3v2v1l2,2l2,2l1,1l2,2l4,1h1h2l3,2l1,1v2v3v2h-1v1l-1,1
			h-1h-1l-1-1h-1l-1-1h-1l-4,1l-1,1h-1l-2,3l-4,2v1l1,2v1l-1,2v1l-1,1l-1,1l-2,1l-1,2l-1,1v2v1h-4l-2-2l-6-1l-2-1l-3-1l-1-1h-1h-1v1
			v1v2v1l2,2h1l1,1l1,1l1,2l2,3v1v2l35,3h1h2L-34892.8-34597.2z"/>
	</g>
	<g id="m2803500">
		<path class="st0" d="M-35754.8-34985.2l-3,3l11,12l1,2l-2,3v2l2,6v1l1,1v2h1h3v1h2h4l1,1l3,2l2,2l3,2h1l2,2l2-1l2,2h3v1v2l1,2
			l-1,1l-1,1l1,2v4l1-1h1h1l3,5l1,1l1,1h1h1l1-1l2-3l1-2v-1l1-2h1h1l3,3l2,1l3,3v1l3,3l1,2l1,3l1,4v1h1l2-1l2-1l1-2l-1-1l-1-2l-2-4
			l-1-1v-1l3-1l3-2l2-1h2l1,1l3,3h1l3,1l2,1h3h1l1,1h1h1l1-1v-2v-2v-1h1l1-1v-1l-3-1l-3-3l-1-2l-2-2l-1-1l-1-1l-2-1l-1-1v-4l-1-2v-1
			l2-1v-1v-2l1-4v-1l-2-2l-1-2l-1-2l1-1l4,2h1l2-1h4h1v-1l1-1v-3l1-2h1h1l1-1h1v-1l1-2l1-3l1-1h1l1-2v-1l1-2l1-2l1-3l1-3v-1l4-1v-1
			h1v-1l-1-1v-1l-2-4l-1-2l-1-1h-1l-1-1h-1h-1l-3-4l-2-2v-1v-1v-1v-2l1-2l2-3v-1l1-3l-1-1v-1l1-1l1-1l4-1h2h1h1l1-1l1-2l1-2v-1v-1h1
			v-1l1-3l1-1l4-1l1-1l3-3l2-2l4-3h1l3-1l1-1h1l2-1h2l3,1l2,2l1,1l1,1l1-1h1l2-2l2-1h1l3-1h1h1h1h1l1,2l2,1h1v1h1v1l1-1h1l2-3l2-1
			l2-2h1h1l1,1l1,1h1h1l2-1l2-1l1-1h1h1l2-1h2l1-1h1v1h1v-1v-1l2,1h1h2l1,1v1l1,2v1l-1,2h1h1v1h-1v1v1h1h1h1v-1h1v1h1h2v1h1h1h1h2v1
			l1,1h1l2,1h2l1-1l2-1v-1l-1-2l1-1v-1h2h1l2-2h1h1l1-1v-1v-3v-1l-1-1l-1-5v-1l-1-3v-1l1-1l1-1h1l2-1l1,1h1l1,1v3l1,2h2h2l2-2l1-1
			l1-1l1-2l2-1v-1v-1v-1l1-2l-1-1l2-3v-1l2-1h1l1-1l1-2l-2-3l-1-3l1-1l2-2l-1-1l-2-1v-1v-1l-2-3l-1-1l-1-1l-1-1l-2-1h-1l-2-1l-1,1
			h-1h-1l-3-1h-1l-1-2l-2-1h-1l-3-1l-2-2h-1l-1-1l-2-1l-4-2h-2h-2h-1l-1,1l-4,3l23-36l1-1l1-2l1-3l4-5l3-5v-1l15-24v1l-50,13l-12,3
			l-2,1v-1v-1l-8-26l-2-6l-1-2l-16-13l-2-1l-20-15l1-4v-1v-1l-1-2h-1v-2v-1l1-1l1-1h1l1-1l1-1l-57-27h-2h-1h-1h-1l-1,2l-1,1h-1l-1-1
			h-4l-1,2v1v2l-1,1v1h-1l-1,1l-2,4l-2,2v1l-1,3l-2-1h-1h-1h-2l-1,1l-3,2l-2,1l-1,2l1,1v1l-2,1v1h-1l-1,2l-2,1l-1-1v-1h-1l-1,1v2h-1
			v1h-2v1h-1h-1l-1,1v3l-1,3h-1v1l-1,1h-1l-2,1l-2-1v-1l-1-1h-1l-1,1l-1-1h-1l-1-1v-1h-1l-1,1l-1-1l-2,1l-1-1l-1,1l-1-1l-16,23l-4,3
			l-6,4h-1v1h-1l-1,1h-1l-1,1h-1h-1l-18,4l1-4v-1l-1-1l-2-1l1-1l2-3h1h1l1-1v-1v-1l-1-5v-1v-1h-1h-2h-1h-3h-1l-2,1l-1,1l-1,1l-1,1v1
			l1,1v1h-1h-1l-2-1l-2-1l-1-1v-1v-2v-1h-1l-2-1v1l-3,1h-1v-1l2-1l-1-1h-1l-2-2l1-1v-1h-1h-1h-1h-1v-2h-1l-1,1v1l-1,2v1h1v1v1v1
			l-1,1l-1,2l-1,1l-1,1l-1-1l-1-1l-1-3h-1h-1l-2,3h-1l-1-1l1-2h-1l-3-3l-2-5h-1h-1l-1,2l-2,1l-1,3h-2l-2,1h-2h-2h-2l-1,1h-1v1l1,2
			l-2,2l-1,2h-1l-2-3h-1h-1h-1l-1,1l-1,2l-2-1v1l-1,3l1,2v1v2v1l-2,1l-1,1v2v1l-2,1h-1h-4h-3h-1l-1,1v1v1v1l3,3h1l1,1v1l-1,3l-1,1
			h-2l-1,1h-1v1l-1,2v2h-1l1,3v2v1v1v1v1v1v2v2l1,1v1l3,1v1v1h-1h-1l-1,1v1l-2,1l-1,2v1v2v1l-1,1h-1l-1,2l-1,2l-2,3h-1l-2-1h-1h-1
			l-4,5h-1l-1,1l-3-1l-2,1l-2,4l-1,1h-2h-3h-1l-1,1v1h-1h-1v1v1v1h1v2l1,2l1,4v3l1,2l2,2l2,3l1,2v1v2l-3,3v1v2l-2,4v1l-1,3l-2,4v1
			l1,2l-1,3v1v1l-1,2v2l-1,1l15-4l12,4l21,6l14-11l1,4l3,5v3l2,6l1,5l2,6l1,3l4,2l9,4l24,13h1l14,12l3,2h1l1,1h1h1l3,1h1h1l2,2l1,1
			l2,1l2,1v1h1v1l2,1v1v1v1l1,1l1,1h1l1,2l1,2h1v2v2l1,2l2,4l2,4l1,1V-34985.2z"/>
	</g>
	<g id="m2803609">
		<path class="st0" d="M-35309.8-35014.2l27,21h1l1,1l1,1h1h1v1h1v1v1h1l1,1l1,1v2l1,1l1,1l1,1h1l3,3l1,1l1,1h1l2,1h1h3l1-1l1-1v-1
			l1-1v-1v-1h1h1l47,13l8,2l1-3v-1l2-3l3-4l1-1l1-3v-1l2-2l1-1h1h2l1,2h1l1,1v1l2,1h1h2l1-1h1l2-1v-1l4-1l-3-6v-1v-1v-1l1-1l2-2v-1
			l1-1l3-3h1h4l3,2l3,2l4,3l3,2l6,2l4-1l6-2l3-2l2-3v-3l-1-5v-5l2-2l6-5l6-5l6-9l4-6h-2l-3-1l-6,1h-4l-4,1l-4-1h-2h-1l-5,1l-2,1
			l-3,3l-3-1l-2-1l-1-1l-1-3l-1-3l-3-2l-6-3l-7-2l-2,1l-1-1h-3l-2-1h-5l-1,1l-2,1l-1,1h-1h-1l-2-2l-2-1h-2h-1h-1v1v1l-1,1h-1v-1h-1
			l-1,1h-1h-1v-1v-1v-1v-1h-1h-1l-1-1v1h-1v-1v-1h-1h-1h-1l-1-1h-1v-1v-1h-1l-1,1h-1l-1-1v-1h-1h-1h-1v-1v-1h-1l-1-1v-1v-1h-1v-1v-1
			v-1v-1v-1v-1h-1h-1v-1v-1h-1v1l-1-1h-1l-1,1h-1h-1l-1,1h-1l-1-1v1h-1h-1h-1h-1v1h-1l-1,1l-1-1h-1h-1v1h-1v1h-1h-1h-1v1v1h-1h-1v-1
			h-1v1h-1h-1h-1v1h-1h-1h-1h-1v-1h-1h-1h-1h-1h-1v1l-1,1v-1l-1,1l-1,1h-1v1h-1l-1,1l-1,1l-3,2h-1l-2,1l-1,1l-1,1h-1v1h-1l-1-1l-3,1
			h-1h-1l-3,2h-2l-43,1h-1l-30,1l34,26L-35309.8-35014.2z"/>
	</g>
	<g id="m2803708">
		<path class="st0" d="M-35698.8-34919.2l1,1l1,2h-2l-1,2v2v2h-1v1h-1v1l1,1v1v1v1v1v1l1,1l-1,1v1v1v1v1h-1v1v1h-1v1h-1v1h-1v1h-1v1
			v1h1l1,1v1v1h1v1v1v1v1v1v1h1v1h1v1l1,1v1l1,1v1l1,1v1h-1v1v1l1,2l4,3l2,1v2l-1,1v1h1v2l1,2l2,3v1l1,1v1v1v1v1v1v1l-1,1v1v1l1,2v1
			v1v1v1l1,1v1l1,2l1,2v1v1h1v1v1v1h1v1h1v1h1l1,1l2,2h1l10-2l18-3l53-9l29-27l8-8l1-1h1l2-1v-1l-1-2l-1-1l-1-1v-1l1-1h1v-3l1-1l1-1
			h2l1-1l1-1v-1h1l1-1h2h1l1-1v-2l2-4v-1v-1h-1v-1h2l1-1h1l1-3v-2l-2-1h-1h-3l-1-1l-4,1l-6,1h-3h-2h-2h-2l-6-1v-1v-1l-1-1l-2-3h-1
			h-2h-2v-1l-3-1h-5l-1-1l-2,1h-1l-1,1l-3,2l-4,2h-1h-1l-2-1l-1,2h-2h-4h-1l-1,1h-1l-1,2v1l-1,2l-3,2l-2,1l-3,1h-1h-1v-1v-2l-1-1h-1
			v-1h-1l-1-1v-2l1-1l-1-2v-1h-1h-1l-2-1l-1-1v-1h-1l-2,1h-2h-1h-1l-1,1h-1l-1-1l-1-1l-1-1v-3l1-3v-2l1-1v-3h-1l-1,2h-1h-1l-1-1v-1
			v-1v-1v-1l-1-1h-1h-1l-3,1h-1h-1v1v2v2l-1,1h-1h-1l-1-1h-1h-3l-2-1l-3-1h-1l-3-3l-1-1h-2l-2,1l-3,2l-3,1v1l1,1l2,4l1,2l1,1l-1,2
			l-2,1l-2,1h-1v-1l-1-4l-1-3l-1-2l-3-3v-1l-3-3l-2-1l-3-3h-1v1v1v1v1v1l-1,1h-1v1l-1,1v1l1,1v1v1h1h1L-35698.8-34919.2z"/>
	</g>
	<g id="m2803807">
		<path class="st0" d="M-34952.8-34608.2l-11,12l-1,1l-23,23l-18,20h-1l-39,35l53,12l19,12l3,2l-2-31l3-2l19-10l11-5l2-26l-5-8
			l-7-12v-1l-1-3v-1v-2v-2v-1L-34952.8-34608.2z"/>
	</g>
	<g id="m2803906">
		<path class="st0" d="M-35296.8-34864.2l1-1h1h1h2l2-1l2,1l3-1h1l1-3v-1v-1v-1l-2-1l1-1l-1-1v-2h1h2l1-1h2h1v-1v-1h1h1l1-1v-1l1-1
			h1v-1v-1l1-1v-1l1-1h1v-1h1l1-1l1-1l-1-1l1-2l-1-2v-1v-1h1v-1h1l1-1l-1-1v-1h-1v-1v-1v-1l1-1l-1-1h-1v-1v-1l-1-1l-1-1v-1h1h1l1-1
			l1-1v-1l1-1l2-1v-1h1v-1l1-1v-1h-1h-1v-1l-1-1h-1l-1,1v1l-1,1v2h-1h-1l-1-2h-1h-1l-1,1h-1v-1v-1v-1l-1-1l-1-1l-2,1l-1-1v1l-1,1h-3
			h-1h-1h-1v-1v-1h-1l-2,1l1,1v1l-1,1h-1v1h-1l-1-1h-2l-1,1v1l-1,1l-1-1l-1-1h-1l-1-1l-2-2l-1-1v-1v-1v-1l1-1l-1-1l-1-1l-1-1h-1h-3
			h-1l-2,3l-1,1h-1l-1-2l-1-2l-3-2l-1-1v-1l1-1v-1l-1-1l-1,1l-2-1l-3-1h-1h-1l-1,1h-1l-1-1v-1l-1-2l-1-1l-1-1h-3v-1v-1l1-1v-1h-1
			l-1-1h-3l-2-1l-2-1l-1-1h-1l-1-1v-1l-1-1l-1,1h-1v-1v-1l-1-1h-1h-1l-2,2v1v1l2,2l2,1l3,1v1h-1h-2l-3,1h-3l-5,2l-3,1l-4,1l-1,2
			l-2,3l5,4l5,13l6,13l-2,5l-7,33l-2,10l-1,4l4,11l2,6l11,8l11,9l8,5l1-10h1h1h1l1-1h1v-2l1-1h1h1v-1l1-1h1l1-1h1l1-2v-3l1-1v-1l1-1
			v-1v-1l-1-1v-1l1-1v-2h1v-1h1h1l1-1h1h1v1l2-1h1l2-1l1-2h1l1-1v-2l1-2h2l1-1l1-3v-1v-1H-35296.8L-35296.8-34864.2z"/>
	</g>
	<g id="m2804003">
		<path class="st0" d="M-35187.8-34948.2l-1,1l-1,1v1v1h-1v2v1l1,1v1h1v1v1v1l1,1h1h1h1h1v1v1v1v1l1,2l1,1l-1,1l1,1v2v1l1,3l1,1v1v1
			v1v1l21-3l1,1l6,17l24,30v-1l2-1v-1h-1v-1l-1-1v-1l-1-1l1-1v-1v-1v-1h-1h-1v-1v-2h1v-1v-2l-1-1v-1l1-1l-1-1l2-1v-1l-1-1l1-1l1-1
			v-1l1-1l1-1l1-2h1v-1h1h1l1,1l1,1h1l2-1h1l2,1h1l1-1l4-2v-1v-2l1-1h1h1h1l2,1l2-1h1h1h1v-1l1-3l1-1v-3l1-1l1-1h2v-1v-1l-1-2l-2-2
			l-3-4l-3-2l-8-35l-1-1v-1v-3v-4l-1-2v-1l2-3v-1l1-2v-2h-1l-1-1l-1-1v-2l-1-1v-2l-2-2v-1h-1l-3,1h-2l-4-4l-3-1l-2,3l-3,2l-6,2l-4,1
			l-6-2l-3-2l-4-3l-3-2l-3-2h-4h-1l-3,3l-1,1v1l-2,2l-1,1v1v1v1l3,6l-4,1v1l-2,1h-1l-1,1h-2h-1l-2-1v-1l-1-1h-1l-1-2h-2h-1l-1,1
			l-2,2v1l-1,3l-1,1l-3,4l-2,3v1l-1,3h1l1,1h1v1l1,2l-1,1l1,1l-1,2v1h1l2,1h1l1,1l2,1v2l-1,1l1,1v1V-34948.2z"/>
	</g>
	<g id="m2804102">
		<path class="st0" d="M-35410.8-34778.2l4,2l6,1l-1,2l-1,4l1,2v1l1,2h1v1h2h1h1v1h1l1,1v1l2,1l1,1h1l1-1h1v1v1h2v1l2,1h1v1l1-1l1-1
			h1h2l1,1l1-1h1v1h1l1-2h1l1-2l1,1h1l1,1l2-1h1l1,1v-1l1,1h1h1l2-1v1v1l1,1l1-1v-1l1-1v-1h1v-1v-1v-1h1l1,1h2v-1h2v-1l1-1l-1-2v-2
			h-1v-1v-1l-1-2v-2l1-1h1l1-1v-1h-1h-1v-1l1-1v-1v-1l1-1l4-1v-1h1v-3v-1l1-1h1v-1h4l1-1l2-1l3,1l9,2l2-1l1-1h5h2l2-2h1l2-1l4,1h1
			l1,1h1l1-2l3-5l2-1l1-1l1-1l1-1l1-2v-1h1v-2h1l1-1l1-1h-1h-1h-1l-2-1v1v1l-2,1l-2,1l-1,1h-2l-4,3l-1,1l-4-1l-3,1l-2-1l-4,1h-2
			l-1-1h-1l-1-1l-1-1l-1-3l-1-1h-1l-5-1l-3-6l-8-5l-11-9l-11-8l-2-6l-4-11l1-4l2-10h-2h-2h-2h-2h-1l-2-1h-2v-1l-3-1l-1-1h-1l-1,1h-1
			h-1h-2l-1-1l-2,1l-2,2h-1h-1l-1,2v1h-1l-1,1v1h2v1v1v1h1v1l-1,1l-2,1h-1l-1-1l-1,1l-1-1v1v1h-1v1l-1,2v2v1v1v1l-2,1v1v1l-1,1h-1v1
			l-1-1h-1h-1v1v1l-1,2l-1,2h-1l-2,1h-1v-1v-1h1v-1v-2l-1-1l-1-1h-1h-1h-1l-2,1l-1,1v1h-1l-1,2l1,1v1l1,1v3v2v1v1v2v1l1,1l-1,3l-1,2
			v1l-1,1v1v2l1,2v1l1,1v1v1l-1,1l-3,6l-1,2l1,1l-1,1l-2,3v1l1,2l3,2l10,6l2,1l1,3l4,3V-34778.2z"/>
	</g>
	<g id="m2804201">
		<path class="st0" d="M-35721.8-34243.2l1-1h2l2,3l2-1l1,1l2-1l2,1l2,3h2l1,1l-1,3l2,3h1l2,1l1,1h1l2-1l4,1l1-1l2-2l1-1l3-1l3-3
			l1-1l2,1l2,2l3,1l3-2l1-3l4,1l1,1l1-1l1-1l1-2h2h8h1h1v3h1l2,1l2,2h2h3h3l4-4v1v1l1,1v4l1,1h3h1l1,2l3,2l-1,1l2,4l1,5l1,2l1,1l1,1
			h7l6-1h5h1l19-5l20-5l36-9l18-5l42-33l8-6l-1-2l-1-1v-1l1-2h1l6-1h1v-2v-4l-1-2l-1-1l-1,1l-3,3l-4,2l-1,1l-1,3l-2,3h-3v-2l1-2l1-4
			v-2v-2h-1l-5,5h-2l-4-1l-2-2l-1-1v-1l2-5v-2l1-1l1-1l3,2l2-1h1l-1-2l-2-2h-1l-3-2l1-3l3-2v-5l-1-2h-2l-4,1h-3l-1-3h-2l-2,2l-2,1
			l-3-1h-2h-2l-1,1l1,6l-2,1l-2,3h-2l-3-2h-5l-1-2h-1l-3,3l-1,3l-1,1h-1l-1-2l-1-1l-2-3l-2-4l-2-3h-2v1v2l-3,2l-2-1l-3-2l-1-1l-3-1
			l-1-2h-1l-3,1l-3,2h-2l-1-1v-3l-1-3l-1-1h-2l-1,1l-1,2l-1,1v1h-1l-1-2v-4v-1h-2l-2-1h-2l-2-2l-2,2l-3,1l-1,1h-2v-1l-2-2l1-1l-1-1
			v-1l-2,1l-1,3h-2l-4-1l-3-1v-1v-2v-2l-1-1l-2-2h-1l-2,2v1v3v1l-3,2l1,3l-1,2l-2,1l-1-2l-2,1l-1,3l-1,1l-6,2l-2,2l-4,2l-1,1v2h-2v1
			l2,2h-1l-2,2h-1h-2l-1-1v-3l-1-1l-2-1l-2-1l-1-1v1l-1,3h-1l-4-3l-1-5l-1-1l-3,1l-1,1l-3,5h-3l-4-1v-2l-3-4l-1-3l-2-1l-5,4h-1h-1
			v-2l-3-1l-1-2l-3-3h-3l-3,1l-1-1l-3-4l-1-2l-4-5h-1l-2,1h-1l-2-2l-1-2v-3l-1-1l-2,1h-2l-1,1h-1l-3-3h-2l-5,3v2l-1,1l-1,1l-3-2
			l-1,1l-3,1h-4l-1-1l-5-5h-1v1l-1,1l-1,1h-3l-5,4h-3l-3,1h-3l-3,2h-4l-4,4l-3,3h-1h-1h-4l-1,1l-2,1l-1,1l-2-1l-2-2h-2l-3,2l-6,3
			l-3,1l-7,3l-10,3v1l-5,1l-3,2l6-38l-2,4l-2,2l-5,5l-2,2l-6,6l-4,6l-6,9l-6,17l-4,9l-3,7l-4,10l-1,6l-2,9v6l2,1l3-1l4,3h2l3-1l1,2
			h1h6l2-1l2-1l3,1h4h3h2h4h4l2-1l1,2l2,2h1l2-3l2,2h1l3-1v1l3,1l1,3h1l2-2l1,1l2,2l1-1l2-1h4l3-2h2v1l-1,1h1l2-1h1h1l-1,3l1,1l2,1
			v1l4,2h1v-3l2-1h2l1-1v-1l1-1h3v1l3,1l2,2l-1,1l1,1h3l1,2l4,1l3,3h1l1,1l2,1l3-4l1-1v-3h1l3,2h2l1-3l1-1h2L-35721.8-34243.2z"/>
	</g>
	<g id="m2804300">
		<path class="st0" d="M-35048.8-34528.2v1v1l3,9l39-35h1l18-20l23-23l1-1l11-12l2-3l1-2l3-2h1l4-2h1l1-1l-1-10l-1-4l-2-2h-2l-2-2
			h-3h-2l-1,1h-1v-1v-1l-1-1l-2-1l-2-1v-1h-1l-1-1h-1h-1l-1,1l-1,1h-1v-1h-1l-2-1l-1-2v-1v-1l-1-3v-1l1-1l1-1v-1v-1h-1v-1v-1v-1l1-1
			l-1-1h-1v-1v-1v-1v-2v-1l-1-1h-1v-1l-1,1v1h-1l-1,1v1l-1,1h-1v1l-1,1h-1h-1h-1h-1h-1l-1,1v1h-1h-1l-1-1v1h-1v-1h-1l-1-1h-1l-1,1
			h-1h-1l-1,1h-1h-1v1l-1,1v1v1h-1v1h-1v2v1v1v1h-1v1h-1v1v1v1l-1,1v1l1,2h-1l-1,1l-1,1v1h-1v1l-1,1h-1h-1v1v1h-1l1,1h-1v1v1v1h-1
			h-1v1v1l-1,1h-1l1,1v1l-1,1l-1-1v-1h-1v1l-1,1h1v1v1h-1v1h-1l-1,1v1v1h1h1l1,1v1v1l-1-1h-1h-1v1h1h1h1v1h-1v1v1h1v1h-1h-1v1v1v1
			h-1h-1l1,1v1v1l-1,1h-1v1l-1,1v1h1v-1h1v1l-1,1h1h1h1v1v1v1v2h1v1l1-1h1h1v1h-1l-1,1v1h1h1v1l1,1v1h-1h-1l1,1h-1h-1l1,1h-1h-1v1
			h-1l-1-2h-1v1h-1l-1,2v1h1v1h-1v1v1h-1v-1h-1v-1l-1,1h-1l1,1v1h-1l-1,1h1v1h-1h-1h-1v1h1l1,1v1v1h-1l-1-1h-1l-1,1v1v1l1,1h-1h-1v1
			h-1l-2,1v2v5v2l-1,1l1,1l1,1v2l-2,3v1h1v2v1v1l-1,1l1,1h-1l-1-1h-1l-1,1h-1v1l-2,1v-1l-1-1l-1-1v1h-1h-1h-1v-1l-1-1v-1h-1h-1l-1-1
			h-1l-1,1L-35048.8-34528.2z"/>
	</g>
	<g id="m2804409">
		<path class="st0" d="M-34769.8-34574.2v1l-1,1l1,2l-2,2v1l-1,4v3l-2,3v1v1v1v1v1v2l2,2v2l-1,3v1h1l-2,1l-1,1v1v1l-1,2l-4,3h-1
			l-1,1l-2,2l-1,1h-2h-1l-1-1h-1l-2-1h-2l-1-1l-2-2h-1l-1,1v1v1l-2,1h-2l-1,1v1l-1,1l-1,1l-2,1l-2,1h-4l-1,1v1l-1,1l-1,1l-2,2h-1
			l-1,1h-1l-4,3v1l-4,6v3l-2,2l-3-1l-1,1l1,2v2l-3-1v3l2,1l1,1l2-1l2,4v2l4,7l4,5l4-2l6-1l2,2h2l1,2l3,1l3,2l5,3h1l2-1l1-1v-1l-1-2
			v-1l1-1h1l1,1h5l1-1l2-2l3-3v-1h1l2-3h1v-2l2-5v-2l2-2l2,3h2h5l2-1h4l1-1h2v-1l4-1l1,1h1l2-1h4l1,1l-1,1l-1,3l2,2l3,2v3h1l11-2
			l2-1l3-1h2l1,2l8-11l21-38v-1l50,16l1,1h1l8,3l2,1h2l3-3l3-2l6-6l3-2l2-3l1-1v-1l1-1l3-4l1-3v-1v-1l-2-5v-4l1-2l1-1v-3v-3l-1-6v-2
			l-1-2v-5v-4v-6l2-5l2-2l2-4v-2l1-7l-1-5v-6l-1-4l-3-4l1-4l2-4l-3-12l-1-1h-1l-1-1h-2h-1l-1-1h-1h-1h-1v-1v-1l1-1h-3v-1h-1v1l-1,1
			v-2h-1v1l-1,1v-1v-2l1-1v-1h-1v1l-1,1l-1-4h-1h-1l-1-1l1-2l1-2l-1-1v-1h-1l-2,1v1l-1,3l-1,1h-1v-1v-2h-1l-2-1l-1-1v-1l1-1v-3v-3
			v-1h1v-1l-1-1h-1v-1v-2l-1-2v-1v-1l1-1v-1h-1l-1-1l1-1l-1-3h-1v-2h-1v-1l1-1v-1l1,1l2-1h1h1l2-1v-1v-1h-1v-1h-1v-1h-1l-1-1v-1v-1
			v-1h-1v-1l-1-1h-2l-1-1h1v-1v-3v-1l-5,45v4v2l-1,1v1l-1,10v1v1l-1,2l-1,2l-1,2l1,2l1,1v1v1l1,1l1,1l3,2l4,2l-14,3l-1,1h-2v1h-1h-2
			l-13,5v1v1h-2l-1,1h-2l-1-1h-1l-1,1h-1l-1,1l-2-1h-1l-1,1l-2,1h-1h-1h-2h-1l-1-1h-1l-47-5L-34769.8-34574.2z"/>
	</g>
	<g id="m2804458">
		<path class="st0" d="M-35446.8-34583.2l-1-49l-10,15l-54-58h-10l-8-1l-29-1h-26v1l-10,17l-18,73l1,3l-2,2l1,6l-2,7l-1,7v5l1,5v1v5
			l-3,5l-8,12l-22,36l14,26l3-1l3,4v1l-1,1v1l2,1h2l1,1h2l3,1v1l1,1l1-2l2-2l-2-2l1-1l2-1h2h1l1-2l2,1v1l1,1l1-3l-2-1l1-1v-1l1-1v-2
			l2-1l1-1l3-2l1-1h1l2,2h2v-2v-3l1-3h2h1v2l1,1l1,1v1l-1,1l-2,1v1h1l2,1l3-1l2,1l3-1h4l-2-3l1-1l1-2h-1l-2,1h-1l-1-1v-1l2-2v-1
			l-3,1l-1-1h2l1-1h2l1-1l1-1v-4l4-3l3-1h1l-1-2l1-1h1l3,2h1h1v-4l3-2v-1l-1-1h1l3,1l2-1h1h1h1v-1l-1-1v-2l1-1l2-2h1h2l-1,3l1,2h2h1
			v-3l1-1l3,2h2h1v-2h1l2,2l1,4l4,4l2,1h1l1-1v-1l1-1l2,3l2,1v-3l-2-3v-1h2l-1-3h-2v-1l1-1h1l4,1v2l1,1l4,2l1,1l2-3h1l1,1v2l1,1
			l-1,1h-1v1l2,2l-1,1h1l1-2h1l2,4l1,1l3-1v-2l1-2l-1-1h-1h-1l3-2v-1l4-1l-1-2l3-1h1l3,3h1l1-1v-1l-1-3v-1l2-1l2,1l1-1v-1l1-1v1l1,2
			l3-3l2,2v-1h1l-1-4l1-1l-1-2l1-1h2l3-2l1-1l1,1l-1,2v1l1,2h1l2-2l1-1h1l1,1l2,1v-3l-1-1h1h2v1h1l1,2h1h3l1-1l2,3v4l1,2v5l1,1l1-1
			h2l1-1l-2-6v-2l1-3l-1-2l-1-4v-1h1v-4v-1l-2-4v-1v-2l-1-1l-1-1v-1v-1l-1-2l-1-1l-1-1v-2l1-1v-4v-1v-2l-2-6v-2l1-1v-2v-1l2-3v-1
			V-34583.2z"/>
	</g>
	<g id="m2804508">
		<path class="st0" d="M-35485.8-34320.2h2l1,3h3l4-1h2l1,2v5l-3,2l-1,3l3,2h1l2,2l1,2h-1l-2,1l-3-2l-1,1l-1,1v2l-2,5v1l1,1l2,2l4,1
			h2l5-5h1v2v2l-1,4l-1,2v2h3l2-3l1-3l1-1l4-2l3-3l1-1l1,1l1,2v4v2h-1l-6,1h-1l-1,2v1l1,1l1,2l9-3l28-23l29-23l22-18l-14-27h1l31,2
			l-18-57h-4l-25-4l-24-3l1-4l-2-4l-1-3l-2-2v-2l-1-1l-2-3v-1h1v-1l-3-5l-1-3l1-2v-1l-3-3l-2-3l-9,10v-4l3-6v-2l1-23l-1-3l-1-1l3-3
			v-2v-2l-1,1h-2l-1,1l-1-1v-5l-1-2v-4l-2-3l-1,1h-3h-1l-1-2h-1v-1h-2h-1l1,1v3l-2-1l-1-1h-1l-1,1l-2,2h-1l-1-2v-1l1-2l-1-1l-1,1
			l-3,2h-2l-1,1l1,2l-1,1l1,4h-1v1l-2-2l-3,3l-1-2v-1l-1,1v1l-1,1l-2-1l-2,1v1l1,3v1l-1,1h-1l-3-3h-1l-3,1l1,2l-4,1v1l-3,2h1h1l1,1
			l-1,2v2l-3,1l-1-1l-2-4h-1l-1,2h-1l1-1l-2-2v-1h1l1-1l-1-1v-2l-1-1h-1l-2,3l-1-1l-4-2l-1-1v-2l-4-1h-1l-1,1v1h2l1,3h-2v1l2,3v3
			l-2-1l-2-3l-1,1v1l-1,1h-1l-2-1l-4-4l-1-4l-2-2h-1v2h-1h-2l-3-2l-1,1v3h-1h-2l-1-2l1-3h-2h-1l-2,2l-1,1v2l1,1v1h-1h-1h-1l-2,1
			l-3-1h-1l1,1v1l-3,2v4h-1h-1l-3-2h-1l-1,1l1,2h-1l-3,1l-4,3v4l-1,1l-1,1h-2l-1,1h-2l1,1l3-1v1l-2,2v1l1,1h1l2-1h1l-1,2l-1,1l2,3
			h-4l-3,1l-2-1l-3,1l-2-1h-1v-1l2-1l1-1v-1l-1-1l-1-1v-2h-1h-2l-1,3v3v2h-2l-2-2h-1l-1,1l-3,2l-1,1l-2,1v2l-1,1v1l-1,1l2,1l-1,3
			l-1-1v-1l-2-1l-1,2h-1h-2l-2,1l-1,1l2,2l-2,2l-1,2l-1-1v-1l-3-1h-2l-1-1h-2l-2-1v-1l1-1v-1l-3-4l-3,1l-1,1l-3,2v1l-1,1l1,1l1,1v1
			h-4h-1v1l1,1l-1,1h-2l-1-2v-2l-1-1l-1-1l-1-2l-1-1l-2-1v1l1,3l-4,3l1,2h-1h-1l-2-2h-2l-1-1h-1l-1,2h-1h-2l-4,4h-2l-2,3l-3,1l-2,1
			l-2,2l-2,2l-4,3l-5,7l-3,2l-8,4l-1,1l-3,1l-2,2l-2,1l-1,2l-3-1l-3-2h-2l-1,2l-3,1l-1,2h-2l-3-1l-1-3h-2l-1,1l-1,3l-2,2l-2,1v1v1v1
			v1h1l-1,1l1,1l-1,1v1l-3,1h-2l-1,1l-4,1h-1h-2l-3,2h-1l-1-1l-2,1l-2-1l-2-1l-2-1l-1-1l-1-1l-3-1l-9-1l-6-3h-3h-3l-1-1l-1-2l-1,1
			h-1l-1,2l-2,1h-3l-3,1h-2l-3,4h-2l-3,3h-2l-2,1l-1,2l-1,1l-1,4l4,13l-1,2l-1,3l1,3l3,5l1,3v5l2,2l-2,8l-1,3l-6,38l3-2l5-1v-1l10-3
			l7-3l3-1l6-3l3-2h2l2,2l2,1l1-1l2-1l1-1h4h1h1l3-3l4-4h4l3-2h3l3-1h3l5-4h3l1-1l1-1v-1h1l5,5l1,1h4l3-1l1-1l3,2l1-1l1-1v-2l5-3h2
			l3,3h1l1-1h2l2-1l1,1v3l1,2l2,2h1l2-1h1l4,5l1,2l3,4l1,1l3-1h3l3,3l1,2l3,1v2h1h1l5-4l2,1l1,3l3,4v2l4,1h3l3-5l1-1l3-1l1,1l1,5
			l4,3h1l1-3v-1l1,1l2,1l2,1l1,1v3l1,1h2h1l2-2h1l-2-2v-1h2v-2l1-1l4-2l2-2l6-2l1-1l1-3l2-1l1,2l2-1l1-2l-1-3l3-2v-1v-3v-1l2-2h1
			l2,2l1,1v2v2v1l3,1l4,1h2l1-3l2-1v1l1,1l-1,1l2,2v1h2l1-1l3-1l2-2l2,2h2l2,1h2v1v4l1,2h1v-1l1-1l1-2l1-1h2l1,1l1,3v3l1,1h2l3-2
			l3-1h1l1,2l3,1l1,1l3,2l2,1l3-2v-2v-1h2l2,3l2,4l2,3l1,1l1,2h1l1-1l1-3l3-3h1l1,2h5l3,2h2l2-3l2-1l-1-6l1-1h2h2l3,1l2-1
			L-35485.8-34320.2z"/>
	</g>
	<g id="m2804607">
		<path class="st0" d="M-35306.8-34530.2l-3,6l-1,3h1h1l4,2h2h1h3h1h1l2-1h3h1l1,1l1,1l1,1l4,2h2l1,1v1h3h1l1-3l2-1h1v-1v-1v-1l1-1
			l-1-1l-2-2h-1l-2-1v-1l-4-2h-1l-1-2l-2-2v-2v-2v-3l1-1l1-2v-1v-1l1-1l1-2l1-1l1-1v-1l1-1l1-1v-1l1-3v-2l-1-4v-1v-1l-1-1l1-2v-3v-1
			l1-1v-1v-1v-1h1v-1h2v-1h2h1l1-1l1-3v-1v-1v-1v-1l1-1l1-1v-1l1-1v-1l1-1v-1v-1l2-1v-1h1v-1h1v-1l11-8l1-2h1v-1v-2l1-1v-1v-1l1-1h1
			v-1v-2h1h2l1-1h1h1h1l1-1h1h1h1l1-1h1l2-2h2h1l2-1v-1l1-1v-1l2-1v-1h1l2-1l1-2l3-1l1,1l2,1h1l1-1h2l1-2h1v1v1h2h1h1v1l2,1l-1,1
			l1,1l1,1l1-1h1h1l1,1l1-1l1-1h2l1-1l1-1h1l-1-1l1-1v-1h-1h-1l1-1h1l1,1h1v1h1l1-1l1-1v1h1v-1v-1h1v1v1v1h1l1,1v-1l1,1l1-1v1h1v1h1
			l1,1h-1v1l-1,1l1,1h1l1-1h1l1,1l1,1v1v2h1h1l1-1l1-1v-2h1l2,1h2v1l2,1v1v1h1l1-1v-1l1-1v-1h1v-1v-1v-1h1h2h1l3-1v-1l-1-10l-1-8v-1
			h-1l-1-3h-1v-1l-1-1l-1-2h-1l-1-2l-1-1h-2l-1-1h-2h-1l-1-1l-1-2v-1h-1l-1-1l-2-1h-1l-2-1l-1-1v-1v-3l-1-12v-2l-2-36l-17-22l-3-6
			l-21-28l3-2v-1l6-6l-1-1l-1-2l-1-2l-1-1v-2l-2-2h-2l-1-1h-1l-1-1h-1l-2-1l-1-1l-1-1v-2l-1-2h-1l-2-1h-1h-1h-1v-2h-1l-1-3h-2l-2-1
			l-1-1v-2v-1h-1h-1v-1h-1v1l-1-1v-1l-1-1v-1v-2l2-1l1-3l1-3v-2l-2-8h-2v1h-1v1l-1,1l-2,1v2v1h-2l-1,1h-1h-2h-1l-1,3l1,2h-1l-3,1
			l-2,1l-1,1h-1l-1,1h-1l-1-1l-1,1v1v1v1h-1v1h-1h-2l-1-1v1l-1-1l-1,1l-1,1v1v1h-1l-1,1v-1l-1,1l-1,1h-3l-1,1v1l-1,1v1h-2l-1,1l-1,1
			h-1v2h-1v1l-1,2l-1,1l-1,1l-1,1l-2,1l-3,5l-1,2h-1l-1-1h-1l-4-1l-2,1h-1l-2,2h-2h-5l-1,1l-2,1l-9-2l-3-1l-2,1l-1,1h-4v1h-1l-1,1v1
			v3h-1v1l-4,1l-1,1v1v1l-1,1v1h1h1v1l-1,1h-1l-1,1v2l1,2v1v1h1v2l1,2l-1,1v1h-2v1h-2l-1-1h-1v1v1v1h-1v1l-1,1v1l-1,1l-1,2l-4,6
			l-10,12l-11,13l-13,24l1-1l4-2h1l1-1v-1l1-3h1l2-1l47,17h1l26,10v1l-1,1h-2l-2,1h-1l-1-1h1l-2-1l-3-1l-3-2h-1l-1,3l-1,1v1v1v1v1v2
			l1,1l3,1v1l-2,3v1v1v1h-1h-1l-2-2l-1,1v1v1v1v2l-1,2l1,1h1l1,1l1,2v1v1l-1,1l-2,1h-1l-1-1l-2-1h-2h-2l-1,1v2v3h-1l-2,2v1l-1,1h-1
			l-1-1v-1l-2-3l-2-1l-1,1v-1h-1l-2-2l-1-1h-3l-1,1h-2l-1,1l-3,1h-2l-1,1h-1v1v1l-1,1v1l1,2l2,1l2,1l2-1h1l1,1v1l1,1l-1,1l-2,1h-2
			h-1l-2,1v1l2,1v1v1v1v1l-2,3v1l-2,1v1l1,2v1l-1,1v1h-1h-1l-1,1v-1h-3h-2l-2,1h-1l-1-1h-1l-1,1v1h1v1v2l1,1l1,1l1,2h1v1v1l1,1l2,3
			v1l-1,1l-1,1v1h-1v-1h-1l-1,1v1l-1,1h1h1v1l2,1l1,1h1l1-2h1h1l1,1l1-1l1,1h1h1h1l-1,1l1,1h1v1l1,1h1v1h1v-1v-1h1v1v3h1v2h-1v1v1v1
			h1l1,1v-1h1v1l1,1v1v1h1v1h2h1l1,1v1v1v1l-1,1l1,1l-1,1v2h1h1h1h1l1,2h1v1h1l2,1v2v1v1h1l2,1l1,1l2,2l-1,3l1,1h1l1,3l-1,1l-1,3v1
			h1l2,1l2,1v1l1-1v3l1,1v1l1,1h1h1l2,1l1-1l2,1l1,1l1,1l1,2l-2,1h1l1,1h1h1l1,1h1h1h1h2l1-1h2h1v-1l1-1h1H-35306.8z"/>
	</g>
	<g id="m2804706">
		<path class="st0" d="M-35002.8-34241.2h3l4,2h1h2v-10l-3-12v-5l2-8l3-12v-1l-31-10l-6-1l-17-21l-8-6l-13-12h1v-1l-1-4l-3-5v-1
			l-1,1l-1-1l-1-1h-1l-1-1l-1-1l-2-1h-1v1l1,1v1l-1,1v1h-1v-1h-1h-1v1v1h-1l-1,1h-1l2,4h-1v1h-1l-1-1h-1h-1l-1-2h-1l-1,2v-1l-1-1
			l-1,1h-1v-1h-1v-2v-1h-1l-1-1l-2-2l-2-2h-2l-3,44l3,14l1,4v1v1l2,10l1,1l31,4l3,2l20,17h1l2,1L-35002.8-34241.2z"/>
	</g>
	<g id="m2804805">
		<path class="st0" d="M-35140.8-35034.2l3,1l3-3l2-1l5-1h1h2l4,1l4-1h4l6-1l3,1h2h3h5l10-3h1l3-2l5-3l4-6l3-3l3-7l-2-8l-4-15l-1,1
			l-1,1l-1,1l-1,1l-1,1h-1h-1l-1,1h-1h-1h-1l-1,1h-1h-1h-1l-2,1l-1-1h-1l-2-1h-1l-1-1h-1l-1-1l-1-1l-2-2v-1l-1-1v-1l-1-1l-1-1v-1
			l-1-1l-1-1h-1l-1,1l-1,1v1l-1,2v2v1v2h-1v1l-1,1l-1,1h-1l-1,1h-1h-1h-1h-1h-1h-1h-1l-1-1l-1-1v-1l-2-2v-1h-1l-1-1v-1l-1-1l-1-1h-1
			v-1h-1v-1h-1h-1h-1h-1h-1h-2h-1l-2-1v-1v-1l1-1l1-1l1-1h1l2-1v-1v-1v-1v-1l-1-1h-1h-1h-1v1h-1h-1h-1l-1-1v-1v-1v-1v-1h1v-1h1h1v-1
			v-1v-1v-1h-1v-1h-1v-1l-1-1v-1h-1v-1v-1h-1v-1v-1l-1-1h1v-1l2-5l2-5l1-1h-1l-1,1l-1,1h-1h-1h-1h-1h-1h-1l-1-1h-1h-1h-1l-1-1h-1h-1
			l-1-1h-1h-1l-1-1h-1h-1v-1h-1h-1h-1l-1-1h-1h-1v-1h-1h-1l-1-1h-1l-1-1h-1h-1v-1h-1h-1l-1-1l-2-1h-1l-1-1l-1-1h-1l-1,1h-1h-1h-1
			l-1,2l-1,1v1h-1v1l-1,1h-1h-1v-1h-1h-1v-1h-1h-1h-1v1h-1v1v1v1h-1v1h-1v1h-1v1h-1v1l-1,1h-1v1h-1h-1h-1v1h-1v1v1v1h1v1v1v1h-1v1v1
			h-1v1v1h-1v1v1v1v1h-1h-1h-1v1h-1h-1h-1v1h-1v1h-1h-1h-1v1h-1v1v1h-1v1v1v1h-1v1h-1v1h-2l-1,1l-2-1l-1-1h-2l-2-2l-1,1l-1,1l-2,1
			l-1,1v2v1l-1,1l-1,1l-1,5h-1l-1,1h-2h-2v-1h-1h-1l-3-1l-1,1v-1l-1-1l-2,2l-2,3h-2l-1,1l-2,1h-1l-2,1h-1l-3,1l-2,1h-3l-1,1l-1,1
			l-1,1h-2l-1,1v1l-1,1v1l-1,1l-2,3v2l-1,1l-1-1l-2,1v-1l-2,1v1h-1h-1v1h-1h-1h-1v1h-1h-1l-1,1l-1,1l-1,2l-1,1h-1l-1-1l-3-2v-1v-1
			h-1h-5h-1h-1h-3l-2,1h-1h-2l-2-1h-1h-1l-1,1l-6,2l-1,2v1h-1l-1,2v1v1l-2,2v1l-1,1l-2,1l-2,3v1h-1h-1h-1l-2-1h-2l-1,1l-1,1l30-1h1
			l43-1h2l3-2h1h1l3-1l1,1h1v-1h1l1-1l1-1l2-1h1l3-2l1-1l1-1h1v-1h1l1-1l1-1v1l1-1v-1h1h1h1h1h1v1h1h1h1h1v-1h1h1h1v-1h1v1h1h1v-1
			v-1h1h1h1v-1h1v-1h1h1l1,1l1-1h1v-1h1h1h1h1v-1l1,1h1l1-1h1h1l1-1h1l1,1v-1h1v1v1h1h1v1v1v1v1v1v1h1v1v1l1,1h1v1v1h1h1h1v1l1,1h1
			l1-1h1v1v1h1l1,1h1h1h1v1v1h1v-1l1,1h1h1v1v1v1v1h1h1l1-1h1v1h1l1-1v-1v-1h1h1h2l2,1l2,2h1h1l1-1l2-1l1-1h5l2,1h3l1,1l2-1l7,2l6,3
			l3,2l1,3l1,3l1,1L-35140.8-35034.2z"/>
	</g>
	<g id="m2804904">
		<path class="st0" d="M-34535.8-34728.2l14-16l-1-1h-1v-2h-2l-2-1l-3-1l-2-1v-1l-1-1l-1-1l-1-1h-1l-1-1l-4-1l-2-1l-3-2h-3l-2-1
			l-3-1l-3-2l-3-1l-5-2l-3-1l-4-1l-5-2l-2-1l-3-1l-3-1l-3-1l-4-1l-2-1l-2-1l-2-2h-2l-2-1l-2-1l-3-1l-2-1h-1l-1-1l-6-2l-11-5l-8-4
			l-5-2l-3-1l-3-2l-4-1l-4-3h-1l-5-4l-3-2l-3-2l-2-1l-3-3l-4-2l-3-3l-6-6l-1-1l-2-1l-5-3l-3-3l-11-7l-1-1l-2-1l-6,3l-6,3l-16,7l-5,2
			l-43,19l17,64l2,9l18,67v3l11,46l47,5h1l1,1h1h2h1h1l2-1l1-1h1l2,1l1-1h1l1-1h1l1,1h2l1-1h2v-1v-1l13-5h2h1v-1h2l1-1l14-3l-4-2
			l-3-2l-1-1l-1-1v-1v-1l-1-1l-1-2l1-2l1-2l1-2v-1v-1l1-10v-1l1-1v-2v-4l5-45l4-1l9-1l2-1h-1L-34535.8-34728.2z"/>
	</g>
	<g id="m2805000">
		<path class="st0" d="M-35732.8-34797.2h1l3,23l3,26l14-21l25-38l9-13l-2-2l-1-1h-1v-1h-1v-1h-1v-1v-1v-1h-1v-1v-1l-1-2l-1-2v-1
			l-1-1v-1v-1v-1v-1l-1-2v-1v-1l1-1v-1v-1v-1v-1v-1v-1l-1-1v-1l-2-3l-1-2v-2h-1v-1l1-1v-2l-2-1l-4-3l-1-2v-1v-1h1v-1l-1-1v-1l-1-1
			v-1l-1-1v-1h-1v-1h-1v-1v-1v-1v-1v-1v-1h-1v-1v-1l-1-1h-1v-1v-1h1v-1h1v-1h1v-1h1v-1v-1h1v-1v-1v-1v-1l1-1l-1-1v-1v-1v-1v-1v-1
			l-1-1v-1h1v-1h1v-2v-2l1-2h2l-1-2l-1-1l-1-1h-1h-1v-1v-1l-1-1v-1l1-1v-1h1l1-1v-1v-1v-1v-1v-1h-1l-1,2v1l-1,2l-2,3l-1,1h-1h-1
			l-1-1l-1-1l-3-5h-1h-1l-1,1l-4,3l-1,1l-1,1v1l1,2l1,1h2l5,1h2v1l-1,4l-3,3h-3h-2l-3,4v1l2,3l1,2l-1,1l-2,3l-4-3h-2l-3,1l-2,4l-5,1
			l-1,1l-1,2l1,3v1v1l-1,1l-1,1l-1,1l-1-1l-1-2v-1l-2,1l-2,1l-3,2v1l1,1h1l3,1l1,2l1,1l1,4v2l3,1l1,1l2,4l3,3l1,3l3,5l-1,1l-2-1
			l-3-2h-2h-1v1l-1,5l-1,2h-1h-1l-1-1l-1,1l-2-2h-2l-2,1l-1,3l-2,3l-2,4l2,5l2,5l4,5l4,1l1,1h2v1l-1,3l-1,2v1l2,4v4l2,2l3,5
			L-35732.8-34797.2z"/>
	</g>
	<g id="m2805109">
		<path class="st0" d="M-35642.8-35415.2l1-1l1,1h1l1-1h1h1l3-2v-1v-1v-2l-1-3h1v-1l-1-1l1-2h-2h-1h-2h-2v-1l-1-1h-1l-1-1l-1-1h-1
			l-2,1l-2,1h-3h-1l-4-1h-1l-5-1l-2-1h-1h-3l-1-1h-1h-2h-1l-2,1h-1v1l-1,1l-3-2l-1-1h-2l-3-1h-6l-4,2l-1-3l-2-4l-1-2l-2-1l-2-2l-2-2
			v-1l-1-3v-2l-3,3h-1h-2l-1,2v1v2v1v2l-3,4l-1,2h-1v1l-1,1v2v2v1h-1v1v2v1l-3,2l-1,1v1v2h-1h-1h-1l-1,1l-1-2h-1l-1,1l-1,2v1l1,1v1
			v1l-1,1l-1,1h-1h-1l-2,1l-1,1l-1,2l14,22l1-2l1-1l3-1l1-1v-2v-1l2-2v-2l2-2l1-3v-1v-1h1l2,1l2,1l1,1h1l1,3l2,1h1l24-11l1-3l2-1h1
			l1-1l2-1h1h2h2l3-1l5,1l2-1h4h3l3-1h2h2h1l1,2H-35642.8z"/>
	</g>
	<g id="m2805208">
		<path class="st0" d="M-35752.8-34860.2h-1l-6,3l-1,1l2,4l1,2l-1,1l-3,2h-3l-3,1h-3l-5-2h-1l-1,1l-1,4l-1,1l-4,2l-3,4h-1l-2-2h-2
			l-7,2l-5,3v1l-1,4v5l1,1v1l-5,3l-6,2l-4,1l-3-1l-2,1l-1,1l-1,2l-1,1l-1,1h-5l-4,4h-1l-4-3v-2v-3v-1h-1l-2-1l-2,1l-5,5v1h1l-1,1
			l-1,2l-1,4l-2,2l-4-2h-2l-5,2l-1,2l2,2h2l1,1l-1,1h-4h-1v1l1,5v1l-4,1v1l2,2v1l-2,1v1v1h1l1,1v2l-1,2l-4,2l-2,1v1l-1,5l1,1l1-2
			l1-1l1,3l3-1l2-1h1v3h3v1l-2,2v1l1,3h1l2,1l1,2h1l3-2h1v1v1l-2,2v5l2,2v2l2,3v3l2,1v3h2l1,1h2h1v3h1h1v1h3l3,2l1-1h1l1,1h1v1l2-1
			h1h1l1-1l1,1l1-1h1l1-1l1,1l1-1l1,1l1-1l2,1h3l2,1v1l2,2h3l5-1h6l11-4l10-2l6-2h4h1l3,5l2,1l36-23l-3-26l-3-23h-1l-4-3l-3-5l-2-2
			v-4l-2-4v-1l1-2l1-3v-1h-2l-1-1l-4-1l-4-5l-2-5l-2-5l2-4l2-3l1-3l2-1h2l2,2l1-1l1,1l-2-4l-6-8H-35752.8z"/>
	</g>
	<g id="m2805307">
		<path class="st0" d="M-34889.8-34844.2l13,10l56,43h3l2-1l7-1l2-1l5-2l5-8l4-3l1-2h1h1v1h1h1l1-2l43-19l5-2l16-7l6-3l6-3l-4-3
			l-3-2l-9-3l-5-2l-5-1l-4-2l-4-2l-4-1l-2-1l-3-2l-3-1l-9-4l-2-1l-3-2l-1-1l-12-7l-2-2h-3l-1-2l-7-5l-6-2l-3-3l-6-5h-2l-3-1l-2-2
			l-3-2l-5-3l-3-2l-3-2l-2-1l-2-1l-6-6l-2-2l-4-2l-5-4l-3-2l-3-2l-7-7l-7-7l-1-1l-2-2l-3-2l-1-1l-1-1l-1-1l-2-2l-2-1l-3-3h-1v-1
			l-1,1h-1h-2l-3,1h-1h-2h-2l-2-2h-1h-2l-1,2l-1,1l2,1l2,3h-1l-2,1h-1l1,1h2l1,1v1l1,1l-1,1v2l-1,1l1,1l-1,1h-1l-1,1v1l1,1h1v1l-1,1
			v1v1h1v-1l1,1l-1,2v1v2v1l-1,1l-2,1l1,1v1l1,1v1h-2h-1l-1-1v-1h-1v1h1v1h-1v1v2l-1,2l-1,1v2v1h-1h-1v2h-1v-1h-1h-1h-1l-1-1h-1
			l-1,1l-1,1v1l-1-1l-1-1v-1h1v-1l1-1h3v-1l-1-1h-1l-1,1l-1,1l-4-1v-1v-1v-1v-1l-3-1l-1,1v1l-1,1h-3v2l1,1v1l-1,1l1,3l-1,1l-1,3v3v2
			h-1v1h-1l-2,2l-2,1l-1,2v1v1h-1h-1h-2l-1-1l-2,1h-1h-2h-1l-4,1l13,9l1,1l4,3l3,2l4-2l5,3l1,1L-34889.8-34844.2z"/>
	</g>
	<g id="m2805406">
		<path class="st0" d="M-35785.8-33900.2l83,19l10-20l2-1l9-5l6-3l4-5l9-5l4-4l17-8l1-1l2-1l8-4l11-10l1-1l4-2l6-3l6-1l12-1l25-3h1
			l4-1h2l3-1l19-1l12,1l14-1l4-1l4-1l-1-1l-40-65l-2-3l-19-29l-1-2h-1l-16-26l-19-28l-3-4l-36-56l-4-6l-1-1h-1h-1l-2-1l-2-1h-1l-3-2
			h-1h-1h-2l-2,1l-2,1l-1-1l-3-1h-1l-1-1h-1l-2-2l-2-1h-2l-1-1l-2-2v-1v-2v-1l-1-1l-2-2l-1-1l-1-1l-1-2l-1-1l-1-1l-1-1h-2h-2l-2-1
			l-1-1l-4-1h-1l-1-1v-4v-1v-3v-4l-1-2v-1v-1v-1h-1l-2-3l1-3l-1-1h-2l-2-3l-2-1l-2,1l-1-1l-2,1l-2-3h-2l-1,1l-3,4h-2l-1,1l-1,3h-2
			l-3-2h-1v3l-1,1l-3,4l-2-1l-1-1h-1l-3-3l-4-1l-1-2h-3l-1-1l1-1l-2-2l-3-1v-1h-3l-1,1v1l-1,1h-2l-2,1v3h-1l-4-2v-1l-2-1l-1-1l1-3
			h-1h-1l-2,1h-1l1-1v-1h-2l-3,2h-4l-2,1l-1,1l-2-2l-1-1l-2,2h-1l-1-3l-3-1v-1l-3,1h-1l-2-2l-2,3h-1l-2-2l-1-2l-2,1h-4h-4h-2h-3h-4
			l-3-1l-2,1l-2,1h-6h-1l-1-2l-3,1h-2l-4-3l-3,1l-2-1v1v3l1,2l1,2v6v3l-1,3l-2,6l-4,8l-4,4l-7,2l-9,2l-1,1l-4,3l-5,1l-3,2l-5,5h-2
			l-6,3h-2l-4-2l-4,1l-4,1l-4,1h-2h-3h-1h-3l-6,2h-8l-5,2l-1,1l-4,6l-1,1l-2,1l-5-1h-3v1l1,1l1,2l6,5l3,3l1,4l-1,6l2,1v3l4,4l3,3
			l5,3l5,5l6,4l4,8h2l5-1h3l2,1l2,2l3,2l7,4l4,4l1,3v2l-3,12v3l1,1v3l-1,6l1,2l1,3v4v7l2,4l2,2l1,2l-1,1l-3,1l-1,3l2,6l3,8l4,18l1,9
			l1,1l3,2l1,2v9v3l-1,1v1v2h1l3,2l2,2l6,9l2,5v4l-2,3l-1,2l1,5l2,6l2,5l4,16v8l1,3l3,7l8,1l1,1l40,9h1L-35785.8-33900.2z"/>
	</g>
	<g id="m2805505">
		<path class="st0" d="M-36137.8-34928.2h1h1l1,1v-1h1h1h1l1-1h1h1v1l1-1h1h1h1v1h1v-1l1,1h1h1h1h1h1l1-1h1l1-1h1v1l1-1h1h1h1h1h2h1
			h1v-1h1v1h1h1v1h1h1v1h1h1v1h1v-1h1l1,1h1h1v1h1l1,1l1,1l1,1h1v1h1h1v1v1v1v1h1v1v1v1l1,1v2v1v1v1v1l6-10l20-28h4l26-26l6-2l12,4
			l1-14l2-26l1-13l-1-18l-2,1l-1,1h-2l-3,1h-1h-4l-2,1l-3,1h-1h-3h-1l-4,1h-3h-2h-1h-3h-1l-2,1h-2h-1l-2,1h-2h-1v1h-1v1h-1h-1h-1
			l-2-1v1h-1h-1h-1l-1,1h-1v-1h-1v-1h-1h-1l-1,1h-1l-1-1h-2h-2l-2-1h-2h-1h-1h-1h-1v-1l-1,1h-1l-1-1h-1h-1h-1l-2,1h-1h-1h-1h-1l-1-1
			l-1-1h-1v1h-1h-1h-1h-1h-1v-1h-1v2h-1h-2l-1-1h-1h-1h-1h-1h-1l-1-1l-1-1v-1h-1h-1h-1l-1,1h-1v-1v-1l-1,1h-1h-1h-1v-1h1v-1v-1h-1
			h-1h-1l-1-1h-1v-1v-1l-1-1h-1l-1,1h-1h-1h-1v-1v-1h-1h-1h-1h-1h-1h-1v-1l-1-1v-1h-2v-1l-2-2v-1h-1h-1v1l-1,1h-1h-1l-1,1h-1v-1v-1
			h-1v-1h-1h-1v-1v-1v-2v-1v-1l-1-1h-1v-1v-1l-1,1l-1-1l-1-1h-1l1-1l-2-1h-1v-1v-1h-1v-1v-1v-1h1v-1h1v-1v-1h-1h-1h-1v-1l1-1h2l1-2
			l1-1v-1h1v-1l1-2l1-1v-1v-1v-1l-1-1v-1l-1-1l-1-1v-1v-1l-1-1l1-2l-1-1v-1v-1v-1l-1-2l-2-2l-1-1v-1l-1-1v-1l-1-1l-1-1v-1h-1h-1h-1
			h-1h-1v-1l-1-1l-1-1v-3h-1h-1l-2-1l-1,1h-1h-1v-1h-3l-1,1h-1h-3h-2h-2l-1-1v-1h-2l-1-1v-1v-2v-1l-1-1h-1v-1v-2l1-1v-1l-1-1l1-1v-1
			l-1-1v-2v-1l-1-1h-1h-1h-1l-1-1l-1-1l-1-1v-2v-1v-1v-1v-1v-3h1v-2h-1l1-1l-1-1l1-1l1-1l1-1l-1-1l-1-1h-1h-2h-1v1h-1h-1h-1h-2v-1
			h-1l-1-1h-1h-1h-1h-1v1h-1h-1v1h-1h-1h-1h-1v1h-1h-1h-1v-1v-1h-1h-1l-1,1h-1l-1,1h-1v1l-1,1l-1-1v1l-1,1v1l-1,1h1v1h1v1l1,3l1,1v1
			v1h-1v1h-1h-1h-1v1h-1v1v1h-1v1h-1l-1-1v-1l-1-1v-1v-1v-1l-1-1v-1l-1-1h-1h-1l-1,1v1v1l-1,1v1v1v1h-1l-1,1h-1l-1,1h-2h-1v1v1h-1v1
			l-1,1h-1v1h-1h-1v1h-1v1l-1,1v1v1v1v1v1v1l-1,1v1v2v2v1v1v1v1h-1v1v1v1v1l-1,1v1l-1,1v2v1v1l-1,1v1h-1v1h-1v1h-1v1v1l-1,2v1v1v1v1
			v1h1v1h-1v1v1v1v1v1v1h1v1v1v1v1v1h-1v1l-1,1v1l1,1v1h1v1v1v1h-1v1h1v1l1,1v2h1l1,1h1v1v1v1v1v1v1v1v1v1h-1v1v1h-1v1l-1,1v1h-1
			l-1,2l-2,3l-1,1v1v1h-1h-1v-1v-1h-1v1v2v1h-1l-1,1v1h1l1,1v1l1,1l1,1l2,2l1,1l1,1l1,1h1v1v1l-1,1v1l-1,1v1v1v1l-1,1v2v2h1v1v1l1,1
			v1v1h1l1,1l1,1l1,1l1,1l1,1h1v1h1l1,1l1,1h1h1l1,1l1,1h1v1h1v1h1h1v1v1v1v1v1v1l1,2v1l1,1v1v1v1v1l1,1l1,1h1v1v1l1,1l1,1l1,2v4
			l-1,1v1v1v2h-1v1l-1,1v1v1l-1,1v1l-1,3v1v1l-1,1l-1,1v1h-1v1v1v1v1l1,1v1v1v1v1l1,1v1v1v1h1v1l1,2l1,2l1,1v1h1v1h1h1h1h1v1l1,1
			l1,1h2l2,1v1h1l1,1h1v1h1h1l1,1h1h1l1,1v-1h1h1v-1h1h1v1l1,1l1,1h1l1,1h1h1h1h1v1h1h1l1-1h1h1l1-1l1-1v-1v-1h1v-1l1-1h1h1h1h1h1h1
			h1h1h1h1l1-1v1h1v-1h2h1v-1h1h1v-1h1l1-1l2-1h1v-1h1h1v1h1h1v-1v-1h1h1l1,1h1h2h1h1h1h1l1-1h1h1l1,1h2h1v1h1l1-1h1h1h1h1v1h1h1h1
			l1,1h1h1v1h1v1h1l1-1v1v1h1h1l1-1v1h1h1h1l1-1h1v1l1-1h1l1,1H-36137.8L-36137.8-34928.2z"/>
	</g>
	<g id="m2805604">
		<path class="st0" d="M-35543.8-34030.2l40,65l33-7l6-2l10-4l9-6h1l10-9h2l1-1l6-2l16-3l3-1l12-3l3-1l7-4l6-6l2-2l1-1l5-5l13-13
			l8-4h1l3-1l13-3l4-1l7-2l19-17l2-2l7-10l6-18l2-4l3-5l6-6l4-3l6-3h3l-1-8l-2-3l-1-3l-3-44v-1l-23-1h-1l-2-3l-1-3h-2l-1,2l-4,1
			l-3-1l-2-3v-2l2-7l5-16v-3h-1h-2l-5,3l-4,1l-2,1h-2h-3l-4-4v-1l3-6v-1l-1-4l1-2l-1-3l-6-5l-2-1l-3,2l-3,8l-1,3l-5,3h-1l-1-1h-1
			l-2-1l-1,1l1,1h-1l-2-2l-1-6l-2-1l-7-4l-6-3h-2v1v1l3,2l1,1l1,1l-3,4l-1,1h-1l-1,1l-1,2v2l1,1l1,2v1v2l-2,2l-3,4l-1,1h-1l-1-3
			l-2-1l-1-2v-1l2-3v-1l-1-1l-4-1h-2l-1,1l-1,4l-1,1l-1-1l-2-6l-2-2v-2h1l3,1l3,1l1-1v-4l-1-2l-2-4l-2-2h-1l-1,1l-2,1h-2l-3-2h-2v3
			l1,3l-1,1l-2,1l-3,1l-3-1l-2-2h-5v-2l1-2l2-1l3-1l1-1v-4l-1-2h-1l-3,3l-2-1l-1-2l2-1l2-1v-1l-2-2l-6-2v-1l1-3l1-4h-1l-2-2l-4-1h-2
			l-1-1l1-2v-1l-2-2l-1-2h-1h-1l-1,2l-1,1h-1l-2-1v-1l1-4v-1h-1h-3l-3,1h-2l-5-4l-5-6l-8,6l-42,33l-18,5l-36,9l-20,5l-19,5h-1h-5
			l-6,1h-7l-1-1l-1-1l-1-2l-1-5l-2-4l1-1l-3-2l-1-2h-1h-3l-1-1v-4l-1-1v-1v-1l-4,4h-3h-3h-2l-2-2l-2-1h-1v-3h-1h-1h-8h-2l-1,2l-1,1
			l-1,1l-1-1l-4-1l-1,3l-3,2l-3-1l-2-2l-2-1l-1,1l-3,3l-3,1l-1,1l-2,2l-1,1l-4-1l-2,1h-1l-1-1l-2-1v1v1v1l1,2v4v3v1v4l1,1h1l4,1l1,1
			l2,1h2h2l1,1l1,1l1,1l1,2l1,1l1,1l2,2l1,1v1v2v1l2,2l1,1h2l2,1l2,2h1l1,1h1l3,1l1,1l2-1l2-1h2h1h1l3,2h1l2,1l2,1h1h1l1,1l4,6
			l36,56l3,4l19,28l16,26h1l1,2l19,29L-35543.8-34030.2z"/>
	</g>
	<g id="m2805703">
		<path class="st0" d="M-34836.8-34495.2l-2-1v-3v-1v-1v-1l-1-1l-1-1l-1-3l-1-1l-1-1l-2-1l-1-2l-1,1v-2l-1,1h-1h-1h-1v1l-1-1l-2-1
			h-1l-1,1h-1l-1,1l-2,1l-1,1h-1h-2h-1l-4,2l-2,1h-1v1h-1v1v1v1v1v1v1v2l-1,1h-1l-1,1h-1l-1,1v1v2v1v1l2,2v1h1l-1,1l-1,1l-1,1l-2,6
			l-5,22l-3,2l-16,10l1,22l6,20l3,9h1v1l1-1l1-1l1-1h1v-2l1-1l2-4l1-1v-1v-1h1h1h1h1l1-1l2-3l1-1l1-3v-2l2-2l1-2l1-1l3-2l2-2l3-2
			l6-4h1l1-1h1v-1l5-3l6-2l19-4h10l3-1l7-2h5l8-2l9-1l3-2l1-2v-1h-1l-1-1h-1l-1-1v-1l1-3v-1v-1v-1l-1-1h-1l-1-1v-1v-1v-1l1-1l1-1h1
			l3-1h1h2l1-1h2h1l1-1h2l2-1l1-1l1-3l1-1l1-1l1-1l1-1l1-1h1h2h1l5-2l5-1l8-3v-3l-3-2l-2-2l1-3l1-1l-1-1h-4l-2,1h-1l-1-1l-4,1v1h-2
			l-1,1h-4l-2,1h-5h-2l-2-3l-2,2v2l-2,5v2h-1l-2,3h-1v1l-3,3l-2,2l-1,1h-5l-1-1h-1l-1,1v1l1,2v1l-1,1l-2,1h-1l-5-3l-3-2l-3-1l-1-2
			h-2l-2-2l-6,1l-4,2l-4-5l-4-7v-2l-2-4l-2,1L-34836.8-34495.2z"/>
	</g>
	<g id="m2805802">
		<path class="st0" d="M-35913.8-35079.2l1-1l1-1v-2l1-2v-1v-1l1-3l-1-2v-1l2-4l1-3v-1l2-4v-2v-1l3-3v-2v-1l-1-2l-2-3l-2-2l-1-2v-3
			l-1-4l-1-2v-2h-1v-1v-1v-1h1h1v-1l1-1h1h3h2l1-1l2-4l2-1l3,1l1-1h1l4-5h1h1l2,1h1l2-3l1-2l1-2h1l1-1v-1v-2v-1l1-2l2-1v-1l1-1h1h1
			v-1v-1l-3-1v-1l-1-1v-2v-2v-1v-1v-1v-1v-1v-2l-1-3h1v-2l1-2v-1h1l1-1h2l1-1l1-3v-1l-1-1h-1l-3-3v-1v-1v-1l1-1h1h3h4h1l2-1v-1v-2
			l1-1l2-1v-1v-2v-1l-1-2l1-3v-1l2,1l1-2l1-1h1h1h1l2,3h1l1-2l2-2l-1-2v-1h1l1-1h2h2h2l2-1h2l1-3l2-1l1-2h1h1l2,5l3,3h1l-1,2l1,1h1
			l2-3h1h1l1,3l1,1l1,1l1-1l1-1l1-2l1-1v-1v-1v-1h-1v-1l1-2v-1l1-1h1v2h1h1h1h1v1l-1,1l2,2h1l1,1l-2,1v1h1l3-1v-1l2,1h1v1v2v1l1,1
			l2,1l2,1h1h1v-1l-1-1v-1l1-1l1-1l1-1l2-1h1h3h1h2h1v1v1l1,5v1v1l-1,1h-1h-1l-2,3l-1,1l2,1l1,1v1l-1,4l18-4h1h1l1-1h1l1-1h1v-1h1
			l6-4l4-3l16-23l1,1l1-1l1,1l2-1l1,1l1-1h1v1l1,1h1l1,1l1-1h1l1,1v1l2,1l2-1h1l1-1v-1h1l1-3v-3l1-1h1h1v-1h2v-1h1v-2l1-1h1v1l1,1
			l2-1l1-2h1v-1l2-1v-1l-1-1l1-2l2-1l3-2l1-1h2h1h1l2,1l1-3v-1l2-2l2-4l1-1h1v-1l1-1v-2v-1l1-2h4l1,1h1l1-1l1-2h1h1h1h2l1-1h2l4-2
			v-1l-2-1v-1l1-1v-1l1-2h2v-1h1v-1l-1-1l-1-1h-3l-1-1l1-2l-1,1h-1h-1h-1v-1v-1v-1v-1h-1l-1-1l-1-1l-1,1h-1v1h-1l-1,1l-1,1l-1,1
			l-1,1h-1h-1l-1,1l-16-27h1l3-8v-2l-1-2v-4v-1l-25-23h-1l-4-2l-19-16l-11-9l-1,2l-2,2v2h-2v1l-1,1l-2,1h-2v2l-1,1l-1,1h-1h-1l-2,1
			l-2-1h-1l-1-2h-1l-2,2l-2,4v2l-1,2l-2,1l-1,2l-2,1h-2v-1v-2l-1-1h-2l-3,1l-5,5h-1l-1,1h-3l-5,3l-1,3l-2-1h-2l-2,2v3l-2,1v1h-3
			l-1,2l-2,1h-3h-1h-5l-1,1l-2-1l-2-1h-3l-51,25l-23,29l-27,33l-1,2l-2,3l-3,2l-3,2l-2,2l-1,2l-1,2l-6,5l-4,3l-3,5l-7,5l-4,3v1l-1,4
			h-1l-5,1h-1l-2,3l-2,1l-2,3l-2,1l1,1v1l-2,4l-1,4l2,3l1,3h1l1-2l1-2l1-1v1l2,2h1v2l3,3l2,5l1,1l-2,4l-2,2v1v2v1l-1,2l-4,4v4l-2,5
			l-2,1l-1,2l-5,4l-2,3l-1,1l-2,2v4l-1,3l-2,3l-13,44l34-9l-1,5l1,2h1l2,1h3h6l4,2l3,1l2,1h3l1,1l5,1l3,1h2l2,1h2l2,1h1v-1l3,2h4
			l1,2h3l2,2h4v2l2,1H-35913.8z"/>
	</g>
	<g id="m2805901">
		<path class="st0" d="M-35224.8-34941.2v1v1h1h1v-1h1v1v1h1v1v1h1v1v1v1h1v-1v-1h1v1h1v1v1h1v-1l1-1l1-1h1v-1v-1h1l1-1v-1h1h1h1
			l1-1v-1l2-1v-1h-1v-1h-1l1-1l-1-2h-1l-1-1v-1l1-1h3h3l3-1h1v-1v-1l-2-2l-1-4v-2l1-2v-1h1v-1v-1h1l-8-2l-47-13h-1h-1v1v1l-1,1v1
			l-1,1l-1,1h-3h-1l-2-1h-1l-1-1l-1-1l-3-3h-1l-1-1l-1-1l-1-1v-2l-1-1l-1-1h-1v-1v-1h-1v-1h-1h-1l-1-1l-1-1h-1l-27,26v1h2v1v2h-1
			l-1,1l-4,3l-2,1l-1,1l-1,1l-2,2v3l-1,3v1l1,2l2,2l1,2v1h-1l-1,1l-1,2l1,1v1l-1,1v1l1,1l3,2l1,2l1,2h1l1-1l2-3h1h3h1l1,1l1,1l1,1
			l-1,1v1v1v1l1,1l2,2l1,1h1l1,1l1,1l1-1v-1l1-1h2l1,1h1v-1h1l1-1v-1l-1-1l2-1h1v1v1h1h1h1h3l1-1v-1l1,1l2-1l1,1l1,1v1v1v1h1l1-1h1
			h1l1,2h1h1v-2l1-1v-1l1-1h1l1,1v1h1h1v1l-1,1v1h-1v1l-2,1l-1,1v1l-1,1l-1,1h-1h-1v1l1,1l1,1v1v1h1l1,1l-1,1v1v1v1h1v1l1,1l-1,1h-1
			v1h-1v1v1l1,2l-1,2l1,1l-1,1l-1,1l3-1l29-2v-1v-2h1v-1v-1h1l-1-4l-1-2v-1v-1h1l1-1l1-1v-1h-1v-2h-1v-1h-1l-1-1h-1h-1v-1v-1l-1-1
			v-1l1-1l-1-1h-1l-1-1l-1-1v-1h1l-1-1l1-1l1-1h1l1-2l1-1v-1v-1v-1h-1v-1h1v-1l1-1h1v-1h1v-1h1l-1-1h-1l-1,1v-1h-1h-1v1l-1-1l-1-1
			h-1l-1-1h-1v-1h1l-1-1v-1h1l3,1h1l1,1h1h1l1-1l1-1v-1h1h1h1h1v-1h1h1h1h1v1h1v1H-35224.8L-35224.8-34941.2z"/>
	</g>
	<g id="m2806008">
		<path class="st0" d="M-35521.8-34675.2h10l54,58l10-15l39-30l1-2l1-1l1-2v-2l-1-5l1-1v-1l1-3l1-1l-1-1l1-1l1-4l2-1l1-1v-1l1-1l1-2
			v-3v-2l1-1l13-24l11-13l10-12l4-6l1-2l-1-1v-1v-1l-2,1h-1h-1l-1-1v1l-1-1h-1l-2,1l-1-1h-1l-1-1l-1,2h-1l-1,2h-1v-1h-1l-1,1l-1-1
			h-2h-1l-1,1l-1,1v-1h-1l-2-1v-1h-2v-1v-1h-1l-1,1h-1l-1-1l-2-1v-1l-1-1h-1v-1h-1h-1h-2v-1h-1l-1-2v-1l-1-2l1-4l1-2l-6-1l-4-2v-1
			l-4-3l-1-3l-2-1l-10-6l-3-2l-1-2v-1l-17,3l-11,3l-19-10l-20-10l-11,25l-1,4v1l-26,36l-1,1v1l-6,12l-4,10l-37,44h26l29,1
			L-35521.8-34675.2z"/>
	</g>
	<g id="m2806107">
		<path class="st0" d="M-35112.8-34845.2l2,14l20-5l18-5l16-10l9-5v-1h-1l1-1v-1l-1-1v-1h1l-1-1v-1v-1l1-1v-1l-1-1v-2l1-1v-1v-1v-3
			l-1-3v-1v-1v-3v-2v-1v-1v-1v-1v-1l1-1l-1-3l1-2l-2-2h-2l-1-2l2-2l1-3h1h2l4-4v-2l6-3l2-1l1-2l2-1h3h3l4,1l2,1h1h1h2h2h2v-1l1-2h2
			l1-1l1-2l8,2l7-6l4-3l-1-1l-3-4l-2-1l-1-1l-3-3l-1-2l-2-1l-2-2l-2-1l-1-1v-1l-2-2l-1-1l-1-1h-2h-1l-1-2l-1-1h-1h-1l-3,1h-1l-2,1
			l-4,2l-4,3l-2,1h-1h-1l-2-1h-1l-2-1h-3h-5l-1,1l-1,1l-1,2v2l-1,1l-1,2v1v1h-1l-10-6l-32-14l-2-1l-1-2l-3-2l-3-1h-1l-1-1l8,35l3,2
			l3,4l2,2l1,2v1v1h-2l-1,1l-1,1v3l-1,1l-1,3v1h-1h-1h-1l-2,1l-2-1h-1h-1h-1l-1,1v2v1l-4,2l-1,1h-1l-2-1h-1l-2,1h-1l-1-1l-1-1h-1h-1
			v1h-1l-1,2l-1,1l-1,1v1l-1,1l-1,1l1,1v1l-2,1l1,1l-1,1v1l1,1v2v1h-1v2v1h1h1v1v1v1l-1,1l1,1v1l1,1v1h1v1l-2,1v1h1l-1,1v2l1,1l1,1
			v1v1l-1,1l-1,1l-1,3l-1,2l9,4l6,4h1l1,1v1V-34845.2z"/>
	</g>
	<g id="m2806206">
		<path class="st0" d="M-35564.8-35203.2l8,26v1v1l2-1l12-3l50-13v-1l16-4l2-2l2-1l1-1v-1l1-1l2-1h2h2v-1l1-1v-1l-1-3v-3l1-1l1-1v-1
			v-1h1l3-1h1l1-1h2l1-1l1-1l3-3v-1l1-2l1-1v-2l1-2l1-3l1-1l2-2v-1v-1l1-2l-1-1v-2l1-1v-3l1-1l1-2l2-1l1-1v-2l1-1l2-2l3-2v-1v-1h1
			v-1v-1h1l1-2h1h1v-2l-33-22l-16-11l1-5v-1l-1-2h-1v-1v-1l1-2l2-1l1-1l1-1l2-2l2-1v-2l-3-4h-2h-2v-1v-2h-1h-1v-2h3h1v-2v-2h1l-1-1
			l-1-1l-1-1v-1v-1v-2l-22-19l-29-7l-12-3h-1l-46-11l-1,1l-1,1l-1,2l-1,1l-2,2l-1,1v2l-1,3h1h1l2-1l2-1h1h1h1l2,1v1v1l-1,1l-1,1h-1
			v3l1,1h1l2,2h1l1,1v1h-1h-1h-2h-1l-1,1h-2l-1,1h-1v-1h-1l-1,1l14,45l1,3l9,39v1l-2,57l1,2L-35564.8-35203.2z"/>
	</g>
	<g id="m2806305">
		<path class="st0" d="M-35615.8-35618.2h-1l-22,14l-22,19l-1,2h-1l-13,12l-17,16l-9,7l-9,9l-1,1l1,1l3,13l-3,7l-2,1l-6-10v-1v-1
			l-1-3l-9,8l29,18l44-40l10-8l1-1l5-4l1-1l2,1l2,2v2l1,4l3,6l1,2l2,1h1h3l5-1h1l1,1l2,1l1,1h1h2l2,1l1,1l1,1l1,1h1l3,1v1l2,1l1,1
			l1,1l1,1l1,1l1,1l2,1l2,1l3,1v3l1,1h4l6,1l2-1h2l4-1h2l1,1l1,2l1,2l3,1h2h2h1h3l2-1h1l3-1l2-1l2-1h1h1h2h1h3h1h2l1,1l1,1h2h1h1
			l1-2h1l1-1h1h2h1l2-1l1-1l1-1h1h3l2-2h1l1,1l2,1h1l2-1l1-1v-1h1h1h1l1,4v1h1l2,1h1l1,1l1,2h1h1v1h1v1l1,1l-1,2l1,1v1l1,1h1h1h2h2
			l1-1l1-1l1-3l1-1h1h2v-1l1-1l1-1l3-1l1,1l1-1l2-3h1h1v2l1,1l2,2l4,1h1l2,1h1l5-1h1l2-1l1-3l4-7l1-2l2-1l10-5h1l2-2l1-3l6-12v-3
			l-3-4l-2-3l-2-2l-3-3v-1l-1-2v-5v-10l-3-6l-7-6l-5-6l-1-2l-1-3l-2-7l-1-4l-1-7v-5v-3l1-5l-3-3l-2-1l-2-1l-5-2h-1l-2,1l-2,2l-4,3
			l-2,1h-2l-7-2l-2-1l-1-2l-2-4v-7l-1-1l-2-1l-2-1l-6,1l-4-2l-3-8l-1,1l-2,3l-3,1h-1h-1v-1l1-1l1-1h-2l-1-1l-1,1l-1-1v2h-1l-1-1h-1
			l-1-1l-1,1l-3,1l-3,5h-4h-3l-1,1h-1l-2,2v1v3l-4,1v3l-2,1l1,1l-1,1l-1,2v1v1l-1,1l1,1l-1,3l-1,4l-2,2h-1l-4-1l-3-1l-3-3l-3-1l-1-2
			h-3l-6,2l-1,3l-1,1l-1,1h-7h-6l-5,2l-6-1l-6,3l-5,4l-3,1l-5,4H-35615.8z"/>
		<path class="st0" d="M-35674.8-35571.2l3,9v6h-1l-3-14L-35674.8-35571.2z"/>
		<path class="st0" d="M-35690.8-35548.2l1,3l6,5v1v1l-4,2h-1l-7-3l-4-7v-1L-35690.8-35548.2z"/>
	</g>
	<g id="m2806404">
		<path class="st0" d="M-34632.8-34499.2l5-3l2-12v-3h-2l-2-1l-8-3h-1l-1-1l-50-16v1l-21,38l-8,11l-1,1l4,2h4l5,2l6-1l3-1l3,2l8,5
			l1,7l5,3l2,1h3l6-2h2l5-2h1l3-3l16-19l6-4l2-1L-34632.8-34499.2z"/>
	</g>
	<g id="m2806503">
		<path class="st0" d="M-35265.8-34890.2l-3,1h-1v1h-1l-1,1v1l-1,1v1v1h-1l-1,1v1l-1,1h-1h-1v1v1h-1h-2l-1,1h-2h-1v2l1,1l-1,1l2,1v1
			v1v1l-1,3h-1l-3,1l-2-1l-2,1h-2h-1h-1l-1,1h-1v1v1l-1,3l-1,1h-2l-1,2v2l-1,1h-1l-1,2l-2,1h-1l-2,1v-1h-1h-1l-1,1h-1h-1v1h-1v2
			l-1,1v1l1,1v1v1l-1,1v1l-1,1v3l-1,2h-1l-1,1h-1l-1,1v1h-1h-1l-1,1v2h-1l-1,1h-1h-1h-1l-1,10l3,6l5,1h1l1,1l1,3l1,1l1,1h1l1,1h2
			l4-1l2,1l3-1l4,1l1-1l4-3h2l1-1l2-1l2-1v-1v-1l2,1h1h1h1h2v-1l1-1v-1l1-1h3l1-1l1-1v1l1-1h1v-1v-1l1-1l1-1l1,1v-1l1,1h2h1v-1h1v-1
			v-1v-1l1-1l1,1h1l1-1h1l1-1l2-1l3-1h1l-1-2l1-3h1h2h1l1-1h2v-1v-2l2-1l1-1v-1h1v-1h2v-1v-1v-1h1h1l3,1l4,1h1l1-1l1-1l2-3l3-4l1-1
			l1-3l1-2h2l1-1l1-3l-3-2v-1v-1v-1l2-1l1-2v-2l-2-1h-1l-2-1l-2-1h-1h-1v-1v-1l1-1v-1l-1-1v-1h-1v-1h-1l-1-1v-1l-1-1v-1h2h1v-1v-1
			v-1v-1h-1v-1l-1-1v-2h-1v-1l-3,1h-2h-1L-35265.8-34890.2z"/>
	</g>
	<g id="m2806602">
		<path class="st0" d="M-34920.8-34963.2l-1-3l-2-4v-1l-6-7l-6-10h-1l-2-1h-1h-1v-1l-1-1l-1-1h-2l-2-1l-2-1l-2-1l-5-3l-2-3h-2h-1h-1
			l-1-1v-1v-1l-1,2h-1v-2l-1-1v-1l-1,1l-3,3h-1v-1l-1-1h-1v1l-1,1l-1-1v-1v-2v-2v-1l-1-1v-1l-3-1h-1l-5-2h-1v-1l-1-2l-2-1l-3-3l-1-1
			l-1-2h-1l-1,1h-1l-1-1l-1-2v-1l1-1v-2l1-1v-1l-1-1h-1h-1l-2-1v-1l-1-1v-1l-1-4v-1l-2-5v-1h-4l-6,1v-1h-1v-2l-1-1h-2l-1,1l1,2v1h-1
			h-1v-1l-2-2l-1-2l1-1h1l1-1l1-1l2-3v-1v-2v-1l-1-1v-1l-2-1l-5-2h-1h-1l-1,1l-1,1v1v1v1h-1v-1h-1v-2l-1-1l-1-2v-2l1-1l2-1v-1l-1-1
			l-3-2h-1l-2-1h-1v1l-2,1l-1,1l-1-2l-1-2l-1-1v-1h-1l-4,1h-1h-1v-1l-1-1l1-2v-7l-1-1l-1-1h-2h-2h-1h-1l-1-2l-1-3l-1-2l-1-1l-2-1h-2
			l-8,2l1,1l1,2l2,3l1,3l1,5l4,15l2,8l-3,7l-3,3l-4,6l-5,3l-3,2h-1l-10,3h-5h-3l-4,6l-6,9l-6,5l-6,5l-2,2v5l1,5v3l3,1l4,4h2l3-1h1v1
			l2,2v2l1,1v2l1,1l1,1h1v2l-1,2v1l-2,3v1l1,2v4v3v1l1,1l1,1h1l3,1l3,2l1,2l2,1l32,14l10,6h1v-1v-1l1-2l1-1v-2l1-2l1-1l1-1h5h3l2,1
			h1l2,1h1h1l2-1l4-3l4-2l2-1h1l3-1h1h1l1,1l1,2h1h2l1,1l1,1l2,2v1l1,1l2,1l2,2l2,1l1,2l3,3l1,1l2,1l3,4l1,1l2,2l4,4l2,1l2,3l2,3
			l2,3l1,1l3,2l1,1l4,2l4,2l3,1l2,2l1,1l1-1l-1-1v-2l-1-2v-1l1-1v-1l-1-1l-1-4v-1l1-1l2,1l1,1h1v-1v-1v-1v-1h1l1-1h1l-1,2l1,1v1h1h1
			l4,3l1,1l1,1v1v2l1,1l1-1v-1h1l1-1l-1-3l1-1v-1l-1-1v-2h3l1-1v-1l1-1l3,1v1v1v1v1l4,1l1-1l1-1h1l1,1v1h-3l-1,1v1h-1v1l1,1l1,1v-1
			l1-1l1-1h1l1,1h1h1h1v1h1v-2h1h1v-1v-2l1-1l1-2v-2v-1h1v-1h-1v-1h1v1l1,1h1h2v-1l-1-1v-1l-1-1l2-1l1-1v-1v-2v-1l1-2l-1-1v1h-1v-1
			v-1l1-1v-1h-1l-1-1v-1l1-1h1l1-1l-1-1l1-1v-2l1-1l-1-1v-1l-1-1h-2l-1-1h1l2-1h1l-2-3l-2-1v1l-2,1h-1h-1l-2-1l-2-3l-1-1
			L-34920.8-34963.2z"/>
	</g>
	<g id="m2806701">
		<path class="st0" d="M-35139.8-35185.2l-1-3v-1l-1-1v-1v-1l-2-3l-3-7v-1l-2-6l-1-1l-2-6l-2-6l-3-8l-3-6l-2-6l-3-6v-2l-3-7l-3-7v-1
			l-2-5l-1-2l-1-4l-1-1v-1h-1l-1-1l-1,1l-1,2l-1,1l-1,1l-1,1l-1,1l-1,1h-1l-2,1h-1h-1h-1h-2h-1l-1-1l-2-1l-1-1l-1-2l-1-2l-2-2l-1-2
			v-1l-2-1l-1-2v-1h-1l-1-2v-1l-1-1l-1-2v-1v-1h-1v-1v-1l1-1v-1l1-1l1-1v-1l1-1l1-1l1-1h1l5-5v-1v-1v-2v-1l-1-2v-1l-3-3h-1l-7,6
			l-9,5l-3,1l-2,1l-5,2l-6,1l-3,1l-3,2l-13,8l-1,1l-3,4l-3,7v1v9l-1,4l1,5l-1,4l-1,2l-3,1l-6,1l-2,1h-3l-3,1l-6,2h-2h-2h-6h-1l-5,4
			l-1,1l-4,1h-1l-1,1l-3-1h-1l-1-1l-2,1h-1l-1,3h-1h-1v-1h-1v1v1v1h-1h-1v1v1l-1,1h-1h-1h-1h-1v1v1h-1v1h-1h-1v1v1h-1h-1v1h1h1h1v1
			h-1h-1l-1,1l-1,1v1l-1,1l-1,1h-1h-1v1v1l1,1v1v1v1v2v1v1l-1,1v1l-1,2v1h-1l-1,1v1v1v1l1,1l1,1v1v1h-1h-1l-1,1l-1,1v1h-2l-1,1h-1
			h-1h-1h-1l-5,1h-1l-1,1l-1,1l-1,1l-1,1h-1h-1v1l-2-1v1v1v1l1,1h1v1v1h1h1h1v1l-1,1h-1h-1h-1v1v1v1l-1,1h-1l-1,1v-1h-1l-1,1v1v1v1
			v1v1v1v1h-1v1v1v1v1v1h-1v1h1v1h-1v1v1h-1v1v1h-1v1h-1v1l1-1v1h1l1,1l1,3l1,1l1,2l2,15l11,87v3l1-1l1-1h2l2,1h1h1h1v-1l2-3l2-1
			l1-1v-1l2-2v-1v-1l1-2h1v-1l1-2l6-2l1-1h1h1l2,1h2h1l2-1h3h1h1h5h1v1v1l3,2l1,1h1l1-1l1-2l1-1l1-1h1h1v-1h1h1h1v-1h1h1v-1l2-1v1
			l2-1l1,1l1-1v-2l2-3l1-1v-1l1-1v-1l1-1h2l1-1l1-1l1-1h3l2-1l3-1h1l2-1h1l2-1l1-1h2l2-3l2-2l1,1v1l1-1l3,1h1h1v1h2h2l1-1h1l1-5l1-1
			l1-1v-1v-2l1-1l2-1l1-1l1-1l2,2h2l1,1l2,1l1-1h2v-1h1v-1h1v-1v-1v-1h1v-1v-1h1v-1h1h1h1v-1h1v-1h1h1h1v-1h1h1h1v-1v-1v-1v-1h1v-1
			v-1h1v-1v-1h1v-1v-1v-1h-1v-1v-1v-1h1v-1h1h1h1v-1h1l1-1v-1h1v-1h1v-1h1v-1h1v-1v-1v-1h1v-1h1h1h1v1h1h1v1h1h1l1-1v-1h1v-1l1-1
			l1-2h1h1h1l1-1h1l1,1l1,1h1l2,1l1,1h1h1v1h1h1l1,1h1l1,1h1h1v1h1h1l1,1h1h1h1v1h1h1l1,1h1h1l1,1h1h1l1,1h1h1h1l1,1h1h1h1h1h1h1
			l1-1l1-1h1l1-2v-1l1-2l1-3l2-2l1-3l3-6l1-3v-2l-1-4v-1h-1v-1v-2h-1v-2l-1-1v-1v-1l-1-2l-1-1v-1v-1l-1-1v-1l-1-1v-1l-1-3
			L-35139.8-35185.2z"/>
	</g>
	<g id="m2806800">
		<path class="st0" d="M-35633.8-35037.2h-1v1v1l-1,2l-1,2l-1,1h-1h-1h-2l-4,1l-1,1l-1,1v1l1,1l-1,3v1l-2,3l-1,2v2v1v1v1l2,2l3,4h1
			h1l1,1h1l1,1l1,2l2,4v1l1,1v1h-1v1l-4,1v1l-1,3l-1,3l-1,2l-1,2v1l-1,2h-1l-1,1l-1,3l-1,2v1h-1l-1,1h-1h-1l-1,2v3l-1,1v1h-1h-4
			l-2,1h-1l-4-2l-1,1l1,2l1,2l2,2v1l-1,4v2v1l-2,1v1l1,2v4l1,1l2,1l1,1l1,1l2,2l1,2l3,3l3,1v1l-1,1h1l3-1h1h1l1,1v1v1v1v1l1,1h1h1
			l1-2h1v3l-1,1v2l-1,3v3l1,1l1,1l1,1h1l1-1h1h1h2l2-1h1h1l1-2l3-2l1-1l1-4v-1l3-6v-1v-2l-1-4l-1-2v-1l23-29l5-6l-1-2l-1-1l-1-1
			l-1-2l-1-2l-1-1v-2l1-2v-1l1-1l2-3l1-1l1-1v-2h1v-1l1-1v-1h1h1h2h1l1-1h1l1-1h1v1h1v-1l1,1v1h1l1,1h1v1l1-1v-1h1l1,1v-1h1h1l1-1h1
			v-1l1-1v1l1,1v-1h1l1,1h1l-1-1l1-1h1h1l1,1l1-1h1v-1v-1h-1v-1l-1-1l-1-1v-1h3l2-1l1-1h1v-1h1l1,1h1v-1l-1-1v-1l-1-1l-1-1v-2h1v-1
			h2l3,2v1l1-1v-1l-1-1v-1v-2h-1h-1h-1v-1l-1-1l-1-2h-1l-1-1l-1-1l1-2h1v1h1l2-1v-1v-2h-1v-1l-1-1h-1h-1l1-1h-2v-1v-1h2l4-2l4-2h1
			v-1l2-1v1l1,1v-1h1h1l1-1h1v1l1-1h1l1-1v-1h1v-1h1v-1h1h1l1,1v-1v-1v-1l1-1v-1h-2h-1h-1h-1v-1h-2h-1v-1h-1v1h-1h-1h-1v-1v-1h1v-1
			h-1h-1l1-2v-1l-1-2v-1l-1-1h-2h-1l-2-1v1v1h-1v-1h-1l-1,1h-2l-2,1h-1h-1l-1,1l-2,1l-2,1h-1h-1l-1-1l-1-1h-1h-1l-2,2l-2,1l-2,3h-1
			l-1,1v-1h-1v-1h-1l-2-1l-1-2h-1h-1h-1h-1l-3,1h-1l-2,1l-2,2h-1l-1,1l-1-1l-1-1l-2-2l-3-1h-2l-2,1h-1l-1,1l-3,1h-1l-4,3l-2,2l-3,3
			l-1,1l-4,1l-1,1l-1,3V-35037.2z"/>
	</g>
	<g id="m2806909">
		<path class="st0" d="M-34911.8-34512.2h1l1,1l2,4v1l1,1l2,3l2,1l2,2l2,1l1,1l2,2l1,1h2v1l1,1v1l1,1l2,1h1v2h1l-1,2l2,3h1l1,1v1
			l1,2l1,1h1l2-6l1-1l1-1l1-1h-1v-1l-2-2v-1v-1v-2v-1l1-1h1l1-1h1l1-1v-2v-1v-1v-1v-1v-1v-1h1v-1h1l2-1l4-2h1h2h1l1-1l2-1l1-1h1l1-1
			h-1l-1-1v-1l-2-4l3-2l1-1v-1l1-3h-3v-6l-2-2l-1-1v-3l-1-2v-2v-1l-1-2l-1-3l-4-4l-1-1l-3-1l-1-1l-2-1l-1-1l-2-5v-2v-1l-1-2v-1l2-2
			v-1v-1l-1-1l-1-1v-1l-2-2l-1-1l1-1v-3l-1-1v-1l-2-2l-2-2v-1l-1-1l-1-1v-3h-1l-1-1h-1l-2-2l-1-1h-2h-1l-35-3v-2v-1l-2-3l-1-2l-1-1
			l-1-1h-1l-2-2v-1v-2v-1v-1l-1,1h-1l-4,2h-1l-3,2l-1,2l-2,3l2,13v1v2v2v1l1,3v1l7,12l5,8l-2,26l2,1l6,8v1l3,3l6,10l1,1l2,2h1v1h1h2
			H-34911.8z"/>
	</g>
	<g id="m2807006">
		<path class="st0" d="M-35385.8-34707.2l-2,1h-1l-1,3v1l-1,1h-1l-4,2l-1,1l-1,1v2v3l-1,2l-1,1v1l-1,1l-2,1l-1,4l-1,1l1,1l-1,1l-1,3
			v1l-1,1l1,5v2l-1,2l-1,1l-1,2l-39,30l1,49v12v1l-2,3v1v2l-1,1v2l2,6v2v1v4l-1,1v2l1,1l1,1l1,2v1v1l1,1l1,1v2v1l2,4v1v4h-1v1l1,4
			l1,2l-1,3v2l2,6v2v2l-3,3l1,1l1,3l-1,23v2l-3,6v4l9-10l5-4v-1v-2v-1h1h1v-1l-1-1v-1v-1l1-1l1-2v-1v-2v-1v-3l-1-1v-1v-1v-1h-1v-2
			l-1,1l-1-1v-1l1-2h1v-1l-1-1h-2v-1h1l1-1l1-1l1,1l1-1h1v-2h1l1,1h1v-1v-1l-1-1l1-1l1-2v-1h-1l-1-1v-2l1-1l-1-1l1-1v-1l1-1v-1l-1-1
			l-2-2l-1-1l-2-2v-2v-1h1h2v-1l1-1l2,1l2,1v1l1,1h1l1-1h2h1v-1l1-3v-1v-2l1-1h1v1h1l1-1l-1-1l-1-2v-1h1v-1h1v1l1,1h1l1-2h1h1v1l1,1
			l1-1h1h2l1-1v-2h1h1l1-1l2-1h1v-1l-1-1h-1h-1h-1l-1-1v-2l2-3l-1-1v-2l1-1h1h1l2,1h1h1v-1h1l2-1v-1l-1-1l-1-1l1-2l1-1h1l-1-1v-1v-1
			l2-2h1h1h1v-1v-2v-1v-1h-1h-1h-1h-1l-1-1l-1-1h-1v1l-1,1h-1l-1-1v-2l-1-1l-1-2v-1h1h1h2h1l1-1l1-1l1-1v-2l-1-2l-1-1v-1v-1v-1l1-1
			v-1l1-1v-1l1,1l1-1h1l1-1h1l2,1l1,1l1-1v-1l-2-3l-1-1v-1v-1h-1l-1-2l-1-1l-1-1v-2v-1h-1v-1l1-1h1l1,1h1l2-1h2h3v1l1-1h1h1v-1l1-1
			v-1l-1-2v-1l2-1v-1l2-3v-1v-1v-1v-1l-2-1v-1l2-1h1h2l2-1l1-1l-1-1v-1l-1-1h-1l-2,1l-2-1l-2-1l-1-2v-1l1-1v-1v-1h1l1-1h2l3-1l1-1h2
			l1-1h3l1,1l2,2h1v1l1-1l2,1l2,3v1l1,1h1l1-1v-1l2-2h1v-3v-2l1-1h2h2l2,1l1,1h1l2-1l1-1v-1v-1l-1-2l-1-1h-1l-1-1l1-2v-2v-1v-1v-1
			l1-1l2,2h1h1v-1v-1v-1l2-3v-1l-3-1l-1-1v-2v-1v-1v-1v-1l1-1l1-3h1l3,2l3,1l2,1h-1l1,1h1l2-1h2l1-1v-1l-26-10h-1L-35385.8-34707.2z
			"/>
	</g>
	<g id="m2807105">
		<path class="st0" d="M-35881.8-34918.2l11,4l20,8l-1,6v3l-15,97l5-2h2l4,2l2-2l1-4l1-2l1-1h-1v-1l5-5l2-1l2,1h1v1v3v2l4,3h1l4-4h5
			l1-1l1-1l1-2l1-1l2-1l3,1l4-1l6-2l5-3v-1l-1-1v-5l1-4v-1l5-3l7-2h2l2,2h1l3-4l4-2l1-1l1-4l1-1h1l5,2h3l3-1h3l3-2l1-1l-1-2l-2-4
			l1-1l6-3h1h1l6,8l2,4h1h1l1-2l1-5v-1h1h2l3,2l2,1l1-1l-3-5l-1-3l-3-3l-2-4l-1-1l-3-1v-2l-1-4l-1-1l-1-2l-3-1h-1l-1-1v-1l3-2l2-1
			l2-1v1l1,2l1,1l1-1l1-1l1-1v-1v-1l-1-3l1-2l1-1l5-1l2-4l3-1h2l4,3l2-3l1-1l-1-2l-2-3v-1l3-4h2h3l3-3l1-4v-1h-2l-5-1h-2l-1-1l-1-2
			v-1l1-1l1-1l4-3v-4l-1-2l1-1l1-1l-1-2v-2v-1h-3l-2-2l-2,1l-2-2h-1l-3-2l-2-2l-3-2l-1-1h-4h-2v-1h-3h-1v-2l-1-1v-1l-2-6v-2l2-3
			l-1-2l-11-12l3-3v-1l-1-1l-2-4l-2-4l-1-2v-2v-2h-1l-1-2l-1-2h-1l-1-1l-1-1v-1v-1v-1l-2-1v-1h-1v-1l-2-1l-2-1l-1-1l-2-2h-1h-1l-3-1
			h-1h-1l-1-1h-1l-3-2l-14-12h-1l-24-13l-9-4l-4-2l-1-3l-2-6l-1-5l-2-6v-3l-3-5l-1-4l-14,11l-21-6l-12-4l-15,4l-1,1h-1l-2-1v-2h-4
			l-2-2h-3l-1-2h-4l-3-2v1h-1l-2-1h-2l-2-1h-2l-3-1l-5-1l-1-1h-3l-2-1l-3-1l-4-2h-6h-3l-2-1h-1l-1-2l1-5l-34,9l1,12l2,42l1,18l-1,13
			l-2,26l-1,14l53,21l22,9l16,7l15,6L-35881.8-34918.2z"/>
	</g>
	<g id="m2807204">
		<path class="st0" d="M-35193.8-34744.2l17,22l2,36h2l3-2h1h1h1l1-1l1-1l1-1h4l1-1l2-2l1-2h1l1-1l2-1v-1v-4l1-5l2-2l1-1l3-4l1-1
			l1-1v-1l1-2l1-4v-1l1-1v-1l-1-5v-3v-1l-1-2l1-4v-2v-1h-1h-2v-1l26,4h1l10-2v-1h1h1h1l-2-4v-2v-1v-3v-3v-1v-1l-1-1v-1l-2-1v-1l1-1
			v-2v-1l-1-1l-1-1l-1-1v-2v-3v-5v-1l1-1l2-2v-2l1-1l-2-3l-1-1l-2-1v-2l-1-2l-1-1l-1-2l1-5h3l3-1l3-1l1-1v-2v-1l1-2l-1-3v-4v-2v-1
			l-2-2l-2-2l-3-4l-2-14v-1v-1l-1-1h-1l-6-4l-9-4l-1,1v1h-1v-1l-1-1h-1l-1-2l-1-1l-1-1h-3h-2h-2h-2h-1l-1-1l-1-1h-1h-2l-3-1h-1l-1-1
			h-2l-1,1h-1h-1h-2h-1l-1-2l-3-1l-1-1l-1,1l-3,2l-4,3l-1,1l-1,2l-1,3v1l-1,1l-1,2l3,11h-3h-2l-1,1v-1h-1v-2v-1h-1l-1-1l-1,1l-2,1
			h-2l-2-1v1l1,2l3,1h1l2,1h1l1,2l-28-4l-29,17v2v1l1,1v1l1,1v-1h1v1h1h1v1v2l1,1l2,1h2l1,3h1v2h1h1h1l2,1h1l1,2v2l1,1l1,1l2,1h1
			l1,1h1l1,1h2l2,2v2l1,1l1,2l1,2l1,1l-6,6v1l-3,2l21,28L-35193.8-34744.2z"/>
	</g>
	<g id="m2807303">
		<path class="st0" d="M-34924.8-34442.2l-11,1h-3l-27,3l-14-5l21,30l17,22l2,2l1,2l21,27l4-1l3-4l3-5l4-3l3-1l2,1h2l1-1h5l3-1l2-3
			l1-7l-1-2l2-4v-9v-2l1-2h-1h-1h-1v1v1l-1,1l-2,4l-1,1v2h-1l-1,1l-1,1l-1,1v-1h-1l-3-9l-6-20l-1-22L-34924.8-34442.2z"/>
	</g>
	<g id="m2807402">
		<path class="st0" d="M-36200.8-35136.2l1,1v1v2l1,1v1l-1,1l1,1v1l-1,1v2v1h1l1,1v1v2v1l1,1h2v1l1,1h2h2h3h1l1-1h3v1h1h1l1-1l2,1h1
			h1v3l1,1l1,1v1h1h1h1h1h1v1l1,1l1,1v1l1,1v1l1,1l2,2l1,2v1v1v1l1,1l-1,2l1,1v1v1l1,1l1,1v1l1,1v1v1v1l-1,1l-1,2v1h-1v1l-1,1l-1,2
			h-2l-1,1v1h1h1h1v1v1h-1v1h-1v1v1v1h1v1v1h1l2,1l-1,1h1l1,1l1,1l1-1v1v1h1l1,1v1v1v2v1v1h1h1v1h1v1v1h1l1-1h1h1l1-1v-1h1h1v1l2,2
			v1h2v1l1,1v1h1h1h1h1h1h1v1v1h1h1h1l1-1h1l1,1v1v1h1l1,1h1h1h1v1v1h-1v1h1h1h1l1-1v1v1h1l1-1h1h1h1v1l1,1l1,1h1h1h1h1h1l1,1h2h1
			v-2h1v1h1h1h1h1h1v-1h1l1,1l1,1h1h1h1h1l2-1h1h1h1l1,1h1l1-1v1h1h1h1h1h2l2,1h2h2l1,1h1l1-1h1h1v1h1v1h1l1-1h1h1h1v-1l2,1h1h1h1
			v-1h1v-1h1h2l2-1h1h2l2-1h1h3h1h2h3l4-1h1h3h1l3-1l2-1h4h1l3-1h2l1-1l2-1l-2-42l-1-12l13-44l2-3l1-3v-4l2-2l1-1l2-3l5-4l1-2l2-1
			l2-5v-4l4-4l1-2v-1v-2v-1l2-2l2-4l-1-1l-2-5l-3-3v-2h-1l-2-2v-1l-1,1l-1,2l-1,2h-1l-1-3l-2-3l1-4l2-4v-1l-1-1l2-1l2-3l2-1l2-3h1
			l5-1h1l1-4v-1l4-3l7-5l3-5l4-3l6-5l1-2l1-2l2-2l3-2l3-2l2-3l1-2l27-33l23-29l51-25l-13-6l-22-12l-18-9l-15-13h-1l-14-13v-4l2-5
			l3-3l1-2v-5l-1-1l2-2l3-1v-1l-1-1l-1-2l-1-1v-1l1,1l1-1l-1-1v-1v-4l-1-1v1l-2,2l-4,2l-2,1l-2-1l-5,7l-3-2l-18-9l-3-5l-7-8l-2-2
			l-5-4l-2-8l-3-3l-33-57l-21-38l-1-1h-1v1h-1v1l-1,1l-1,1v1h-1v1h-1v1h-1l-1-1h-1v1h-1h-1v-1v-1h-1v1h-1v-1h-1v1h-1h-1v1h-1h-1v1v1
			v1l1,1v1h1h1h1l1,1h1v1h-1l1,1v-1h1h1v1h1v-1h1v1h1v1h1v1h-1v1h-1l-1,1l-1,1h-1v1h-1v1h-1h-1l-1,1h-1v1l-1,1v1h1h1h1v-1h1v1h1v1h1
			v-1h1l1,1v1v1v1v1h-1v1v1v1v1h-1v1h-1v-1h-1l-1,1v1l-1,2l-1,1l-1,2l-1,1v1l-1,1v1v1v1v1h-1v1v1v1v1l-1,1v1l-1,1v-1h-1h-1h-1l-1-1
			h-1h-1h-1v1v1v1l-1,1h-1v1v1l-1,1v1h-1v1h1h1l1,1l1-1h1h1v-1h1h1h1h1h1l1,1h1h1v1h1h1l1,1h1v1l1,1h1h1l1,2h1v1l1,1l-1,1h-1v1h-1v1
			l1,1h1h1v1h1h1h2v1h1v1v1v1v1h-1h-2h-1l-1,1h-1v1l-1,1l-1,1v1l-1,1h-1v1v1v1h1l1,1h1l1,1l1,1h1h1l1,1h1v1h1l1,1v1h1v1v1v1l-1,1h-1
			l-1,1h-1v-1l-1-1v-1h-1v1v1v1v1l-1,1l-1,1l-1,1l-1,1v1h1v1l1,1h1h1l1-1h1l1,1l1,1v2h-1v1l-1,1l-1,1l-1,1v1l-1,1v1h1h2v1h1v1h1v1h1
			v1h1v1h1h1h1h1h1h1v1v1l1,1v2v1v1v1l-1,1h-1v1v1h-1l-1,1h-1v1v1h1v1l1,1v1h1v1l-1,1v1v1h-1v1v1v1v1h1h1h1h1h1l1,1l1,1v1v1h-1v1h-1
			l-1,1h-1h-1h-1h-2l-1-1h-1v-1l-1-2h-2h-1v1v1h-1l-3,2l-3,1h-1l-2-1l-1-1l-2-2h-1v1h-1v1h-1h-1v1h-1v1h-1v1h-1v1h-1h-1v1h-1l-2,2v1
			h-1l-1,1h-1l-1,1l-1,1h-1v1h-1h-1l-1,1l-1,1v1h-1h-1h-1h-1h-1l-1,1l-1-1h-1h-1h-1v-1h-1h-1h-1v-1h-1v1h-1h-1h-1h-1l-1,1h-1h-1
			l-2-1h-1l-1,1v1h-1l-1,1h-1h-1h-1h-1h-1h-1l-3,1v1l-1,1l-1,1h-1v1l1,1l-1,1v1v1h-1v1l1,1v1h-1v1h-1v1h-2v1h-1v1v1v1v1l-1,1v1v1v1
			v1v1h1v1v1h1l-1,1h-1v1h-1l-1,1v1v1h-1v1v1l1,1v1v1v1h1v1h1v1l1,1h1v1v1v1l1,1l-1,1v1v1v1l1,1v1v1v1l-1,1l-1,1h-1v1v1h-1h-1h-1h-1
			l-2-1h-1h-1l-1,1h-1h-1h-1h-1l-1-1h-1h-1v1v1v1h-1v1h-1h-1h-1h-1v1v1v1v1v1l1,2v1l-1,1v1h-1h-1v1h-1v1l-1,1v1h-1v1l1,1v1l1,1h1v-1
			h1h1v-1h1v1l1,1h1v1l1,1v1v1l1,1l1,2v1l1,1v1v1v1l1,1v1h1v1l1,1v1h1l1,1v1l1,1h1v1v1h-1l-1,1v2h-1h-1v1v1v1v1l-1,1v1l-1,1v1v1h-1
			l-1-1h-1l-1,1v2v1v1h-1v1h-1h-1h-2l-1,1v1v1v1l1,1l-1,1v1l-1,1l-1,1h-1h-2l-1,1v1v1v1l-1,1v1l-1,1l-1,1v1l1,1l1,1l-1,2l-1,1l-2,1
			v1h-1l1,2v1v1v1l-1,1h-1l-1,1h-1v1v1h1v1v1h1h1l1,1l1,1v1v1l-1,1v2v1l-2,1l-3,1v1h-1v1h-1l-3,1h-1h-1h-1v1h-1h-1v1h-1l-1,1h-1h-1
			v-1l-2-1l-1-1h-1v-1v-1v-1l1-2v-1v-2v-1h-1h-1h-1v1l-1-1h-1h-1v1h-1v1l-1,1l-2,1h-1l-1,1l-1,1l-2,3l-1,1l-1,1v1l-1,1h-1l-1,1v1v1
			v1h-1v1h-1l-1-1h-1l-1,1h-1v1l-1,1v1l-1,1h-1h-1v1h-1l-1,1l-1,1h-1h-1v1h-1h-1h-1l-1,1l-1,1h-1l-1,1h-1h-1l-1,1h-1v1h-1l-1,1h-1v1
			h-1v1l-1,1l-1,1v1v1l-1,1l-1,2l-1,1v1h-1v1h-1v1v1l1,1v2v1l-1,2h-1v1h-1v1h-2h-1h-1v1v1v1l1,1v1h1v1v1h1v1l1,1v1l1,1l1,1v1v1l1,1
			v1v1v1v1v1l-1,1v1h1l1,1h1v1h2h1h1h1v-1h1h2h1l1,1l1,1l-1,1l-1,1l-1,1l1,1l-1,1h1v2h-1v3v1v1v1v1v2l1,1l1,1l1,1h1h1H-36200.8z"/>
	</g>
	<g id="m2807501">
		<path class="st0" d="M-35822.8-35580.2v-3v-2l1-2v-1l3-1v-1h1l1-3h2v-1l1-1h2l1,2l1-1l1,2l1-1l2-3l-1-1h-1v-5h1l1-3v-1l2,1h1l1-3
			l3-1v-2l-1-2v-4l-1-1v-1h1l1-2l1-1l1,1v-1h1v1h1l1,1l1-1l2,1l3-1v1l-1,1v2l1,1h1v-3h1v-2l1-1v-1l1-4h-41h-19h-1l-3-10l-22-61l-1,1
			h-1h-1h-1h-1h-1h-1v1h-1v1v2h-1v1v1l-1,1l-1,1h-2l-1,1v1v1l-1,1h-1l-1-1h-1l-1,1l-1,1l-1,1l-1-1l-1-1h-1h-1l-1,1h-1l-2,1l-1,1h-1
			v1l-1,1v1l1,1v2l1,2v1v1v1l-1,1v1v1h1v1h1h1h1l1-1h1h2h1l1,1h1v1v1h1v1v1l-1,1v1h1h1h1h1v1l1,1v1l-1,1v1h-1v1h-1h-1h-1h-1h-1h-1v1
			l-1-1h-1v-1v-2h-1h-1h-1h-1h-1v1h-1h-1h-1v-1h-1l-1,1l-1,1v1l1,1v1h-1v1l-1,1l-1,1h-1h-1h-1l-1-1h-1h-1h-1h-1l-1,1v1l-1,1v1l1,1v1
			h1h1h1v1h1h1l1,1h1h1l1-1h1h1h1h1h1v1l-1,1l-1,1h-2h-1v1h-2h-1l-2,1h-1l-1-1l-1-1h-1h-1h-1l-1,1h-1v-1l-1-1v-2l-1-1h-1l-1-1v-1
			l-1-1v-1h-1v-1l-1-1l-1-1v1h-1v1v1h-1h-1v-1l-1-1l-1-1h-1v-1h-1h-1v1h-1v2v1h-1v2l1,1l-1,1v1v1h-1v1h-1h-1h-1l-1-1v1v1v1h1h1v1
			l1,1v1h-1v1h-1v1h-1l1,1v1v1h1v1h-1v1l1,1v1v1v1v1l-1,1l-1,1h-1v-1h-1v-1h-1h-1l-1,1h-1l-1,1h-1v1v2v1h-1v1h-1h-1l-1-1h-1h-1h-1
			h-1h-1l-1,1l-1,1h-1h-1h-1h-1v-1v-1v-2v-1h1v-1h1v-1v-1l-1-1h-1l-1-2h-1h-1h-1h-1v-1h-1v-1l1-1v-1v-1l-1-1v-1v-1v-1l-1-1h-1l-1,1
			h-1h-1v-1h-1l-1-1h-1h-1v1v1h1v1h1v1v1v1v1h-1l-1,1v1h-1v1v1l-1,1h-1l-1,1h-1l-2,1l-1,1h-1h-1v1h-1v1h1l1,1h1l1,1h1v1v1h-1v1v1
			l-1,1v1v1v1v1v1h-1h-1l-1-1l-1-1l-3,1v-1h-1v-1v-1v-1v-1v-1h-1v-1h-1h-1h-1h-1v1h-1v1v1v1v1v1v1h1v1l1,1v1l-1,1l-1,1h-1v1h-1l-1-1
			h-1h-1h-1h-1h-1v-1l-1-1l-1-1h-1v1v1v1v1h-1v1h-1l-1,1v1v1v1h1h1h1l1,1h1v1l1,1h1v-1h1h1h1h1v1h1l1,1v1h-1v1v1v1v1v1v1l-1,1h-1v-1
			h-1h-1l-1,1v1h-1v1h-1v1l-1,1v2h-1v1h-1v1v1v1v1l1,1l-1,1v1l-1,1h-1v1v1h-1l1,1h1v1h-1l-1,1l-1,1v1v1l1,1v1l1,1l21,38l33,57l3-6
			l4-6l2-1l3-1l6,2h1l2-1l2-3l1-1v-1l3-5v-1h2v-1h1h1h1v-1h1v-1h1l1-1h1l1-1h1v-1l1,1l2-1v-1v-1v-1h2l1-2h1l1-1l2-1l1,1h1v1h1l2,2v1
			l1-1l1,1l1-1v-1h1l-1-1h1v-2h1l1-1v-1h-1l1-1v-1h1l-1-1l1-1v-1h1v-1v-1h1l1-1v-1h2v-1l2,2h1v1h1l1-1h1v-1v-1l1,1h1v1h1v1l1-1l1,1
			v-1h1v-1l1-1v-1l2-3h1l2-1v-1l2-2l2-3h1l1-1l2-2l1-1l1-1v-1l2-1l3-2h3v1h1l1,1h1h1l2-1v1l1-1h1v-1h1v-2l1-2l1-2v-2l-1-3h2l4-2v-2
			l2-2l1,1l3-1l2-3h2l1-2h2l1-1v-2l4-2v-3l1-3l-1-2v-4h1v-1l4,1l-1-3L-35822.8-35580.2z"/>
	</g>
	<g id="m2807600">
		<path class="st0" d="M-35738.8-35590.2l10,9v36v13v9l9-8l2-3v-1l-1-1l6-3l1,1l1-1l9-9h-1h-1l-1-1l-2-1h-2l-1-1h-1l-1-1l-1,1l-1-5
			l1-2h1v-1l3-2h6l10,6l17-16l13-12h1l1-2l22-19l-9-16l-24-44l-6-12l-12-22v1l-1,3l-1-1l-4-5h-2l-1,2h-2l-4,3h-3l-1,2h-2l-2,2l-1,3
			l-1,1v1l2,1l2,1l-1,2l1,1l-1,3l-1,1l2,3l2,1v1l-2,2v2l-1,1v1l-1,1h-1v1v2l-1,1h-1h-1l-1,1v1h-2v2v2v1h-2l-1,1v1v2l-2,1h-1h-2l-1,1
			v2v1v1l-1,1l-1,1l1,2l-3,1l-1,2h-4l-2,1v1l-1,1v1v1l-2,2l-4,2h-2l-1,2l-1,1l-1,1l-2-1l-3,2l-1,2v4l-1,1l-1,1l-1,1l-2-1l-1-2l-1-1
			l-2,1L-35738.8-35590.2z"/>
	</g>
</g>
</svg>
